<svg width="30" height="30" viewBox="0 0 30 30" fill="none" xmlns="http://www.w3.org/2000/svg">
<path fill-rule="evenodd" clip-rule="evenodd" d="M25.2846 25.9185C26.7754 24.5177 27.963 22.826 28.7741 20.948C29.5851 19.07 30.0024 17.0456 30 15C30 6.71538 23.2846 0 15 0C6.71539 0 1.00142e-05 6.71538 1.00142e-05 15C-0.00235691 17.0456 0.414882 19.07 1.22593 20.948C2.03698 22.826 3.22461 24.5177 4.71539 25.9185C7.49529 28.5444 11.1759 30.0051 15 30C18.8241 30.0051 22.5047 28.5444 25.2846 25.9185ZM5.99231 23.9415C7.07243 22.5902 8.4431 21.4996 10.0025 20.7506C11.5619 20.0017 13.2701 19.6137 15 19.6154C16.7299 19.6137 18.4381 20.0017 19.9975 20.7506C21.5569 21.4996 22.9276 22.5902 24.0077 23.9415C22.8293 25.1318 21.4262 26.0763 19.88 26.7202C18.3337 27.364 16.675 27.6945 15 27.6923C13.325 27.6945 11.6663 27.364 10.12 26.7202C8.57377 26.0763 7.17074 25.1318 5.99231 23.9415ZM20.7692 10.3846C20.7692 11.9147 20.1614 13.3821 19.0795 14.4641C17.9975 15.546 16.5301 16.1538 15 16.1538C13.4699 16.1538 12.0025 15.546 10.9205 14.4641C9.8386 13.3821 9.23077 11.9147 9.23077 10.3846C9.23077 8.85452 9.8386 7.38709 10.9205 6.30515C12.0025 5.22321 13.4699 4.61538 15 4.61538C16.5301 4.61538 17.9975 5.22321 19.0795 6.30515C20.1614 7.38709 20.7692 8.85452 20.7692 10.3846Z" fill="#31E3A5"/>
</svg>
