<svg width="14" height="14" viewBox="0 0 14 14" fill="none" xmlns="http://www.w3.org/2000/svg">
<path fill-rule="evenodd" clip-rule="evenodd" d="M7 0C3.13385 0 0 3.13385 0 7C0 10.8662 3.13385 14 7 14C10.8662 14 14 10.8662 14 7C14 3.13385 10.8662 0 7 0ZM7.53846 4.84615C7.53846 4.70335 7.48173 4.56639 7.38075 4.4654C7.27977 4.36442 7.14281 4.30769 7 4.30769C6.85719 4.30769 6.72023 4.36442 6.61925 4.4654C6.51827 4.56639 6.46154 4.70335 6.46154 4.84615V6.46154H4.84615C4.70335 6.46154 4.56639 6.51827 4.4654 6.61925C4.36442 6.72023 4.30769 6.85719 4.30769 7C4.30769 7.14281 4.36442 7.27977 4.4654 7.38075C4.56639 7.48173 4.70335 7.53846 4.84615 7.53846H6.46154V9.15385C6.46154 9.29666 6.51827 9.43361 6.61925 9.5346C6.72023 9.63558 6.85719 9.69231 7 9.69231C7.14281 9.69231 7.27977 9.63558 7.38075 9.5346C7.48173 9.43361 7.53846 9.29666 7.53846 9.15385V7.53846H9.15385C9.29666 7.53846 9.43361 7.48173 9.5346 7.38075C9.63558 7.27977 9.69231 7.14281 9.69231 7C9.69231 6.85719 9.63558 6.72023 9.5346 6.61925C9.43361 6.51827 9.29666 6.46154 9.15385 6.46154H7.53846V4.84615Z" fill="#31E3A5"/>
</svg>
