<svg width="18" height="16" viewBox="0 0 18 16" fill="none" xmlns="http://www.w3.org/2000/svg">
<path d="M14.8371 2.87326C15.5228 3.54651 16.0668 4.34578 16.4379 5.22542C16.809 6.10507 17 7.04787 17 8C17 8.95213 16.809 9.89493 16.4379 10.7746C16.0668 11.6542 15.5228 12.4535 14.8371 13.1267M12.6619 5.00967C13.4696 5.8028 13.9233 6.87844 13.9233 8C13.9233 9.12156 13.4696 10.1972 12.6619 10.9903M4.6923 4.97906L8.5651 1.1767C8.65116 1.09231 8.76076 1.03485 8.88006 1.01158C8.99937 0.988312 9.12301 1.00028 9.23539 1.04596C9.34777 1.09165 9.44384 1.16901 9.51147 1.26827C9.5791 1.36753 9.61525 1.48424 9.61535 1.60366V14.3963C9.61525 14.5158 9.5791 14.6325 9.51147 14.7317C9.44384 14.831 9.34777 14.9084 9.23539 14.954C9.12301 14.9997 8.99937 15.0117 8.88006 14.9884C8.76076 14.9652 8.65116 14.9077 8.5651 14.8233L4.6923 11.0209H2.85435C2.13231 11.0209 1.45621 10.6125 1.26421 9.93018C1.08821 9.30136 0.999347 8.65213 1 8C1 7.33136 1.0919 6.68448 1.26421 6.06982C1.45621 5.38668 2.13231 4.97906 2.85435 4.97906H4.6923Z" stroke="#37474F" stroke-linecap="round" stroke-linejoin="round"/>
</svg>
