<svg width="1277" height="691" viewBox="0 0 1277 691" fill="none" xmlns="http://www.w3.org/2000/svg">
<g filter="url(#filter0_f_6_6343)">
<path d="M15.4275 99.6563C3.59341 87.2839 4.02981 67.6606 16.4022 55.8265L57.5935 16.4275C69.9659 4.59341 89.5891 5.02981 101.423 17.4022L140.822 58.5935C152.656 70.9659 152.22 90.5891 139.848 102.423L98.6563 141.822C86.2839 153.656 66.6606 153.22 54.8265 140.848L15.4275 99.6563Z" fill="#F5FAFE"/>
<path d="M1146.97 197.812C1132.07 189.369 1126.84 170.45 1135.29 155.556L1163.4 105.969C1171.84 91.0743 1190.76 85.8442 1205.65 94.287L1255.24 122.395C1270.13 130.838 1275.36 149.757 1266.92 164.651L1238.81 214.239C1230.37 229.133 1211.45 234.363 1196.56 225.92L1146.97 197.812Z" fill="#C9FFED"/>
<path d="M287.592 30.8244C284.503 26.9296 285.157 21.2688 289.052 18.1806L301.145 8.59172C305.04 5.50349 310.701 6.15733 313.789 10.0521L323.378 22.1453C326.466 26.0401 325.812 31.7009 321.918 34.7892L309.824 44.378C305.93 47.4662 300.269 46.8124 297.181 42.9176L287.592 30.8244Z" fill="#F5F9FB"/>
<path d="M287.592 668.824C284.503 664.93 285.157 659.269 289.052 656.181L301.145 646.592C305.04 643.503 310.701 644.157 313.789 648.052L323.378 660.145C326.466 664.04 325.812 669.701 321.918 672.789L309.824 682.378C305.93 685.466 300.269 684.812 297.181 680.918L287.592 668.824Z" fill="#F5F9FB"/>
<path d="M1003.4 256.586C1000.97 251.627 1003.02 245.636 1007.98 243.204L1032.04 231.403C1037 228.971 1042.99 231.02 1045.42 235.978L1057.22 260.042C1059.66 265 1057.61 270.991 1052.65 273.423L1028.59 285.224C1023.63 287.656 1017.64 285.607 1015.2 280.649L1003.4 256.586Z" fill="#E0FFF6"/>
<path d="M922.045 275.062C923.978 271.714 928.259 270.567 931.607 272.5L936.015 275.045C939.363 276.978 940.51 281.259 938.577 284.607L936.032 289.015C934.099 292.363 929.818 293.51 926.47 291.577L922.062 289.032C918.714 287.099 917.567 282.818 919.5 279.47L922.045 275.062Z" fill="#E0FFF6"/>
<path d="M414.045 657.062C415.978 653.714 420.259 652.567 423.607 654.5L428.015 657.045C431.363 658.978 432.51 663.259 430.577 666.607L428.032 671.015C426.099 674.363 421.818 675.51 418.47 673.577L414.062 671.032C410.714 669.099 409.567 664.818 411.5 661.47L414.045 657.062Z" fill="#E0FFF6"/>
<path d="M1088.49 631.824C1091.57 627.93 1090.92 622.269 1087.02 619.181L1074.93 609.592C1071.04 606.503 1065.38 607.157 1062.29 611.052L1052.7 623.145C1049.61 627.04 1050.26 632.701 1054.16 635.789L1066.25 645.378C1070.15 648.466 1075.81 647.812 1078.9 643.918L1088.49 631.824Z" fill="#F5F9FB"/>
<path d="M962.032 620.062C960.099 616.714 955.818 615.567 952.47 617.5L948.062 620.045C944.714 621.978 943.567 626.259 945.5 629.607L948.045 634.015C949.978 637.363 954.259 638.51 957.607 636.577L962.015 634.032C965.363 632.099 966.51 627.818 964.577 624.47L962.032 620.062Z" fill="#E0FFF6"/>
<path d="M160.674 327.119C156.436 322.024 157.13 314.458 162.225 310.219L184.52 291.674C189.616 287.436 197.182 288.13 201.42 293.225L219.965 315.52C224.204 320.616 223.509 328.182 218.414 332.42L196.119 350.965C191.024 355.204 183.458 354.509 179.219 349.414L160.674 327.119Z" fill="#F5FAFE"/>
</g>
<defs>
<filter id="filter0_f_6_6343" x="0.829712" y="0.643494" width="1276.13" height="689.683" filterUnits="userSpaceOnUse" color-interpolation-filters="sRGB">
<feFlood flood-opacity="0" result="BackgroundImageFix"/>
<feBlend mode="normal" in="SourceGraphic" in2="BackgroundImageFix" result="shape"/>
<feGaussianBlur stdDeviation="3" result="effect1_foregroundBlur_6_6343"/>
</filter>
</defs>
</svg>
