<svg width="39" height="39" viewBox="0 0 39 39" fill="none" xmlns="http://www.w3.org/2000/svg">
<path d="M29.0455 2V29.0455L19.5 24.2727L9.95455 29.0455V2M29.0455 2H32.2273C33.4931 2 34.707 2.50284 35.6021 3.3979C36.4972 4.29296 37 5.50692 37 6.77273V32.2273C37 33.4931 36.4972 34.707 35.6021 35.6021C34.707 36.4972 33.4931 37 32.2273 37H6.77273C5.50692 37 4.29296 36.4972 3.3979 35.6021C2.50284 34.707 2 33.4931 2 32.2273V6.77273C2 5.50692 2.50284 4.29296 3.3979 3.3979C4.29296 2.50284 5.50692 2 6.77273 2H9.95455M29.0455 2H9.95455" stroke="#31E3A5" stroke-width="4" stroke-linecap="round" stroke-linejoin="round"/>
</svg>
