<svg width="40" height="37" viewBox="0 0 40 37" fill="none" xmlns="http://www.w3.org/2000/svg">
<path d="M34.8077 12.5839C36.3944 13.0936 37.5 14.6085 37.5 16.3477V24.0405C37.5 26.0795 35.9797 27.8098 33.9462 27.9767C33.3359 28.0251 32.7256 28.07 32.1154 28.1059V33.6539L26.7308 28.2692C24.3005 28.2692 21.8954 28.1705 19.5154 27.9767C18.9973 27.9348 18.4933 27.787 18.0346 27.5423M34.8077 12.5839C34.5303 12.4946 34.2437 12.4374 33.9533 12.4134C29.1466 12.0143 24.315 12.0143 19.5082 12.4134C17.4782 12.5821 15.9615 14.3105 15.9615 16.3477V24.0405C15.9615 25.5428 16.7872 26.8764 18.0346 27.5423M34.8077 12.5839V9.22027C34.8077 6.31079 32.74 3.78899 29.8538 3.41386C26.1399 2.93246 22.3988 2.69145 18.6538 2.69232C14.8577 2.69232 11.119 2.93822 7.45385 3.41386C4.56769 3.78899 2.5 6.31079 2.5 9.22027V20.3951C2.5 23.3046 4.56769 25.8264 7.45385 26.2016C8.48949 26.3362 9.53051 26.4528 10.5769 26.5498V35L18.0346 27.5423" stroke="#31E3A5" stroke-width="4" stroke-linecap="round" stroke-linejoin="round"/>
</svg>
