<svg width="15" height="14" viewBox="0 0 15 14" fill="none" xmlns="http://www.w3.org/2000/svg">
<path d="M2.43786 0.363328C3.92 0.170471 5.43071 0.0718994 6.96429 0.0718994C8.49786 0.0718994 10.0086 0.171185 11.4907 0.363328C12.8636 0.541899 13.8414 1.69261 13.9229 3.02547C13.6841 2.94592 13.4366 2.89532 13.1857 2.87476C11.1844 2.70862 9.17275 2.70862 7.17143 2.87476C5.48714 3.01476 4.28571 4.43904 4.28571 6.0419V9.10333C4.28504 9.69174 4.44698 10.2689 4.75365 10.7711C5.06033 11.2732 5.49981 11.6809 6.02357 11.949L4.12857 13.8433C4.05365 13.9182 3.95824 13.9691 3.85438 13.9897C3.75053 14.0104 3.64289 13.9998 3.54505 13.9592C3.44722 13.9187 3.36359 13.8501 3.30472 13.7621C3.24585 13.6741 3.21438 13.5706 3.21429 13.4648V10.5862C2.95514 10.5586 2.69631 10.5282 2.43786 10.4948C1.00357 10.3076 0 9.05976 0 7.6519V3.20619C0 1.79904 1.00357 0.549757 2.43786 0.363328Z" fill="#31E3A5"/>
<path d="M10.1786 3.8219C9.19571 3.8219 8.22214 3.86261 7.26 3.94261C6.16 4.03404 5.35714 4.9669 5.35714 6.04261V9.10333C5.35714 10.1798 6.16286 11.1133 7.26429 11.2033C8.15214 11.2762 9.05 11.3155 9.95571 11.3212L11.9429 13.3076C12.0178 13.3824 12.1132 13.4334 12.217 13.454C12.3209 13.4746 12.4285 13.464 12.5264 13.4235C12.6242 13.383 12.7078 13.3144 12.7667 13.2264C12.8256 13.1384 12.857 13.0349 12.8571 12.929V11.2219L13.0929 11.2033C14.1943 11.114 15 10.1798 15 9.10333V6.0419C15 4.9669 14.1964 4.03404 13.0971 3.9419C12.1264 3.86163 11.1527 3.82159 10.1786 3.8219Z" fill="#31E3A5"/>
</svg>
