<svg width="11" height="12" viewBox="0 0 11 12" fill="none" xmlns="http://www.w3.org/2000/svg">
<path d="M7.89297 2.19318L8.79269 1.29293C8.98025 1.10537 9.23463 1 9.49988 1C9.76513 1 10.0195 1.10537 10.2071 1.29293C10.3946 1.48049 10.5 1.73487 10.5 2.00012C10.5 2.26537 10.3946 2.51975 10.2071 2.70731L4.54368 8.3707C4.26172 8.65249 3.91402 8.85961 3.53196 8.97336L2.09998 9.40002L2.52664 7.96804C2.64039 7.58598 2.84751 7.23828 3.1293 6.95632L7.89297 2.19318ZM7.89297 2.19318L9.29988 3.6001M8.49989 7.26672V9.80002C8.49989 10.1183 8.37347 10.4235 8.14843 10.6485C7.92339 10.8736 7.61817 11 7.29991 11H1.69998C1.38173 11 1.07651 10.8736 0.851467 10.6485C0.626427 10.4235 0.5 10.1183 0.5 9.80002V4.20009C0.5 3.88183 0.626427 3.57661 0.851467 3.35157C1.07651 3.12653 1.38173 3.00011 1.69998 3.00011H4.23328" stroke="black" stroke-linecap="round" stroke-linejoin="round"/>
</svg>
