<svg width="39" height="39" viewBox="0 0 39 39" fill="none" xmlns="http://www.w3.org/2000/svg">
<path d="M13.9576 34.3369C13.9054 33.283 13.3698 31.6046 11.8325 30.7223C10.3613 29.8779 8.83294 28.2606 8.02629 26.7603C7.4542 25.6963 6.33845 24.8076 4.32088 24.6228M13.9576 34.3369L5.32107 36.2147C3.61008 36.5867 2.08905 35.0534 2.45809 33.3287L4.32088 24.6228M13.9576 34.3369L32.7493 14.9915M4.32088 24.6228L23.3535 5.84572M32.7493 14.9915L36.2013 11.4377C36.4661 11.1652 36.6687 10.836 36.7536 10.4643C37.1493 8.73129 37.2933 5.64659 35.3994 3.73757C33.5049 1.82785 29.802 1.84445 27.6602 2.15842C27.2047 2.22519 26.7925 2.45292 26.4635 2.77743L23.3535 5.84572M32.7493 14.9915L23.3535 5.84572M22.1489 30.2085L28.3961 36.3149C29.3409 37.2385 30.8461 37.2268 31.7767 36.2887L36.1051 31.9257C37.0459 30.9773 37.0459 29.4396 36.1051 28.4912L33.9539 26.3228M30.0992 22.4372L33.9539 26.3228M33.9539 26.3228L30.822 29.7228M8.4165 16.3659L2.70564 10.6093C1.74394 9.63985 1.76841 8.06069 2.75968 7.12203L7.22324 2.89535C8.16087 2.00749 9.62508 2.01883 10.5491 2.92111L12.753 5.07335M16.6077 8.83755L12.753 5.07335M12.753 5.07335L9.38018 8.35184" stroke="#31E3A5" strokeWidth="4" strokeLinecap="round" strokeLinejoin="round"/>
</svg>
