<svg width="20" height="15" viewBox="0 0 20 15" fill="none" xmlns="http://www.w3.org/2000/svg">
<path d="M1.04651 7.77907C0.984497 7.59931 0.984497 7.40502 1.04651 7.22527C2.29286 3.60867 5.83063 1 10.0001 1C14.1678 1 17.7038 3.60607 18.9528 7.22093C19.0157 7.40033 19.0157 7.59447 18.9528 7.77473C17.7074 11.3913 14.1696 14 10.0001 14C5.83243 14 2.29556 11.3939 1.04651 7.77907Z" stroke="black" stroke-width="1.5" stroke-linecap="round" stroke-linejoin="round"/>
<path d="M12.6959 7.5C12.6959 8.18956 12.4119 8.85088 11.9063 9.33848C11.4008 9.82607 10.7151 10.1 10.0001 10.1C9.28515 10.1 8.59947 9.82607 8.09391 9.33848C7.58835 8.85088 7.30433 8.18956 7.30433 7.5C7.30433 6.81044 7.58835 6.14912 8.09391 5.66152C8.59947 5.17393 9.28515 4.9 10.0001 4.9C10.7151 4.9 11.4008 5.17393 11.9063 5.66152C12.4119 6.14912 12.6959 6.81044 12.6959 7.5Z" stroke="black" stroke-width="1.5" stroke-linecap="round" stroke-linejoin="round"/>
</svg>
