<svg width="13" height="12" viewBox="0 0 13 12" fill="none" xmlns="http://www.w3.org/2000/svg">
<path d="M6.17235 1.05152C6.25933 0.965653 6.37723 0.917425 6.50015 0.917425C6.62308 0.917425 6.74098 0.965653 6.82795 1.05152L12.2026 6.36406C12.2454 6.40783 12.2966 6.44274 12.3532 6.46674C12.4099 6.49074 12.4707 6.50336 12.5323 6.50386C12.5939 6.50436 12.655 6.49273 12.712 6.46965C12.769 6.44657 12.8208 6.4125 12.8643 6.36943C12.9078 6.32636 12.9422 6.27515 12.9655 6.21879C12.9888 6.16243 13.0005 6.10205 13 6.04117C12.9994 5.98029 12.9866 5.92014 12.9623 5.86421C12.9379 5.80828 12.9026 5.7577 12.8582 5.71543L7.48417 0.402885C7.35495 0.275155 7.20154 0.173834 7.0327 0.104706C6.86386 0.0355793 6.6829 0 6.50015 0C6.3174 0 6.13644 0.0355793 5.9676 0.104706C5.79877 0.173834 5.64536 0.275155 5.51613 0.402885L0.141454 5.71543C0.0971705 5.75774 0.0618566 5.80835 0.0375728 5.8643C0.013289 5.92025 0.000521633 5.98042 1.5653e-05 6.04131C-0.000490327 6.10218 0.0112752 6.16256 0.0346257 6.21889C0.0579763 6.27523 0.0924443 6.32641 0.136018 6.36944C0.179593 6.41247 0.2314 6.44649 0.288419 6.46952C0.345437 6.49254 0.406524 6.50412 0.468116 6.50356C0.529707 6.503 0.590569 6.49032 0.647152 6.46627C0.703734 6.44221 0.754902 6.40726 0.797672 6.36345L6.17235 1.05152Z" fill="#37474F"/>
<path d="M6.50015 2.02416L11.5464 7.01208C11.565 7.03042 11.5835 7.04754 11.6027 7.06465V10.8537C11.6027 11.4865 11.0832 12 10.443 12H8.35562C8.2326 12 8.11461 11.9517 8.02762 11.8657C7.94063 11.7797 7.89175 11.6631 7.89175 11.5415V8.79047C7.89175 8.66886 7.84288 8.55224 7.75589 8.46625C7.6689 8.38027 7.55091 8.33196 7.42789 8.33196H5.57242C5.44939 8.33196 5.3314 8.38027 5.24441 8.46625C5.15742 8.55224 5.10855 8.66886 5.10855 8.79047V11.5415C5.10855 11.6631 5.05968 11.7797 4.97268 11.8657C4.88569 11.9517 4.76771 12 4.64468 12H2.55728C2.24971 12 1.95475 11.8792 1.73727 11.6643C1.51979 11.4493 1.39761 11.1577 1.39761 10.8537V7.06465C1.41685 7.04764 1.43562 7.03011 1.45389 7.01208L6.50015 2.02416Z" fill="#37474F"/>
</svg>
