<svg width="112" height="24" viewBox="0 0 112 24" fill="none" xmlns="http://www.w3.org/2000/svg">
<path d="M2.658 19.059C1.96467 19.059 1.42733 18.8683 1.046 18.487C0.682 18.1057 0.5 17.5683 0.5 16.875V2.44499C0.5 1.73432 0.699333 1.19699 1.098 0.832987C1.49667 0.451653 2.06 0.260986 2.788 0.260986C3.39467 0.260986 3.87133 0.38232 4.218 0.624986C4.582 0.85032 4.91133 1.23165 5.206 1.76899L10.796 11.805H9.886L15.45 1.76899C15.762 1.23165 16.0913 0.85032 16.438 0.624986C16.802 0.38232 17.2873 0.260986 17.894 0.260986C18.5873 0.260986 19.116 0.451653 19.48 0.832987C19.8613 1.19699 20.052 1.73432 20.052 2.44499V16.875C20.052 17.5683 19.87 18.1057 19.506 18.487C19.142 18.8683 18.6047 19.059 17.894 19.059C17.2007 19.059 16.6633 18.8683 16.282 18.487C15.918 18.1057 15.736 17.5683 15.736 16.875V7.93099H16.282L12.096 15.211C11.8533 15.5923 11.5933 15.8783 11.316 16.069C11.056 16.2597 10.7007 16.355 10.25 16.355C9.81667 16.355 9.46133 16.2597 9.184 16.069C8.90667 15.8783 8.65533 15.5923 8.43 15.211L4.218 7.90499H4.816V16.875C4.816 17.5683 4.634 18.1057 4.27 18.487C3.906 18.8683 3.36867 19.059 2.658 19.059Z" fill="black"/>
<path d="M26.8325 23.739C26.2952 23.739 25.8618 23.6003 25.5325 23.323C25.2032 23.0457 24.9952 22.6817 24.9085 22.231C24.8392 21.7803 24.9172 21.3037 25.1425 20.801L26.8845 17.031V18.903L22.4385 8.73699C22.2132 8.21699 22.1352 7.73165 22.2045 7.28099C22.2912 6.83032 22.5252 6.47499 22.9065 6.21499C23.2878 5.93765 23.8078 5.79899 24.4665 5.79899C25.0212 5.79899 25.4632 5.92899 25.7925 6.18899C26.1392 6.43165 26.4512 6.91699 26.7285 7.64499L29.3285 14.405H28.4445L31.2005 7.61899C31.4778 6.90832 31.7899 6.43165 32.1365 6.18899C32.5005 5.92899 32.9859 5.79899 33.5925 5.79899C34.1125 5.79899 34.5285 5.93765 34.8405 6.21499C35.1525 6.47499 35.3432 6.83032 35.4125 7.28099C35.4818 7.73165 35.4039 8.21699 35.1785 8.73699L29.2765 21.997C28.9645 22.6903 28.6178 23.1497 28.2365 23.375C27.8725 23.6177 27.4045 23.739 26.8325 23.739Z" fill="black"/>
<path d="M45.5009 19.059C44.8423 19.059 44.3049 18.9203 43.8889 18.643C43.4903 18.3657 43.1523 17.9237 42.8749 17.317L36.5829 3.43299C36.3056 2.82632 36.2189 2.28032 36.3229 1.79499C36.4269 1.30965 36.6696 0.936987 37.0509 0.676987C37.4323 0.399653 37.9089 0.260986 38.4809 0.260986C39.1916 0.260986 39.7203 0.416986 40.0669 0.728987C40.4309 1.04099 40.7429 1.50032 41.0029 2.10699L46.3069 14.379H44.8509L50.1549 2.08099C50.4149 1.47432 50.7269 1.02365 51.0909 0.728987C51.4549 0.416986 51.9663 0.260986 52.6249 0.260986C53.1623 0.260986 53.6129 0.399653 53.9769 0.676987C54.3409 0.936987 54.5663 1.30965 54.6529 1.79499C54.7569 2.28032 54.6703 2.82632 54.3929 3.43299L48.0749 17.317C47.8149 17.9237 47.4856 18.3657 47.0869 18.643C46.6883 18.9203 46.1596 19.059 45.5009 19.059Z" fill="black"/>
<path d="M61.1998 19.111C59.7785 19.111 58.5392 18.8423 57.4818 18.305C56.4245 17.7677 55.6012 16.9963 55.0118 15.991C54.4225 14.9857 54.1278 13.7983 54.1278 12.429C54.1278 11.389 54.2925 10.4617 54.6218 9.64699C54.9512 8.81499 55.4278 8.11299 56.0518 7.54099C56.6758 6.95165 57.4212 6.50965 58.2878 6.21499C59.1545 5.90299 60.1252 5.74699 61.1998 5.74699C62.6212 5.74699 63.8605 6.01565 64.9178 6.55299C65.9752 7.09032 66.7898 7.86165 67.3618 8.86699C67.9512 9.85499 68.2458 11.0423 68.2458 12.429C68.2458 13.4517 68.0812 14.379 67.7518 15.211C67.4225 16.043 66.9458 16.7537 66.3218 17.343C65.7152 17.915 64.9698 18.357 64.0858 18.669C63.2192 18.9637 62.2572 19.111 61.1998 19.111ZM61.1998 15.705C61.6678 15.705 62.0838 15.5923 62.4478 15.367C62.8118 15.1243 63.0892 14.769 63.2798 14.301C63.4878 13.8157 63.5918 13.1917 63.5918 12.429C63.5918 11.2677 63.3665 10.4357 62.9158 9.93299C62.4652 9.41299 61.8932 9.15299 61.1998 9.15299C60.7318 9.15299 60.3158 9.26565 59.9518 9.49099C59.5878 9.71632 59.3018 10.0717 59.0938 10.557C58.8858 11.025 58.7818 11.649 58.7818 12.429C58.7818 13.573 59.0072 14.405 59.4578 14.925C59.9085 15.445 60.4892 15.705 61.1998 15.705Z" fill="black"/>
<path d="M76.8925 19.111C75.4538 19.111 74.1971 18.8423 73.1225 18.305C72.0651 17.7677 71.2418 16.9963 70.6525 15.991C70.0631 14.9683 69.7685 13.7723 69.7685 12.403C69.7685 11.363 69.9331 10.4357 70.2625 9.62099C70.5918 8.78899 71.0685 8.08699 71.6925 7.51499C72.3338 6.94299 73.0878 6.50965 73.9545 6.21499C74.8385 5.90299 75.8178 5.74699 76.8925 5.74699C77.3951 5.74699 77.9238 5.79899 78.4785 5.90299C79.0331 5.98965 79.6051 6.16299 80.1945 6.42299C80.6105 6.57899 80.8965 6.82165 81.0525 7.15099C81.2258 7.46299 81.2951 7.80099 81.2605 8.16499C81.2431 8.52899 81.1391 8.85832 80.9485 9.15299C80.7751 9.44765 80.5238 9.64699 80.1945 9.75099C79.8825 9.85499 79.5271 9.81165 79.1285 9.62099C78.8511 9.48232 78.5565 9.38699 78.2445 9.33499C77.9498 9.26565 77.6638 9.23099 77.3865 9.23099C76.9185 9.23099 76.5025 9.30032 76.1385 9.43899C75.7918 9.57765 75.4971 9.78565 75.2545 10.063C75.0118 10.323 74.8211 10.6523 74.6825 11.051C74.5611 11.4497 74.5005 11.9003 74.5005 12.403C74.5005 13.4083 74.7518 14.197 75.2545 14.769C75.7571 15.341 76.4678 15.627 77.3865 15.627C77.6638 15.627 77.9498 15.601 78.2445 15.549C78.5391 15.4797 78.8338 15.3757 79.1285 15.237C79.5271 15.0463 79.8825 15.0117 80.1945 15.133C80.5065 15.237 80.7578 15.4363 80.9485 15.731C81.1391 16.0257 81.2431 16.355 81.2605 16.719C81.2778 17.0657 81.1998 17.4037 81.0265 17.733C80.8531 18.045 80.5585 18.279 80.1425 18.435C79.5705 18.695 79.0071 18.8683 78.4525 18.955C77.9151 19.059 77.3951 19.111 76.8925 19.111Z" fill="black"/>
<path d="M87.3808 19.111C86.3928 19.111 85.5175 18.929 84.7548 18.565C84.0095 18.201 83.4202 17.707 82.9868 17.083C82.5708 16.4417 82.3628 15.7137 82.3628 14.899C82.3628 13.963 82.6055 13.2263 83.0908 12.689C83.5762 12.1517 84.3562 11.7703 85.4308 11.545C86.5055 11.3023 87.9355 11.181 89.7208 11.181H91.1508V13.365H89.7208C89.0448 13.365 88.4815 13.417 88.0308 13.521C87.5975 13.6077 87.2768 13.755 87.0688 13.963C86.8608 14.1537 86.7568 14.405 86.7568 14.717C86.7568 15.1157 86.8955 15.445 87.1728 15.705C87.4675 15.965 87.8835 16.095 88.4208 16.095C88.8542 16.095 89.2355 15.9997 89.5648 15.809C89.9115 15.6183 90.1888 15.3583 90.3968 15.029C90.6048 14.6823 90.7088 14.2837 90.7088 13.833V10.817C90.7088 10.193 90.5442 9.75099 90.2148 9.49099C89.9028 9.23099 89.3568 9.10099 88.5768 9.10099C88.1608 9.10099 87.6928 9.15299 87.1728 9.25699C86.6528 9.34365 86.0722 9.50832 85.4308 9.75099C84.9628 9.92432 84.5642 9.95032 84.2348 9.82899C83.9055 9.70765 83.6455 9.49965 83.4548 9.20499C83.2815 8.91032 83.1948 8.58965 83.1948 8.24299C83.2122 7.89632 83.3248 7.56699 83.5328 7.25499C83.7582 6.94299 84.0962 6.70032 84.5468 6.52699C85.3788 6.21499 86.1415 6.00699 86.8348 5.90299C87.5455 5.79899 88.1955 5.74699 88.7848 5.74699C90.2062 5.74699 91.3762 5.95499 92.2948 6.37099C93.2308 6.76965 93.9242 7.39365 94.3748 8.24299C94.8428 9.07499 95.0768 10.1497 95.0768 11.467V16.719C95.0768 17.4817 94.8948 18.0623 94.5308 18.461C94.1668 18.8597 93.6382 19.059 92.9448 19.059C92.2342 19.059 91.6882 18.8597 91.3068 18.461C90.9428 18.0623 90.7608 17.4817 90.7608 16.719V16.043L90.9168 16.407C90.8302 16.9617 90.6308 17.4383 90.3188 17.837C90.0068 18.2357 89.5995 18.5477 89.0968 18.773C88.5942 18.9983 88.0222 19.111 87.3808 19.111Z" fill="black"/>
<path d="M106.136 19.111C105.148 19.111 104.264 18.877 103.484 18.409C102.722 17.9237 102.219 17.291 101.976 16.511L102.262 15.445V16.719C102.262 17.4817 102.063 18.0623 101.664 18.461C101.283 18.8597 100.728 19.059 100 19.059C99.2548 19.059 98.6828 18.8597 98.2842 18.461C97.9028 18.0623 97.7122 17.4817 97.7122 16.719V2.60099C97.7122 1.83832 97.9115 1.25765 98.3102 0.858986C98.7088 0.46032 99.2722 0.260986 100 0.260986C100.746 0.260986 101.318 0.46032 101.716 0.858986C102.132 1.25765 102.34 1.83832 102.34 2.60099V8.16499H102.028C102.288 7.45432 102.8 6.87365 103.562 6.42299C104.325 5.97232 105.183 5.74699 106.136 5.74699C107.246 5.74699 108.216 6.01565 109.048 6.55299C109.898 7.09032 110.556 7.85299 111.024 8.84099C111.492 9.82899 111.726 11.025 111.726 12.429C111.726 13.7983 111.492 14.9857 111.024 15.991C110.556 16.9963 109.898 17.7677 109.048 18.305C108.216 18.8423 107.246 19.111 106.136 19.111ZM104.68 15.705C105.148 15.705 105.556 15.5923 105.902 15.367C106.266 15.1243 106.552 14.769 106.76 14.301C106.968 13.8157 107.072 13.1917 107.072 12.429C107.072 11.2677 106.847 10.4357 106.396 9.93299C105.946 9.41299 105.374 9.15299 104.68 9.15299C104.212 9.15299 103.796 9.26565 103.432 9.49099C103.068 9.71632 102.782 10.0717 102.574 10.557C102.366 11.025 102.262 11.649 102.262 12.429C102.262 13.573 102.488 14.405 102.938 14.925C103.389 15.445 103.97 15.705 104.68 15.705Z" fill="black"/>
</svg>
