<svg width="22" height="19" viewBox="0 0 22 19" fill="none" xmlns="http://www.w3.org/2000/svg">
<path d="M18.5876 3.13599C19.4234 3.97172 20.0863 4.96388 20.5386 6.05582C20.9909 7.14776 21.2237 8.31809 21.2237 9.49999C21.2237 10.6819 20.9909 11.8522 20.5386 12.9442C20.0863 14.0361 19.4234 15.0283 18.5876 15.864M15.9366 5.78799C16.921 6.77254 17.474 8.10776 17.474 9.49999C17.474 10.8922 16.921 12.2275 15.9366 13.212M6.22364 5.74999L10.9436 1.02999C11.0485 0.925238 11.1821 0.853913 11.3275 0.825029C11.4729 0.796145 11.6236 0.810996 11.7606 0.867707C11.8975 0.924419 12.0146 1.02045 12.097 1.14366C12.1794 1.26688 12.2235 1.41175 12.2236 1.55999V17.44C12.2235 17.5882 12.1794 17.7331 12.097 17.8563C12.0146 17.9795 11.8975 18.0756 11.7606 18.1323C11.6236 18.189 11.4729 18.2038 11.3275 18.175C11.1821 18.1461 11.0485 18.0747 10.9436 17.97L6.22364 13.25H3.98364C3.10364 13.25 2.27964 12.743 2.04564 11.896C1.83114 11.1154 1.72284 10.3095 1.72364 9.49999C1.72364 8.66999 1.83564 7.86699 2.04564 7.10399C2.27964 6.25599 3.10364 5.74999 3.98364 5.74999H6.22364Z" stroke="black" stroke-width="1.5" stroke-linecap="round" stroke-linejoin="round"/>
</svg>
<svg width="22" height="19" viewBox="0 0 22 19" fill="none" xmlns="http://www.w3.org/2000/svg">
<path d="M18.5876 3.13599C19.4234 3.97172 20.0863 4.96388 20.5386 6.05582C20.9909 7.14776 21.2237 8.31809 21.2237 9.49999C21.2237 10.6819 20.9909 11.8522 20.5386 12.9442C20.0863 14.0361 19.4234 15.0283 18.5876 15.864M15.9366 5.78799C16.921 6.77254 17.474 8.10776 17.474 9.49999C17.474 10.8922 16.921 12.2275 15.9366 13.212M6.22364 5.74999L10.9436 1.02999C11.0485 0.925238 11.1821 0.853913 11.3275 0.825029C11.4729 0.796145 11.6236 0.810996 11.7606 0.867707C11.8975 0.924419 12.0146 1.02045 12.097 1.14366C12.1794 1.26688 12.2235 1.41175 12.2236 1.55999V17.44C12.2235 17.5882 12.1794 17.7331 12.097 17.8563C12.0146 17.9795 11.8975 18.0756 11.7606 18.1323C11.6236 18.189 11.4729 18.2038 11.3275 18.175C11.1821 18.1461 11.0485 18.0747 10.9436 17.97L6.22364 13.25H3.98364C3.10364 13.25 2.27964 12.743 2.04564 11.896C1.83114 11.1154 1.72284 10.3095 1.72364 9.49999C1.72364 8.66999 1.83564 7.86699 2.04564 7.10399C2.27964 6.25599 3.10364 5.74999 3.98364 5.74999H6.22364Z" stroke="black" stroke-width="1.5" stroke-linecap="round" stroke-linejoin="round"/>
</svg>
