<svg width="262" height="261" viewBox="0 0 262 261" fill="none" xmlns="http://www.w3.org/2000/svg">
<path d="M51.6191 30.8193H33.2656V36.6605H51.6191V30.8193Z" fill="#EBEBEB"/>
<path d="M177.938 99.9946H159.584V105.836H177.938V99.9946Z" fill="#EBEBEB"/>
<path d="M41.3829 23.4537C38.3344 23.5059 30.5201 23.6363 27.576 23.6729H23.0294L23.2695 23.4328V29.274L23.0085 29.013C26.057 29.013 33.8296 29.0547 36.7737 29.0965L41.362 29.1539L41.2368 29.274L41.362 23.4328L41.3829 23.4537ZM41.3829 23.4537L41.503 29.2948V29.4201H41.3777C39.0861 29.4514 34.4873 29.5036 32.2009 29.5193L23.0242 29.5558H22.7632V29.2948V23.4537V23.2188H22.9981H27.6282C30.5514 23.2501 38.3292 23.3806 41.3516 23.4328L41.3829 23.4537Z" fill="#EBEBEB"/>
<path d="M93.3167 149.292C90.2682 149.344 82.4539 149.475 79.5098 149.506H74.9631L75.2033 149.271V155.113L74.9423 154.852C77.9908 154.852 85.7633 154.888 88.7074 154.93L93.2958 154.987L93.1705 155.113L93.2958 149.271L93.3167 149.292ZM93.3167 149.292L93.442 155.133V155.253H93.3167C91.0251 155.253 86.4315 155.337 84.1399 155.353L74.9631 155.389H74.7021V155.128V149.287V149.047H74.9371L79.5672 149.073C82.4904 149.104 90.2734 149.235 93.2906 149.287L93.3167 149.292Z" fill="#EBEBEB"/>
<path d="M83.0803 141.916C80.0319 141.968 72.2175 142.099 69.2734 142.13H64.7268L64.9669 141.895V147.737L64.7059 147.476C67.7544 147.476 75.527 147.512 78.4711 147.554L83.0595 147.611L82.9342 147.737L83.0595 141.895L83.0803 141.916ZM83.0803 141.916L83.2056 147.757V147.877H83.0803C80.7888 147.904 76.1899 147.961 73.9036 147.977L64.7268 148.013H64.4658V147.752V141.911V141.671H64.7059H69.3361C72.2593 141.702 80.0371 141.833 83.0595 141.885L83.0803 141.916Z" fill="#EBEBEB"/>
<path d="M72.8857 149.282H54.5322V155.123H72.8857V149.282Z" fill="#EBEBEB"/>
<path d="M238.97 23.4536H220.617V29.2948H238.97V23.4536Z" fill="#EBEBEB"/>
<path d="M228.734 203.831H210.38V209.672H228.734V203.831Z" fill="#EBEBEB"/>
<path d="M238.97 196.465C235.922 196.517 228.108 196.648 225.164 196.684H220.617L220.857 196.444V202.286L220.596 202.025C223.645 202.025 231.417 202.066 234.361 202.108L238.95 202.165L238.824 202.286L238.95 196.444L238.97 196.465ZM238.97 196.465L239.096 202.306V202.432H238.97C236.679 202.463 232.085 202.515 229.794 202.536L220.617 202.567H220.356V202.301L220.382 196.46V196.225H220.617H225.247C228.17 196.256 235.953 196.392 238.97 196.439V196.465Z" fill="#EBEBEB"/>
<path d="M51.6194 203.831C48.5709 203.883 40.7566 204.013 37.8125 204.05H33.2659L33.506 203.81V209.651L33.245 209.39L42.4218 209.426C44.7081 209.426 49.3122 209.5 51.5985 209.531L51.4732 209.651L51.5985 203.81L51.6194 203.831ZM51.6194 203.831L51.7447 209.672V209.797H51.6194C49.3278 209.828 44.729 209.881 42.4426 209.901L33.2659 209.933H33.0049V209.667V203.825V203.58H33.2398H37.8699C40.7931 203.611 48.5709 203.747 51.5933 203.794L51.6194 203.831Z" fill="#EBEBEB"/>
<path d="M105.981 62.7185L105.031 69.5045C104.952 70.1834 104.736 70.8393 104.397 71.4324C104.057 72.0255 103.601 72.5435 103.055 72.955C102.51 73.3664 101.886 73.6628 101.222 73.8261C100.559 73.9894 99.8689 74.0162 99.1946 73.905C97.8403 73.7109 96.6179 72.9887 95.7944 71.8962C94.9708 70.8037 94.6131 69.4297 94.7993 68.0743L96.3184 57.2167C96.3184 57.1123 96.4384 57.1279 96.4541 57.0235C96.3654 56.9035 96.3653 56.9035 96.3758 56.7991C96.6021 55.4598 97.3322 54.2579 98.4163 53.4397C99.5005 52.6215 100.857 52.249 102.207 52.3986C103.751 52.6341 105.328 52.5605 106.844 52.1822C108.36 51.804 109.786 51.1285 111.039 50.1949C112.293 49.2613 113.348 48.0883 114.145 46.7438C114.941 45.3993 115.463 43.91 115.679 42.3624C115.896 40.8147 115.803 39.2395 115.406 37.728C115.01 36.2164 114.317 34.7987 113.368 33.557C112.419 32.3152 111.233 31.2742 109.879 30.4942C108.525 29.7142 107.03 29.2107 105.479 29.013C103.452 28.7227 101.385 28.9712 99.4843 29.7336C97.5838 30.496 95.9176 31.7453 94.6532 33.356C94.2296 33.8997 93.7026 34.354 93.1025 34.6929C92.5024 35.0318 91.8411 35.2484 91.1569 35.3305C90.4726 35.4125 89.7789 35.3582 89.1157 35.1707C88.4525 34.9833 87.8331 34.6663 87.293 34.2382C86.7634 33.8164 86.3225 33.294 85.9957 32.7011C85.6689 32.1081 85.4627 31.4563 85.3889 30.7833C85.3152 30.1103 85.3753 29.4294 85.566 28.7797C85.7566 28.1301 86.0739 27.5246 86.4995 26.9981C88.7627 24.1089 91.7082 21.8271 95.0713 20.3579C98.4345 18.8888 102.11 18.2781 105.768 18.5809C109.425 18.8837 112.95 20.0904 116.026 22.0926C119.102 24.0949 121.632 26.8299 123.389 30.0519C125.146 33.274 126.076 36.8821 126.093 40.5521C126.111 44.2221 125.217 47.8391 123.491 51.0779C121.765 54.3168 119.261 57.0761 116.205 59.1079C113.148 61.1398 109.635 62.3805 105.981 62.7185ZM102.781 85.5769L102.515 87.4561C102.439 88.1362 102.225 88.7937 101.887 89.3886C101.549 89.9835 101.093 90.5033 100.548 90.9165C100.002 91.3296 99.3782 91.6274 98.714 91.7917C98.0497 91.956 97.359 91.9834 96.6838 91.8722C95.3283 91.6807 94.1041 90.9592 93.2801 89.866C92.4561 88.7728 92.0994 87.3973 92.2885 86.0415L92.5495 84.1623C92.7539 82.8129 93.4787 81.5971 94.5685 80.7756C95.6584 79.954 97.0267 79.592 98.3803 79.7671C99.0534 79.8534 99.7025 80.0732 100.29 80.4133C100.877 80.7535 101.39 81.2074 101.8 81.7483C102.21 82.2893 102.507 82.9065 102.676 83.5639C102.844 84.2213 102.88 84.9056 102.781 85.5769Z" fill="#EBEBEB"/>
<path d="M55.4092 95.2078L56.9282 100.746C57.0936 101.294 57.146 101.869 57.0822 102.437C57.0184 103.005 56.8397 103.555 56.557 104.052C56.2743 104.549 55.8936 104.983 55.4378 105.328C54.982 105.674 54.4608 105.923 53.9058 106.06C52.8011 106.363 51.6214 106.215 50.6253 105.65C49.6292 105.084 48.8979 104.147 48.5919 103.043L46.1541 94.1691C46.1541 94.0908 46.222 94.0647 46.1959 93.9759C46.0863 93.9185 46.0863 93.9185 46.0602 93.8298C45.7892 92.7255 45.9515 91.5595 46.5136 90.5712C47.0757 89.5829 47.995 88.8474 49.0825 88.5158C50.3831 88.2168 51.6096 87.6577 52.6883 86.8721C53.7669 86.0864 54.6754 85.0906 55.3589 83.9445C56.0424 82.7984 56.4868 81.5258 56.6654 80.2033C56.8439 78.8809 56.7529 77.536 56.3979 76.2497C56.0428 74.9634 55.431 73.7622 54.5993 72.7186C53.7676 71.6751 52.7333 70.8107 51.5586 70.1775C50.384 69.5443 49.0933 69.1555 47.7643 69.0345C46.4354 68.9135 45.0957 69.0627 43.826 69.4732C42.1721 69.9211 40.6656 70.7974 39.4585 72.0136C38.2515 73.2298 37.3866 74.7429 36.9513 76.4002C36.8087 76.9606 36.5561 77.4871 36.2081 77.9489C35.8601 78.4107 35.4236 78.7987 34.9242 79.0902C34.4248 79.3817 33.8723 79.5709 33.2991 79.6467C32.7258 79.7226 32.1432 79.6837 31.5851 79.5322C31.0383 79.3831 30.5263 79.1273 30.0787 78.7797C29.631 78.4321 29.2565 77.9994 28.9766 77.5066C28.6967 77.0137 28.517 76.4704 28.4477 75.9079C28.3785 75.3453 28.4211 74.7747 28.5732 74.2287C29.3531 71.2567 30.8593 68.5252 32.9562 66.2794C35.0531 64.0336 37.6751 62.3439 40.5866 61.3622C43.4982 60.3806 46.608 60.1376 49.6366 60.6552C52.6653 61.1728 55.5179 62.4347 57.9381 64.3276C60.3584 66.2205 62.2705 68.685 63.5025 71.4997C64.7346 74.3145 65.2481 77.3912 64.9968 80.4535C64.7456 83.5158 63.7374 86.4676 62.063 89.0439C60.3886 91.6201 58.1004 93.74 55.404 95.2131L55.4092 95.2078ZM60.5352 113.843L60.958 115.373C61.1233 115.921 61.1751 116.498 61.1104 117.067C61.0456 117.637 60.8657 118.187 60.5814 118.685C60.2972 119.182 59.9147 119.617 59.4571 119.962C58.9996 120.307 58.4766 120.555 57.92 120.692C56.8147 120.992 55.6356 120.842 54.6401 120.276C53.6446 119.71 52.9134 118.773 52.606 117.669L52.178 116.135C51.8923 115.03 52.048 113.857 52.6122 112.865C53.1764 111.873 54.1047 111.14 55.2004 110.821C55.7488 110.661 56.3236 110.613 56.8908 110.68C57.4581 110.746 58.0063 110.925 58.5031 111.207C58.9999 111.489 59.4352 111.867 59.7834 112.32C60.1315 112.773 60.3854 113.291 60.53 113.843H60.5352Z" fill="#EBEBEB"/>
<path d="M82.4123 120.107L82.1878 124.356C82.173 124.78 82.0724 125.196 81.8921 125.579C81.7118 125.963 81.4555 126.306 81.1387 126.587C80.822 126.869 80.4514 127.083 80.0494 127.218C79.6475 127.352 79.2224 127.403 78.8 127.368C77.9524 127.322 77.1576 126.942 76.59 126.311C76.0224 125.679 75.7283 124.849 75.7724 124.001L76.1274 117.215C76.1274 117.152 76.2005 117.158 76.2057 117.09C76.2109 117.022 76.1378 117.022 76.1431 116.954C76.2108 116.114 76.5974 115.332 77.2234 114.768C77.8495 114.204 78.6676 113.901 79.51 113.921C80.4697 113.972 81.43 113.834 82.3362 113.514C83.2424 113.194 84.0767 112.698 84.7914 112.056C85.5061 111.413 86.0873 110.636 86.5017 109.769C86.9162 108.902 87.1558 107.962 87.2069 107.002C87.2579 106.043 87.1195 105.082 86.7994 104.176C86.4793 103.27 85.9839 102.435 85.3414 101.721C84.6989 101.006 83.9219 100.425 83.0548 100.01C82.1877 99.596 81.2474 99.3564 80.2877 99.3053C79.019 99.2342 77.7539 99.4982 76.6195 100.071C75.4852 100.644 74.5215 101.505 73.8254 102.568C73.5938 102.928 73.2928 103.239 72.9399 103.482C72.587 103.725 72.1893 103.895 71.77 103.982C71.3506 104.07 70.918 104.073 70.4975 103.991C70.0769 103.91 69.6768 103.745 69.3205 103.507C68.9709 103.275 68.6707 102.976 68.4372 102.627C68.2037 102.278 68.0415 101.886 67.96 101.474C67.8785 101.062 67.8792 100.638 67.9622 100.227C68.0452 99.8149 68.2088 99.4238 68.4436 99.0756C69.6879 97.1672 71.387 95.5979 73.3881 94.5088C75.3892 93.4197 77.6296 92.8448 79.9078 92.836C82.1861 92.8272 84.4309 93.3847 86.4403 94.4583C88.4498 95.5319 90.1609 97.0881 91.42 98.9868C92.6791 100.886 93.4466 103.067 93.6536 105.336C93.8606 107.605 93.5005 109.89 92.6058 111.985C91.7111 114.08 90.3097 115.92 88.5277 117.34C86.7457 118.759 84.6389 119.714 82.3966 120.117L82.4123 120.107ZM81.6554 134.415L81.5927 135.59C81.5806 136.013 81.4825 136.43 81.3043 136.815C81.1262 137.2 80.8717 137.545 80.5564 137.828C80.2411 138.112 79.8715 138.329 79.47 138.465C79.0685 138.602 78.6434 138.655 78.2206 138.622C77.372 138.577 76.5764 138.196 76.0086 137.563C75.4409 136.931 75.1475 136.099 75.193 135.25L75.2557 134.076C75.3121 133.232 75.6953 132.443 76.3239 131.876C76.9526 131.31 77.7771 131.011 78.6226 131.043C79.0448 131.06 79.4594 131.162 79.8418 131.341C80.2242 131.521 80.5668 131.776 80.8494 132.09C81.132 132.404 81.3489 132.772 81.4873 133.171C81.6258 133.57 81.6829 133.993 81.6554 134.415Z" fill="#DBDBDB"/>
<path d="M208.219 42.8984H166.449V84.6689H208.219V42.8984Z" fill="white"/>
<path d="M164.272 40.7163V86.8298H210.391V40.7163H164.272ZM208.219 84.6583H166.459V42.8983H208.219V84.6583Z" fill="#DBDBDB"/>
<path d="M205.208 76.5723V62.1338H172.65V76.5723H205.208Z" fill="#EBEBEB"/>
<path d="M195.67 72.125V55.4419H178.987V72.125H195.67Z" fill="#C7C7C7"/>
<path d="M212.171 40.7217H210.391V86.8404H212.171V40.7217Z" fill="#C7C7C7"/>
<path d="M229.804 104.28H188.034V146.051H229.804V104.28Z" fill="white"/>
<path d="M206.121 110.962H195.216V142.47H206.121V110.962Z" fill="#C7C7C7"/>
<path d="M185.862 102.104V148.248H231.976V102.104H185.862ZM229.804 146.051H188.044V104.291H229.804V146.051Z" fill="#DBDBDB"/>
<path d="M217.26 116.824H200.583V133.502H217.26V116.824Z" fill="#EBEBEB"/>
<path d="M233.761 102.104H231.981V148.222H233.761V102.104Z" fill="#C7C7C7"/>
<path d="M25.2637 228.5L51.6978 228.375L78.1318 228.328L131 228.239L183.868 228.328L210.302 228.375L236.736 228.5L210.302 228.626L183.868 228.673L131 228.761L78.1318 228.673L51.6978 228.626L25.2637 228.5Z" fill="#263238"/>
<path d="M150.721 126.961C177.061 154.486 209.858 212.047 203.412 223.531C196.229 236.304 159.564 197.729 159.725 195.51C159.856 193.834 147.276 158.97 137.713 133.637C128.15 108.305 144.206 120.154 150.721 126.961Z" fill="#D3766A"/>
<path d="M159.475 195.52C158.389 191.799 141.252 145.842 136.371 131.314C131.49 116.787 136.282 112.387 150.643 125.844C165.003 139.301 196.25 183.989 203.172 207.563C209.843 230.27 198.207 230.092 183.012 219.444C170.567 210.721 159.475 195.52 159.475 195.52Z" fill="#31E3A5"/>
<path d="M135.218 119.893C135.119 119.856 135.019 119.82 134.915 119.773C134.956 119.644 135.01 119.52 135.077 119.402C135.275 119.48 135.479 119.554 135.682 119.621C137.327 120.143 139.336 120.316 140.782 119.183C140.946 119.055 141.096 118.912 141.231 118.755L141.628 118.953C140.156 120.718 137.327 120.665 135.218 119.893ZM146.571 122.294L146.169 121.976C145.94 122.087 145.71 122.191 145.48 122.289C142.192 123.735 138.131 125.191 135.286 127.634L135.411 128.156C136.922 126.853 138.618 125.78 140.443 124.972C142.453 124.001 144.572 123.234 146.571 122.294ZM150.225 132.087C151.195 130.847 152.271 129.694 153.441 128.642C153.336 128.527 153.227 128.417 153.122 128.307C150.121 130.917 147.97 134.906 145.115 137.437C143.545 138.894 141.658 139.966 139.603 140.569C139.65 140.705 139.697 140.841 139.749 140.976C141.173 140.569 142.516 139.921 143.721 139.061C146.42 137.228 148.226 134.592 150.231 132.066L150.225 132.087ZM165.055 142.422C160.712 148.316 152.835 149.73 145.924 150.774C145.089 150.9 144.254 151.035 143.418 151.202C143.476 151.354 143.528 151.51 143.585 151.667C146.503 151.072 149.505 150.821 152.407 150.158C157.246 149.052 162.325 146.76 165.358 142.814L165.055 142.422ZM170.97 193.229C167.984 192.482 165.269 193.474 162.644 194.862C161.782 195.322 160.911 195.807 160.034 196.261L160.331 196.648C163.87 194.826 167.279 192.555 171.356 193.881C172.687 194.314 173.966 195.165 174.488 196.491C175.166 198.219 174.404 200.02 173.199 201.299C171.512 203.079 169.21 203.789 166.981 204.629L167.368 205.062L169.294 204.311C171.951 203.267 175.072 201.325 175.266 198.13C175.407 195.557 173.308 193.808 170.975 193.229H170.97ZM160.582 161.387C162.67 158.416 164.627 155.331 166.731 152.356C167.639 151.067 168.594 149.746 169.638 148.509L169.341 148.107C168.782 148.765 168.255 149.438 167.744 150.117C165.624 152.93 163.724 155.9 161.751 158.813C158.776 163.203 155.283 168.147 150.7 171.19C150.758 171.352 150.815 171.508 150.878 171.67C154.803 169.065 157.961 165.072 160.587 161.381L160.582 161.387ZM161.626 169.217C161.464 170.491 161.65 171.786 162.165 172.963C162.679 174.141 163.503 175.157 164.549 175.903C166.981 177.574 169.701 176.545 171.429 174.405C172.473 173.142 173.188 171.691 174.102 170.355C175.158 168.783 176.469 167.398 177.98 166.257C178.868 165.599 179.845 165.072 180.882 164.691L180.585 164.237C179.938 164.483 179.316 164.789 178.726 165.15C175.777 166.946 173.982 169.718 172.175 172.563C171.246 174.014 170.129 175.559 168.412 176.107C167.679 176.312 166.905 176.316 166.17 176.118C165.435 175.921 164.767 175.529 164.236 174.985C161.73 172.646 161.568 169.05 163.458 166.299C165.452 163.386 168.902 161.82 172.165 160.776C173.835 160.254 175.558 159.805 177.244 159.267L176.957 158.844C173.564 159.935 169.946 160.698 167.039 162.42C164.539 163.908 162.111 166.226 161.652 169.227L161.626 169.217ZM189.292 178.252C187.881 179.955 186.207 181.421 184.333 182.595C181.275 184.626 177.758 185.86 174.102 186.187C170.484 186.514 166.88 185.435 164.037 183.175C161.558 181.181 159.339 178.707 156.051 178.164C155.119 178.009 154.169 177.99 153.232 178.106C153.3 178.289 153.363 178.466 153.43 178.628C154.721 178.485 156.028 178.62 157.262 179.025C158.995 179.604 160.425 180.789 161.782 181.964C163.044 183.154 164.43 184.204 165.917 185.096C167.379 185.879 168.97 186.394 170.615 186.615C173.896 187.014 177.224 186.565 180.282 185.31C183.586 184.005 187.193 181.76 189.595 178.785L189.292 178.252ZM189.318 223.348C189.803 223.609 190.284 223.87 190.753 224.079C192.364 224.444 193.912 225.046 195.347 225.864C195.953 226.034 196.568 226.166 197.19 226.261C195.602 225.267 193.9 224.468 192.121 223.88C191.209 223.61 190.271 223.436 189.323 223.358L189.318 223.348ZM191.928 182.877L191.698 182.47C187.293 183.415 183.179 186.568 181.54 190.582C180.246 193.751 181.018 196.846 182.386 199.853C183.246 201.534 184 203.267 184.646 205.041C185.161 206.673 185.447 208.368 185.497 210.079C185.611 213.379 184.77 216.641 183.075 219.475L183.482 219.757C184.788 217.611 185.605 215.203 185.873 212.704C186.223 209.54 185.772 206.337 184.562 203.392C183.137 199.926 180.715 196.512 181.43 192.576C182.349 187.868 187.011 183.916 191.949 182.888L191.928 182.877ZM203.443 208.575C202.018 209.034 200.556 209.371 199.074 209.583C197.299 209.802 195.159 209.724 194.115 208.017C193.363 206.785 193.499 205.203 193.906 203.877C194.799 200.986 197.137 199.326 199.345 197.493C199.288 197.347 199.22 197.201 199.152 197.055C198.04 197.968 196.871 198.83 195.869 199.79C194.073 201.513 192.737 204.248 193.16 206.785C193.682 209.969 196.918 210.413 199.606 209.995C200.944 209.748 202.262 209.41 203.553 208.983C203.558 208.868 203.506 208.727 203.464 208.586L203.443 208.575Z" fill="white"/>
<path opacity="0.1" d="M183.012 219.444C170.568 210.726 159.475 195.52 159.475 195.52C158.395 191.798 141.247 145.842 136.371 131.314C134.57 125.943 134.085 121.96 134.92 119.752L183.012 219.444Z" fill="black"/>
<path d="M158.629 228.407H56.9072C56.9072 228.407 77.7141 147.549 112.088 114.089C116.697 109.599 134.649 110.356 138.788 117.116C154.297 142.47 158.911 228.046 158.629 228.407Z" fill="#31E3A5"/>
<path d="M145.694 183.107C141.696 188.786 146.044 196.522 152.418 197.859C153.727 198.126 155.08 198.081 156.369 197.728L156.416 198.25C155.226 198.575 153.982 198.649 152.762 198.469C147.093 197.587 142.322 191.548 143.841 185.795C145.01 181.311 149.583 178.19 154.114 178.049C154.114 178.237 154.161 178.419 154.187 178.607C153.798 178.613 153.409 178.644 153.023 178.701C151.569 178.907 150.17 179.403 148.911 180.16C147.652 180.917 146.558 181.919 145.694 183.107ZM61.2764 214.02L61.1198 213.889C61.0624 214.062 61.0102 214.234 60.958 214.411C64.9304 217.695 65.75 223.609 67.0236 228.417H67.5456C66.1884 223.379 65.4472 217.569 61.2764 214.02ZM78.278 184.788C81.3839 184.59 84.542 183.551 86.4316 180.946C87.8932 178.936 88.6553 176.107 87.5748 173.758C86.322 171.038 83.2631 170.318 80.5278 170.386C79.3428 170.412 78.1736 170.527 77.0095 170.657L76.7903 171.179C78.6878 170.866 80.618 170.801 82.5323 170.986C84.2131 171.216 85.8678 171.952 86.8074 173.424C87.1806 174.062 87.4234 174.769 87.522 175.501C87.6205 176.234 87.5728 176.98 87.3817 177.694C86.5882 181.113 83.8007 183.269 80.4808 183.989C77.5419 184.626 74.5509 184.282 71.6068 183.859L71.4189 184.334C73.6847 184.71 75.9822 184.863 78.278 184.788ZM82.6575 222.836C79.6926 222.314 74.9319 225.144 73.3346 221.27C72.134 218.368 73.8566 215.127 75.6941 212.945C77.9335 210.298 80.8253 208.32 83.6807 206.393C88.9529 202.828 101.726 191.913 95.6293 187.288C89.9447 182.982 82.6419 195.546 78.3667 199.487C74.5874 202.964 69.0542 206.112 63.6463 206.033L63.4897 206.498C68.955 206.592 74.3578 203.481 78.4189 200.114C83.7642 195.687 89.0312 184.177 95.2064 187.706C100.332 190.634 90.7747 200.902 85.4816 204.551C82.8141 206.393 80.0423 208.121 77.6098 210.293C75.4592 212.203 73.3503 214.563 72.6978 217.444C72.2175 219.574 72.4629 222.309 74.6292 223.426C76.0073 224.141 77.568 223.87 79.0244 223.593C80.8566 223.238 82.574 223.024 84.2758 223.948C85.1251 224.417 85.8693 225.054 86.4619 225.822C87.0546 226.59 87.4831 227.471 87.7209 228.411H88.2795C88.2795 228.411 88.2795 228.411 88.2795 228.385C87.5644 225.739 85.3928 223.348 82.6419 222.842L82.6575 222.836ZM119.871 158.406C118.586 157.665 117.115 157.31 115.634 157.384C114.153 157.457 112.724 157.955 111.519 158.818C108.909 160.666 107.306 163.652 106.08 166.534C104.712 169.754 103.47 173.32 100.807 175.705C99.3668 177.005 97.0961 178.143 95.3265 176.749C94.1729 175.841 93.7605 174.238 93.6926 172.824C93.5934 169.796 95.3996 166.935 97.2057 164.649C99.0744 162.274 101.256 160.17 103.141 157.806C104.89 155.613 106.424 153.108 106.837 150.289C107.04 148.895 106.837 147.387 105.693 146.452C104.706 145.753 103.487 145.461 102.29 145.638C99.325 145.925 96.7933 148.081 95.0081 150.336C94.0126 151.614 93.1388 152.982 92.3981 154.423C91.589 155.963 90.9887 157.607 90.1691 159.121C89.2191 160.896 87.5852 161.757 85.6121 161.152C84.3145 160.723 83.189 159.888 82.4018 158.771C82.3287 158.923 82.2556 159.074 82.1878 159.226C83.6389 161.006 85.8104 162.394 88.1229 161.642C89.5897 161.162 90.3779 159.836 90.9834 158.51C91.6829 156.944 92.3615 155.415 93.1863 153.932C94.841 150.952 97.143 147.898 100.411 146.577C101.784 146.024 103.543 145.8 104.905 146.515C106.8 147.512 106.56 149.84 106.064 151.599C104.404 157.43 98.9178 161.115 95.624 165.965C94.1207 168.188 92.8731 170.871 93.2281 173.622C93.5517 176.097 95.316 178.399 98.0565 177.798C101.277 177.099 103.376 173.701 104.686 170.955C106.179 167.823 107.181 164.477 109.306 161.7C111.43 158.923 114.693 157.064 118.227 158.27C122.011 159.56 124.177 163.297 124.318 167.144C124.579 174.176 119.62 179.996 114.567 184.24C109.702 188.317 104.206 191.637 99.7061 196.152C94.7209 201.175 91.4773 207.665 90.451 214.667C89.8194 218.963 89.8246 224.131 91.5629 228.396H92.2206C91.706 227.132 91.3246 225.818 91.0826 224.476C89.7463 217.303 91.3749 209.536 94.9663 203.246C98.4272 197.185 103.866 193.035 109.374 188.948C114.218 185.352 119.292 181.604 122.356 176.274C125.634 170.652 126.412 162.055 119.855 158.411L119.871 158.406ZM136.82 191.6C136.765 190.005 136.338 188.446 135.574 187.045C134.81 185.644 133.73 184.44 132.42 183.53C131.232 182.714 129.83 182.267 128.39 182.246C126.949 182.225 125.535 182.63 124.324 183.41C121.813 185.018 120.189 187.862 119.568 190.718C118.665 194.868 119.417 199.127 119.5 203.314C119.639 211.34 117.47 219.238 113.252 226.068C112.756 226.866 112.208 227.634 111.644 228.406H112.354C114.053 226.084 115.469 223.568 116.572 220.91C118.099 217.367 119.137 213.631 119.657 209.807C120.205 205.777 119.949 201.826 119.735 197.801C119.532 193.928 119.657 189.872 121.917 186.563C123.906 183.65 127.382 181.865 130.833 183.316C134.283 184.767 136.22 188.442 136.293 192.096C136.502 199.649 131.073 205.992 127.351 212.073C125.576 214.965 123.984 218.024 123.238 221.354C122.721 223.675 122.643 226.072 123.008 228.422H123.53C123.108 225.756 123.264 223.03 123.99 220.43C125.905 213.644 130.901 208.314 134.09 202.16C135.766 198.882 137.034 195.291 136.805 191.605L136.82 191.6ZM151.984 214.568C150.043 212.25 147.229 210.71 144.154 211.013C141.336 211.29 138.861 213.101 138.256 215.946C137.562 219.235 139.3 222.649 141.101 225.285C141.8 226.329 142.594 227.336 143.35 228.391H143.94C142.521 226.355 140.928 224.423 139.848 222.174C138.282 218.916 137.76 214.448 141.414 212.355C144.499 210.575 148.299 211.608 150.758 213.947C153.42 216.484 154.667 220.106 155.409 223.619C155.738 225.185 155.988 226.751 156.239 228.391H156.735C155.972 223.468 155.231 218.473 151.969 214.584L151.984 214.568ZM119.881 111.4C119.596 111.428 119.314 111.459 119.036 111.494C117.845 112.882 116.472 114.103 114.954 115.122C112.864 116.545 110.549 117.604 108.105 118.254L107.468 118.974C108.059 118.854 108.643 118.702 109.217 118.52C113.043 117.288 117.23 114.809 119.881 111.4ZM120.612 125.875C119.985 124.625 119.824 123.193 120.158 121.835C120.743 119.183 122.862 116.615 125.639 116.171C129.236 115.586 132.075 118.75 135.218 119.893C136.815 120.477 138.82 120.65 140.344 119.935C140.286 119.809 140.224 119.689 140.166 119.574C138.804 120.263 137.102 120.096 135.682 119.621C132.488 118.577 129.94 115.639 126.385 115.68C121.687 115.743 118.086 121.72 120.121 125.932C120.837 127.394 122.209 128.386 123.384 129.43C124.611 130.448 125.594 131.729 126.26 133.178C126.86 134.537 127.177 136.005 127.193 137.491C127.208 138.977 126.921 140.45 126.349 141.822C125.806 143.151 124.892 144.297 123.717 145.122C122.542 145.947 121.154 146.418 119.72 146.478C118.351 146.512 116.992 146.233 115.747 145.662C114.502 145.092 113.404 144.244 112.537 143.184C111.704 142.144 111.23 140.862 111.185 139.53C111.138 137.745 111.811 136.012 112.229 134.31C112.892 131.779 112.991 128.459 110.094 127.3C107.771 126.366 105.02 127.53 103.203 129.007C100.776 130.975 99.7948 134.081 98.4376 136.785C96.9864 139.671 94.8671 142.412 91.4167 142.725C91.1975 142.725 90.9834 142.756 90.7694 142.756C90.6755 142.923 90.5815 143.096 90.4823 143.278H90.618C93.4055 143.305 95.7337 141.853 97.3466 139.624C99.2467 137.014 100.061 133.778 101.898 131.116C103.464 128.856 106.821 126.768 109.65 127.66C113.769 128.96 111.702 134.055 111.023 136.905C110.407 139.478 110.694 141.906 112.516 143.92C115.872 147.621 122.209 148.097 125.488 144.077C128.849 139.932 128.129 133.272 124.313 129.665C123.081 128.469 121.463 127.478 120.612 125.875ZM135.609 140.903C138.381 141.947 141.44 140.668 143.726 139.087C144.696 138.408 145.592 137.63 146.399 136.764L146.274 136.315C145.903 136.712 145.517 137.093 145.12 137.448C142.714 139.583 139.049 141.728 135.75 140.475C132.352 139.186 131.632 135.219 132.707 132.123C133.918 128.61 137.243 126.48 140.443 124.977C141.038 124.699 141.638 124.433 142.244 124.178C142.197 124.043 142.139 123.912 142.082 123.777C137.186 125.901 132.06 128.652 131.762 134.519C131.626 137.223 132.952 139.896 135.609 140.903ZM152.924 169.519C150.838 171.365 148.372 172.728 145.699 173.513C141.967 174.557 138.183 173.648 135.813 170.469C134.793 169.044 134.024 167.455 133.537 165.771C132.895 163.683 132.43 161.434 133.015 159.288C133.965 155.686 137.421 153.431 140.782 152.377C143.664 151.469 146.691 151.166 149.656 150.68C149.62 150.513 149.588 150.346 149.557 150.158C148.336 150.378 147.119 150.571 145.934 150.748C142.411 151.27 138.793 152.001 135.922 154.246C134.617 155.207 133.594 156.501 132.961 157.994C132.328 159.486 132.109 161.122 132.326 162.728C132.738 165.954 134.028 169.514 136.34 171.842C138.652 174.17 141.889 174.833 145.042 174.165C147.993 173.471 150.727 172.06 153.002 170.057C152.966 169.895 152.924 169.707 152.924 169.519Z" fill="white"/>
<path d="M202.462 222.941C195.154 230.51 180.569 231.183 138.929 232.713C133.187 232.927 120.738 192.665 126.876 192.122C134.612 191.438 164.779 190.467 166.992 190.671C185.674 192.42 207.41 217.81 202.462 222.941Z" fill="#D3766A"/>
<path d="M140.276 193.093C140.276 193.093 123.869 189.439 114.656 190.196C102.321 191.203 92.0846 197.154 87.9452 199.905C79.3061 205.647 62.3672 225.483 67.2583 231.377C71.6692 236.691 87.9347 215.518 87.9347 215.518C87.9347 215.518 67.7855 234.368 74.2688 239.791C80.752 245.215 98.239 219.558 98.239 219.558C98.239 219.558 77.975 239.395 85.544 243.925C91.286 247.355 108.413 225.013 108.413 225.013C108.413 225.013 91.1085 242.208 96.84 245.956C103.177 250.132 120.299 230.5 120.299 230.5C136.481 237.651 147.119 234.436 154.406 231.246C156.171 230.474 140.276 193.093 140.276 193.093Z" fill="#D3766A"/>
<path d="M94.4858 208.55C92.0376 210.679 89.5477 212.819 87.2979 215.158C85.048 217.497 82.8817 219.913 80.8564 222.466C75.8974 228.694 73.7676 233.365 73.9294 233.089C77.787 226.606 85.711 218.107 87.9608 215.769C90.2106 213.43 92.3352 210.987 94.5798 208.649C94.6372 208.576 94.5432 208.503 94.4858 208.55Z" fill="#263238"/>
<path d="M103.078 216.521C100.072 219.371 96.9814 222.095 94.0999 225.081C91.2185 228.067 88.7703 231.126 86.1081 234.289C85.9045 234.53 86.1081 234.561 86.3169 234.326C89.094 231.272 91.9023 228.662 94.7159 225.645C97.5295 222.628 100.228 219.491 103.141 216.588C103.198 216.541 103.125 216.479 103.078 216.521Z" fill="#263238"/>
<path d="M111.686 222.033C106.868 226.157 102.812 231.168 98.9597 236.174C98.7666 236.424 99.0276 236.435 99.2364 236.174C103.381 231.392 106.591 227.608 111.827 222.179C111.911 222.116 111.785 221.944 111.686 222.033Z" fill="#263238"/>
<path d="M131.679 190.995L160.838 235.991C160.838 235.991 196.856 232.671 203.569 224.324C207.995 218.833 185.951 190.953 165.16 190.587L131.679 190.995Z" fill="#31E3A5"/>
<path d="M136.805 191.606C136.904 193.65 136.626 195.696 135.985 197.64L135.635 197.118C136.11 195.489 136.331 193.797 136.293 192.101C136.283 191.719 136.251 191.337 136.199 190.958H136.721C136.763 191.167 136.791 191.383 136.805 191.606ZM144.635 210.998L144.948 211.478C147.114 211.567 149.172 212.451 150.726 213.963C153.388 216.5 154.636 220.122 155.377 223.636C155.748 225.374 156.014 227.175 156.291 228.986L156.938 229.988C156.098 224.554 155.576 218.891 151.963 214.584C150.136 212.397 147.526 210.888 144.64 210.998H144.635ZM184.578 203.418C183.534 200.918 182.005 198.449 181.493 195.787L181.007 195.5C181.263 197.013 181.732 198.482 182.401 199.864C183.261 201.545 184.016 203.278 184.661 205.052C185.176 206.684 185.462 208.379 185.512 210.09C185.721 216.964 181.958 223.703 175.098 225.635C168.928 227.373 161.928 224.706 160.201 218.165C159.437 215.38 159.748 212.41 161.072 209.844C162.821 206.603 166.057 205.606 169.283 204.327C171.94 203.283 175.062 201.341 175.255 198.146C175.406 195.536 173.308 193.803 170.975 193.224C167.989 192.477 165.274 193.469 162.649 194.858C159.459 196.544 156.186 198.647 152.418 197.854C150.63 197.445 148.976 196.585 147.615 195.356C146.253 194.127 145.229 192.57 144.64 190.833H144.008C144.649 192.772 145.799 194.502 147.338 195.844C148.877 197.186 150.749 198.089 152.757 198.459C159.543 199.503 164.528 191.673 171.35 193.871C172.682 194.304 173.96 195.155 174.482 196.481C175.161 198.209 174.399 200.01 173.193 201.289C170.552 204.076 166.407 204.233 163.38 206.41C159.083 209.5 158.306 215.779 160.488 220.357C163.061 225.76 169.513 227.597 175.015 226.141C181.242 224.492 185.21 218.958 185.899 212.7C186.242 209.545 185.79 206.354 184.583 203.418H184.578ZM197.92 210.147L197.539 209.677C196.198 209.641 194.882 209.26 194.131 208.038C193.664 207.221 193.48 206.272 193.609 205.339L193.154 204.885C193.056 205.522 193.056 206.17 193.154 206.806C193.593 209.322 195.728 210.131 197.926 210.147H197.92ZM192.126 223.891C189.662 223.16 186.77 223.03 184.39 224.131C181.853 225.301 180.778 227.785 181.128 230.51C181.254 231.317 181.428 232.115 181.65 232.901L182.088 232.817C181.566 230.677 181.133 228.542 182.297 226.595C183.8 224.09 187.151 223.62 189.808 223.928C193.139 224.314 195.9 226.183 198.761 227.775L199.33 227.488C196.96 226.178 194.684 224.648 192.126 223.891Z" fill="white"/>
<path d="M188.488 200.73C178.022 192.201 174.483 190.729 158.008 190.53C157.873 190.53 157.847 190.703 157.982 190.708C176.049 191.522 184.39 198.198 188.368 200.866C188.472 200.929 188.582 200.808 188.488 200.73Z" fill="#263238"/>
<path d="M171.554 230.923C168.615 225.802 165.4 220.843 162.158 215.894C158.917 210.946 155.712 205.976 152.36 201.117C150.466 198.36 148.586 195.599 146.618 192.911C146.566 192.843 146.436 192.911 146.483 192.989C149.416 198.105 152.611 203.079 155.8 208.038C158.99 212.997 162.242 217.956 165.536 222.868C167.399 225.64 169.31 228.381 171.278 231.069C171.398 231.199 171.643 231.069 171.554 230.923Z" fill="#263238"/>
<path opacity="0.1" d="M168.448 190.864L144.436 210.7L131.663 190.995L165.155 190.587C165.546 190.587 165.943 190.614 166.34 190.64L168.214 190.843L168.448 190.864Z" fill="black"/>
<path d="M99.8104 141.9C95.5352 190.165 102.217 228.61 122.481 231.382C135.938 233.219 132.566 192.409 132.535 191.537C132.43 188.552 130.88 163.647 121.338 136.555C110.84 106.754 101.721 120.337 99.8104 141.9Z" fill="#D3766A"/>
<path d="M99.8104 141.9C95.5352 190.165 102.217 228.61 122.481 231.382C135.938 233.219 137.822 198.804 137.791 197.932C137.681 194.946 130.88 163.647 121.338 136.555C110.84 106.754 101.721 120.337 99.8104 141.9Z" fill="#31E3A5"/>
<path d="M122.507 139.99C125.456 149.078 128.139 158.26 130.744 167.447C133.223 176.671 135.87 185.884 137.426 195.317C133.892 179.135 126.907 156.219 122.507 139.985V139.99Z" fill="#263238"/>
<path d="M125.002 142.245C125.67 144.855 126.171 147.637 125.555 150.279C125.634 147.632 125.143 144.886 125.002 142.245Z" fill="#263238"/>
<path d="M101.945 131.132C101.71 131.471 101.496 131.815 101.288 132.176C101.396 131.692 101.51 131.217 101.632 130.751C102.095 130.109 102.639 129.53 103.25 129.028C105.067 127.551 107.818 126.387 110.141 127.321C113.038 128.48 112.939 131.8 112.276 134.332C111.832 136.033 111.159 137.766 111.232 139.552C111.277 140.883 111.751 142.165 112.584 143.206C113.451 144.265 114.549 145.113 115.794 145.683C117.039 146.254 118.397 146.533 119.766 146.499C121.373 146.457 122.919 145.872 124.151 144.839C124.209 145.001 124.261 145.163 124.313 145.33C120.863 147.992 115.559 147.23 112.589 143.957C110.767 141.942 110.501 139.515 111.096 136.942C111.775 134.091 113.842 128.997 109.723 127.697C106.868 126.783 103.506 128.871 101.945 131.132ZM106.842 150.305C107.045 148.911 106.842 147.402 105.699 146.468C104.712 145.762 103.491 145.464 102.29 145.638C101.283 145.742 100.306 146.042 99.4137 146.52C99.4137 146.703 99.3824 146.886 99.3719 147.068C99.7083 146.88 100.057 146.714 100.416 146.572C101.789 146.019 103.548 145.795 104.91 146.51C106.805 147.507 106.565 149.835 106.069 151.594C104.853 155.864 101.585 158.986 98.6411 162.253C98.6411 162.488 98.6411 162.723 98.6411 162.953C100.139 161.235 101.731 159.602 103.151 157.816C104.9 155.629 106.429 153.129 106.842 150.305ZM122.392 176.285C125.634 170.652 126.412 162.055 119.855 158.411C118.57 157.671 117.1 157.316 115.619 157.389C114.137 157.462 112.709 157.96 111.503 158.824C108.893 160.672 107.291 163.657 106.064 166.539C104.696 169.76 103.454 173.325 100.792 175.71C100.177 176.273 99.4712 176.727 98.7038 177.052C98.7038 177.24 98.7038 177.423 98.7299 177.605C101.575 176.614 103.47 173.502 104.686 170.955C106.179 167.823 107.181 164.477 109.306 161.7C111.43 158.923 114.693 157.065 118.227 158.27C122.011 159.56 124.177 163.297 124.318 167.144C124.579 174.176 119.62 179.996 114.567 184.24C109.937 188.118 104.738 191.313 100.369 195.505C100.405 195.75 100.442 195.995 100.484 196.236C103.27 193.598 106.235 191.157 109.358 188.928C114.254 185.362 119.323 181.614 122.392 176.285ZM134.101 202.124C135.667 199.122 136.852 195.802 136.831 192.394C136.831 192.127 136.831 191.872 136.805 191.605C136.72 190.179 136.366 188.781 135.761 187.487C135.027 185.883 133.861 184.514 132.394 183.535C131.206 182.719 129.804 182.273 128.364 182.251C126.923 182.23 125.509 182.635 124.297 183.415C121.787 185.023 120.163 187.868 119.542 190.723C118.639 194.873 119.391 199.133 119.474 203.319C119.619 211.341 117.46 219.236 113.252 226.068C113.137 226.256 113.017 226.438 112.897 226.626C113.038 226.762 113.184 226.893 113.33 227.023C114.592 225.087 115.677 223.041 116.572 220.91C118.099 217.367 119.137 213.631 119.657 209.808C120.205 205.778 119.949 201.826 119.735 197.802C119.532 193.928 119.657 189.872 121.917 186.563C123.906 183.65 127.382 181.865 130.833 183.316C134.283 184.767 136.22 188.442 136.293 192.096C136.502 199.649 131.073 205.992 127.351 212.073C125.576 214.965 123.984 218.024 123.238 221.354C122.538 224.513 122.648 227.797 123.556 230.902C123.608 231.089 123.671 231.277 123.728 231.465C123.906 231.465 124.083 231.465 124.25 231.429C123.086 227.867 122.997 224.042 123.995 220.43C125.916 213.623 130.911 208.278 134.101 202.124Z" fill="white"/>
<path d="M98.8915 148.52C98.8341 160.301 99.1368 172.098 100.113 183.833C101.35 198.517 104.811 229.471 123.603 230.933C126.547 231.11 129.261 230.536 131.642 228.694C135.207 226.141 138.188 222.858 141.038 219.538C146.712 212.835 151.859 205.397 156.63 198.167L155.487 197.003L156.672 198.125C155.168 200.673 153.576 203.163 151.974 205.637C147.197 212.762 136.178 229.127 128.082 231.471C118.164 233.668 110.71 226.856 106.68 218.452C97.8057 199.696 98.3277 169.29 98.8758 148.504L98.8915 148.52Z" fill="#263238"/>
<path d="M97.9208 151.438C98.1713 153.672 98.5367 155.828 98.7768 158.062C97.9684 155.953 97.6749 153.682 97.9208 151.438Z" fill="#263238"/>
<path d="M133.338 139.896C133.338 139.896 115.972 124.006 105.088 124.758L96.1146 133.267C96.1146 133.267 93.1131 134.363 92.1057 132.468C89.6262 127.77 88.7805 116.286 98.4271 108.498C107.265 101.351 125.916 102.129 138.407 104.979C150.413 107.715 157.199 114.495 153.801 122.372C150.403 130.249 133.338 139.896 133.338 139.896Z" fill="#31E3A5"/>
<path opacity="0.1" d="M134.409 136.211C134.409 136.211 147.72 126.016 148.936 120.191C150.152 114.365 138.407 109.229 130.869 107.323C119.203 104.364 111.357 105.371 105.088 111.755C98.8186 118.139 134.409 136.211 134.409 136.211Z" fill="black"/>
<path d="M136.33 134.269C130.107 135.052 120.67 124.659 117.376 116.699C117.151 116.177 118.524 110.805 119.887 104.228C120.696 100.235 121.505 95.7716 121.949 91.6426C122.037 90.7917 147.166 100.71 147.166 100.71C147.166 100.71 143.695 109.093 142.964 116.297C142.915 116.866 142.915 117.439 142.964 118.009C142.964 118.087 142.964 118.186 142.964 118.296C143.147 121.569 142.343 133.507 136.33 134.269Z" fill="#D3766A"/>
<path d="M140.297 118.144C141.18 118.272 142.072 118.321 142.964 118.29C142.964 118.181 142.964 118.087 142.964 118.003C142.909 117.434 142.909 116.861 142.964 116.291C143.69 109.098 147.14 100.715 147.14 100.715C147.14 100.715 126.74 92.6602 122.606 91.6841C122.95 96.5387 125.059 116.171 140.297 118.144Z" fill="#263238"/>
<path d="M113.711 70.8614C113.059 80.4923 123.849 105.371 131.595 109.677C142.823 115.941 158.217 113.19 162.738 100.386C167.138 87.9674 152.501 55.7965 144.128 52.1947C131.804 46.886 114.677 56.6317 113.711 70.8614Z" fill="#D3766A"/>
<path d="M142.735 81.2493C142.693 81.1919 142.635 81.385 142.667 81.4529C143.439 83.1128 144.045 85.1382 142.766 86.344C142.724 86.3858 142.766 86.4641 142.818 86.4328C144.572 85.3783 143.732 82.6952 142.735 81.2493Z" fill="#263238"/>
<path d="M140.485 80.1377C137.697 81.0929 139.801 86.6001 142.385 85.7179C144.969 84.8357 142.823 79.3442 140.485 80.1377Z" fill="#263238"/>
<path d="M153.112 77.0213C153.112 76.9483 153.274 77.0213 153.3 77.1205C153.895 78.8483 154.866 80.7223 156.635 80.7014C156.688 80.7014 156.714 80.785 156.635 80.8006C154.673 81.2548 153.399 78.7492 153.112 77.0213Z" fill="#263238"/>
<path d="M153.968 74.6462C156.63 73.3882 158.953 78.8222 156.484 79.9706C154.015 81.119 151.718 75.6902 153.968 74.6462Z" fill="#263238"/>
<path d="M138.115 80.3566C138.876 80.087 139.621 79.7768 140.349 79.4275C141.205 79.0621 141.915 78.8585 142.437 78.0441C142.561 77.7986 142.6 77.5188 142.548 77.2487C142.496 76.9785 142.356 76.7332 142.15 76.5512C141.226 75.8152 140.062 76.0031 139.018 76.4051C137.952 76.7646 137.058 77.5092 136.512 78.4931C135.943 79.5266 137.071 80.6803 138.115 80.3566Z" fill="#263238"/>
<path d="M154.093 70.0893C153.296 70.2212 152.493 70.3118 151.687 70.3607C150.763 70.4546 150.032 70.6217 149.181 70.1675C148.954 70.0128 148.783 69.7874 148.696 69.526C148.609 69.2646 148.611 68.9819 148.701 68.7216C149.16 67.6306 150.267 67.2339 151.369 67.0773C152.482 66.8803 153.628 67.1055 154.584 67.7089C155.586 68.3145 155.158 69.87 154.093 70.0893Z" fill="#263238"/>
<path d="M147.13 97.0921C147.688 97.3374 148.309 97.7289 148.946 97.5462C149.577 97.2902 150.146 96.9043 150.617 96.4135C150.626 96.4015 150.638 96.3931 150.653 96.3898C150.668 96.3864 150.683 96.3884 150.696 96.3953C150.709 96.4023 150.72 96.4137 150.725 96.4275C150.731 96.4414 150.731 96.4567 150.726 96.4709C150.61 96.8997 150.381 97.2894 150.062 97.5989C149.743 97.9084 149.347 98.1264 148.915 98.23C148.09 98.3866 147.453 97.8646 146.994 97.233C146.931 97.1338 147.046 97.0451 147.13 97.0921Z" fill="#263238"/>
<path d="M148.184 94.3934C150.011 92.6969 152.882 91.893 154.746 91.4285C154.928 91.3241 154.96 90.8647 154.918 90.6663L153.409 87.1063C153.978 87.1585 156.818 87.3047 156.515 86.6417C153.999 81.1607 151.201 75.0638 147.542 70.1361C147.52 70.0973 147.483 70.0689 147.44 70.0572C147.397 70.0455 147.351 70.0513 147.312 70.0735C147.274 70.0956 147.245 70.1322 147.233 70.1753C147.222 70.2184 147.228 70.2644 147.25 70.3031C149.458 75.6641 152.595 80.6074 154.902 85.9631C154.015 85.9631 152.548 85.9162 151.875 86.198C151.708 86.3181 153.665 89.8834 153.827 90.4889C153.827 90.4889 149.985 90.7969 147.871 93.6783C147.318 94.4091 147.307 95.2025 148.184 94.3934Z" fill="#263238"/>
<path d="M119.26 94.4821C123.467 94.0958 124.673 87.2054 124.746 84.4597C124.819 81.714 120.967 71.4984 121.468 67.2337C121.969 62.969 125.921 60.171 129.402 59.9257C132.884 59.6804 138.496 62.2434 140.725 61.1576C142.954 60.0719 141.612 54.8519 143.22 54.2411C146.759 52.8996 151.572 60.1919 153.691 63.8303C153.691 63.8303 149.124 46.0823 130.342 51.3023C113.215 56.0003 112.218 69.4835 112.672 75.0167C113.534 85.5663 119.26 94.4821 119.26 94.4821Z" fill="#263238"/>
<path d="M144.405 92.5144C143.008 92.9168 141.526 92.9191 140.128 92.521C138.729 92.1229 137.471 91.3403 136.495 90.2624C135.52 89.1844 134.867 87.8543 134.61 86.4234C134.353 84.9925 134.502 83.5181 135.042 82.1681C135.581 80.8181 136.489 79.6466 137.661 78.7869C138.834 77.9272 140.224 77.4137 141.674 77.305C143.123 77.1962 144.575 77.4965 145.862 78.1717C147.15 78.8469 148.222 79.8699 148.957 81.1244C149.995 82.9026 150.286 85.0201 149.765 87.0124C149.245 89.0047 147.955 90.7092 146.18 91.7523C145.621 92.0781 145.025 92.3341 144.405 92.5144ZM140.396 78.5822C139.858 78.7362 139.342 78.959 138.861 79.2452C137.391 80.1118 136.307 81.5062 135.829 83.1444C135.351 84.7826 135.515 86.5413 136.288 88.0626C137.061 89.5839 138.385 90.7533 139.99 91.3327C141.596 91.9121 143.361 91.8579 144.928 91.1812C146.494 90.5044 147.744 89.2561 148.423 87.6902C149.101 86.1244 149.157 84.3588 148.58 82.7531C148.002 81.1473 146.834 79.822 145.314 79.0471C143.793 78.2722 142.035 78.106 140.396 78.5822Z" fill="#EBEBEB"/>
<path d="M160.801 85.5246C157.946 86.3494 154.537 84.1727 152.971 80.4351C152.189 78.6622 151.983 76.6886 152.381 74.7923C152.529 73.9781 152.872 73.2116 153.379 72.5574C153.886 71.9032 154.542 71.3807 155.294 71.0339C156.756 70.418 158.426 70.6215 160.018 71.5872C161.65 72.631 162.915 74.1585 163.635 75.9564C165.29 79.9079 164.246 84.1257 161.307 85.3524C161.143 85.4218 160.974 85.4794 160.801 85.5246ZM156.056 71.8639C155.928 71.9004 155.803 71.9439 155.68 71.9944C155.08 72.2782 154.558 72.7026 154.157 73.2315C153.756 73.7604 153.489 74.3782 153.378 75.0324C153.029 76.7131 153.211 78.461 153.9 80.0332C155.341 83.4523 158.462 85.4202 160.879 84.4023C163.296 83.3844 164.084 79.7826 162.649 76.3583C162.015 74.7624 160.898 73.4045 159.454 72.4746C158.961 72.1422 158.405 71.9161 157.82 71.811C157.234 71.7058 156.634 71.7238 156.056 71.8639Z" fill="#EBEBEB"/>
<path d="M149.061 82.0532L148.137 81.5782C148.842 80.2105 150.841 77.9242 153.357 79.0673L152.934 80.0122C150.679 78.989 149.129 81.954 149.061 82.0532Z" fill="#EBEBEB"/>
<path d="M117.95 97.2902L116.906 97.2067C116.942 96.7265 117.339 92.4565 119.333 91.2142C121.197 90.0553 134.534 85.8689 135.097 85.6914L135.411 86.6832C131.584 87.8786 121.317 91.1933 119.881 92.0911C118.555 92.9159 118.023 96.121 117.95 97.2902Z" fill="#EBEBEB"/>
<path d="M125.9 91.2196C125.9 91.2196 117.95 84.3396 114.661 87.3881C111.373 90.4366 118.874 101.44 123.749 101.973C128.625 102.505 129.199 97.9951 129.199 97.9951L125.9 91.2196Z" fill="#D3766A"/>
<path d="M116.906 90.4888C116.889 90.4888 116.873 90.4954 116.862 90.5071C116.85 90.5188 116.843 90.5348 116.843 90.5514C116.843 90.568 116.85 90.5839 116.862 90.5957C116.873 90.6074 116.889 90.614 116.906 90.614C120.351 91.089 122.731 93.5686 124.642 96.2777C123.42 95.359 121.995 95.0458 120.727 96.5439C120.664 96.6222 120.774 96.7319 120.857 96.6901C122.063 96.0898 123.045 96.0794 124.167 96.8833C124.937 97.5012 125.637 98.2014 126.255 98.9713C126.474 99.2114 126.939 98.9347 126.751 98.6424C126.74 98.618 126.726 98.5952 126.709 98.5745C125.78 94.5917 121.259 89.7841 116.906 90.4888Z" fill="#263238"/>
<path d="M134.409 136.211C134.409 136.211 120.163 113.838 103.25 112.142L105.088 124.758C105.088 124.758 115.131 124.445 133.339 139.896L134.409 136.211Z" fill="#31E3A5"/>
<path d="M100.557 125.129C103.626 124.643 106.711 125.223 109.634 126.037C112.563 126.909 115.382 128.112 118.038 129.623C120.716 131.101 123.291 132.756 125.748 134.577L129.366 137.411L132.858 140.413L133.25 140.752L133.667 140.522C136.753 138.8 139.718 136.87 142.541 134.744C143.969 133.7 145.332 132.571 146.623 131.361C147.926 130.169 149.11 128.853 150.157 127.431C147.745 129.999 144.89 132.029 142.003 133.982C140.552 134.947 139.059 135.856 137.551 136.727C136.042 137.599 134.528 138.481 132.994 139.27L133.798 139.374L130.3 136.268C129.094 135.281 127.862 134.321 126.646 133.366C125.43 132.411 124.083 131.57 122.763 130.756C121.442 129.941 120.085 129.127 118.665 128.459C115.876 127.008 112.913 125.92 109.848 125.223C109.091 125.035 108.308 124.93 107.536 124.8C106.763 124.669 105.97 124.638 105.192 124.627C103.63 124.531 102.062 124.7 100.557 125.129Z" fill="#263238"/>
<path d="M96.1147 133.267C97.7847 132.046 99.37 130.714 100.86 129.279C102.371 127.867 103.784 126.353 105.088 124.748C103.415 125.965 101.828 127.296 100.338 128.73C98.8305 130.147 97.4197 131.662 96.1147 133.267Z" fill="#263238"/>
<path d="M127.962 131.753C127.428 137.078 127.354 142.44 127.743 147.778C127.988 151.505 130.577 164.717 134.67 163.877C138.762 163.036 131.282 155.003 129.486 148.081C127.67 141.045 129.131 135.835 129.016 131.602L127.962 131.753Z" fill="#31E3A5"/>
<g opacity="0.1">
<path d="M127.962 131.753C127.428 137.078 127.354 142.44 127.743 147.778C127.988 151.505 130.577 164.717 134.67 163.877C138.762 163.036 131.282 155.003 129.486 148.081C127.67 141.045 129.131 135.835 129.016 131.602L127.962 131.753Z" fill="black"/>
</g>
<path d="M141.92 132.416C143.75 136.91 145.189 141.554 146.221 146.296C146.968 149.6 148.111 161.758 144.337 162.076C140.563 162.394 145.005 153.5 144.786 147.006C144.572 140.418 141.962 136.242 140.965 132.552L141.92 132.416Z" fill="#31E3A5"/>
<g opacity="0.1">
<path d="M141.92 132.416C143.75 136.91 145.189 141.554 146.221 146.296C146.968 149.6 148.111 161.758 144.337 162.076C140.563 162.394 145.005 153.5 144.786 147.006C144.572 140.418 141.962 136.242 140.965 132.552L141.92 132.416Z" fill="black"/>
</g>
<path d="M126.25 228.453C137.358 226.746 155.56 201.722 167.096 173.121C169.294 167.677 127.022 145.664 125.336 151.719C119.97 171.143 109.462 196.549 109.801 212.219C110.078 224.403 118.571 229.638 126.25 228.453Z" fill="#D3766A"/>
<path d="M146.023 131.105C143.33 127.806 142.917 118.577 140.5 113.138C138.083 107.699 131 105.146 129.752 107.146C128.505 109.145 130.353 111.16 130.932 120.096C131.303 125.838 126.902 137.322 128.781 147.762C129.726 152.998 148.748 134.404 146.023 131.105Z" fill="#F7A9A0"/>
<path d="M146.023 131.105C143.33 127.806 142.917 118.577 140.5 113.138C138.083 107.699 131 105.146 129.752 107.146C128.505 109.145 130.353 111.16 130.932 120.096C131.303 125.838 126.902 137.322 128.781 147.762C129.726 152.998 148.748 134.404 146.023 131.105Z" fill="#D3766A"/>
<path opacity="0.06" d="M146.023 131.105C143.33 127.806 142.917 118.577 140.5 113.138C138.083 107.699 131 105.146 129.752 107.146C128.505 109.145 130.353 111.16 130.932 120.096C131.303 125.838 126.902 137.322 128.781 147.762C129.726 152.998 148.748 134.404 146.023 131.105Z" fill="black"/>
<path d="M167.018 103.038C170.792 106.556 161.323 115.122 161.323 115.122C161.323 115.122 164.763 114.193 167.754 115.863C171.178 117.769 169.685 123.98 169.685 123.98C169.685 123.98 173.365 123.761 176.346 125.839C179.441 128 178.825 134.478 178.825 134.478C178.825 134.478 182.365 136.159 183.649 139.802C185.852 146.04 178.951 153.52 175.61 158.996C172.024 164.858 167.524 172.135 164.945 175.747L124.517 155.18C124.517 155.18 131.444 124.262 136.93 118.969C141.57 114.511 161.276 97.656 167.018 103.038Z" fill="#D3766A"/>
<path d="M161.161 115.096C155.106 118.656 149.917 123.657 144.979 128.537C144.956 128.56 144.943 128.591 144.943 128.623C144.943 128.656 144.956 128.687 144.979 128.71C145.002 128.732 145.033 128.745 145.065 128.745C145.097 128.745 145.128 128.732 145.151 128.71C150.022 123.798 156.322 120.07 161.375 115.362C161.41 115.334 161.433 115.292 161.438 115.247C161.443 115.202 161.43 115.157 161.401 115.122C161.373 115.087 161.332 115.064 161.286 115.059C161.241 115.054 161.196 115.067 161.161 115.096Z" fill="#263238"/>
<path d="M169.195 123.756C167.848 124.602 166.788 125.891 165.723 127.05C164.575 128.297 163.447 129.571 162.346 130.855C160.133 133.43 157.984 136.06 155.899 138.743C155.805 138.863 155.967 139.035 156.072 138.915C158.28 136.352 160.529 133.82 162.858 131.356C164.016 130.121 165.186 128.903 166.365 127.702C167.456 126.57 168.709 125.468 169.534 124.111C169.557 124.089 169.576 124.062 169.589 124.033C169.602 124.003 169.609 123.971 169.61 123.939C169.611 123.907 169.605 123.875 169.593 123.845C169.582 123.815 169.564 123.787 169.542 123.764C169.52 123.741 169.493 123.722 169.463 123.709C169.434 123.696 169.402 123.689 169.37 123.688C169.338 123.687 169.306 123.693 169.276 123.705C169.245 123.716 169.218 123.734 169.195 123.756Z" fill="#263238"/>
<path d="M178.747 134.582C177.547 135.271 176.659 136.67 175.777 137.714C174.796 138.911 173.806 140.101 172.807 141.284C170.813 143.649 168.819 146.014 166.741 148.311C166.637 148.425 166.809 148.598 166.914 148.483C169.033 146.16 171.184 143.868 173.282 141.525C174.326 140.376 175.351 139.221 176.357 138.058C177.223 137.072 178.419 135.939 178.867 134.681C178.873 134.665 178.873 134.648 178.868 134.632C178.864 134.616 178.854 134.601 178.841 134.59C178.828 134.58 178.812 134.573 178.796 134.572C178.779 134.57 178.762 134.574 178.747 134.582Z" fill="#263238"/>
<path d="M162.524 101.988C155.659 104.828 147.433 110.862 142.609 114.61C140.809 116.006 139.082 117.494 137.436 119.068C135.839 120.671 134.795 122.722 133.782 124.732C133.088 126.094 132.498 127.509 131.914 128.908C132.958 125.254 134.21 121.37 136.81 118.468C138.434 116.81 140.168 115.263 141.999 113.838C146.853 110.105 151.833 106.321 157.481 103.883L162.524 101.988Z" fill="#263238"/>
<path d="M116.64 163L156.651 198.146C156.651 198.146 135.729 231.961 125.973 231.298C116.217 230.636 105.615 224.319 106.414 200.866C106.607 194.993 116.64 163 116.64 163Z" fill="#31E3A5"/>
<path d="M109.41 188.964L108.888 189.34C108.961 189.058 109.04 188.776 109.113 188.489C110.966 187.116 112.819 185.738 114.583 184.256C119.036 180.529 123.395 175.58 124.204 169.64L124.6 169.989C124.236 172.193 123.482 174.315 122.371 176.253C119.323 181.614 114.254 185.362 109.41 188.964ZM132.404 183.54C131.217 182.725 129.815 182.278 128.374 182.257C126.934 182.235 125.519 182.64 124.308 183.42C121.797 185.028 120.174 187.873 119.553 190.728C118.65 194.878 119.401 199.138 119.485 203.324C119.626 211.267 117.506 219.086 113.372 225.869C113.513 226.016 113.659 226.157 113.805 226.292C114.862 224.568 115.788 222.767 116.577 220.905C118.105 217.361 119.143 213.626 119.662 209.802C120.21 205.772 119.955 201.821 119.741 197.796C119.537 193.923 119.662 189.867 121.923 186.558C123.911 183.645 127.388 181.86 130.838 183.311C134.289 184.762 136.22 188.442 136.293 192.096C136.502 199.649 131.073 205.992 127.351 212.073C125.577 214.965 123.984 218.024 123.238 221.354C122.538 224.513 122.648 227.797 123.556 230.902C123.568 230.946 123.582 230.989 123.598 231.032L124.157 231.121C123.085 227.645 123.03 223.936 124 220.43C125.916 213.644 130.911 208.315 134.101 202.16C135.766 198.929 137.034 195.327 136.805 191.642C136.755 190.041 136.331 188.474 135.567 187.066C134.803 185.659 133.72 184.449 132.404 183.535V183.54ZM144.128 211.034C141.31 211.311 138.835 213.122 138.23 215.967C137.802 218.003 138.303 220.091 139.175 222.007C139.295 221.866 139.425 221.725 139.55 221.584C138.209 218.4 137.984 214.339 141.388 212.376C142.281 211.879 143.269 211.579 144.288 211.496C145.306 211.413 146.33 211.549 147.292 211.896C147.396 211.755 147.495 211.614 147.605 211.473C146.494 211.067 145.306 210.916 144.128 211.029V211.034ZM156.218 197.77C154.967 198.081 153.663 198.104 152.402 197.838C147.474 196.794 143.758 191.95 144.17 187.179L143.648 186.704C142.839 192.159 147.391 197.614 152.757 198.449C154.051 198.637 155.371 198.543 156.625 198.172L156.651 198.125L156.218 197.77Z" fill="white"/>
<path d="M116.196 177.538C118.154 179.172 119.981 180.978 121.839 182.721C123.697 184.465 125.545 186.234 127.367 188.025C131.007 191.606 134.618 195.213 138.198 198.846C139.175 199.843 140.151 200.84 141.111 201.858C142.072 202.876 143.027 204.16 144.066 205.23C144.078 205.248 144.084 205.27 144.082 205.291C144.079 205.313 144.07 205.334 144.054 205.349C144.039 205.364 144.019 205.374 143.997 205.376C143.975 205.378 143.953 205.373 143.935 205.36C143.027 204.499 141.993 203.763 141.064 202.917C140.135 202.072 139.159 201.143 138.219 200.24C136.382 198.468 134.551 196.69 132.728 194.905C129.074 191.334 125.456 187.738 121.933 184.052C119.944 181.964 117.872 179.918 116.008 177.72C115.984 177.696 115.971 177.662 115.971 177.627C115.972 177.593 115.986 177.559 116.011 177.535C116.036 177.511 116.069 177.498 116.104 177.498C116.139 177.499 116.172 177.513 116.196 177.538Z" fill="#263238"/>
<path d="M121.171 166.983L116.546 163.11L116.77 163.047C114.572 171.336 112.145 179.563 109.869 187.826C108.818 191.399 107.947 195.023 107.259 198.684C106.663 203.449 106.649 208.27 107.217 213.039C106.067 208.302 105.697 203.409 106.121 198.553C107.254 190.541 109.822 182.81 112.213 175.11C113.575 170.96 115.016 166.842 116.577 162.76L116.728 162.895L121.165 166.983H121.171Z" fill="#263238"/>
<path d="M235.886 178.681C229.037 187.951 221.901 198.71 220.163 210.335C220.163 210.507 220.424 210.564 220.466 210.392C221.253 207.222 222.265 204.112 223.493 201.085C227.993 199.848 232.409 198.83 234.774 194.361C237.186 189.768 236.862 183.786 236.418 178.78C236.387 178.524 236.021 178.524 235.886 178.681Z" fill="#31E3A5"/>
<path d="M223.561 200.996C226.636 194.095 230.582 187.168 235.598 181.494C235.605 181.487 235.615 181.482 235.625 181.481C235.635 181.481 235.645 181.485 235.653 181.492C235.661 181.498 235.665 181.508 235.666 181.518C235.666 181.529 235.663 181.539 235.656 181.546C232.372 185.592 229.872 189.992 227.434 194.471C229.705 192.169 232.184 190.107 234.335 187.685C234.377 187.633 234.445 187.685 234.403 187.753C232.268 190.311 229.94 193.088 227.168 194.983C226.423 196.354 225.67 197.73 224.908 199.112C225.096 199.007 225.289 198.913 225.477 198.819C225.513 198.819 225.539 198.856 225.508 198.872C225.294 198.981 225.085 199.091 224.866 199.185C224.506 199.837 224.151 200.49 223.78 201.142C223.697 201.268 223.493 201.142 223.561 200.996Z" fill="#263238"/>
<path d="M225.848 198.59C227.687 197.557 229.445 196.384 231.104 195.082C231.146 195.045 231.214 195.082 231.167 195.145C229.568 196.53 227.817 197.73 225.947 198.72C225.837 198.762 225.764 198.637 225.848 198.59Z" fill="#263238"/>
<path d="M219.369 208.607C219.369 208.748 219.625 208.743 219.62 208.607C219.656 204.781 219.62 200.934 219.682 197.086C220.664 195.108 222.767 194.012 224.234 192.43C225.286 191.27 226.202 189.993 226.964 188.625C228.727 185.356 229.805 181.763 230.133 178.065C230.535 173.972 228.979 160.458 227.257 160.927C226.359 161.168 223.462 167.865 222.694 170.073C221.448 173.724 220.536 177.48 219.97 181.296C218.571 190.29 218.696 199.54 219.369 208.607Z" fill="#31E3A5"/>
<path d="M219.343 192.096C219.552 187.252 220.643 182.361 221.661 177.663C222.763 172.6 224.052 167.834 226.657 163.318C226.704 163.235 226.829 163.318 226.782 163.397C225.046 166.908 223.701 170.6 222.773 174.406C222.95 174.129 223.159 173.884 223.342 173.612C223.415 173.513 223.582 173.612 223.509 173.711C223.277 174.121 223.005 174.506 222.695 174.86C222.685 174.863 222.674 174.863 222.663 174.86C221.766 178.477 221.123 182.168 220.575 185.869L220.701 185.728C220.727 185.697 220.774 185.728 220.758 185.77C220.69 185.895 220.612 186.015 220.539 186.14C220.257 188.014 220.017 189.883 219.745 191.736C223.081 188.886 225.926 185.524 227.534 181.38C227.534 181.38 227.575 181.38 227.565 181.38C225.999 185.676 223.509 189.492 219.688 192.102C219.62 192.624 219.552 193.099 219.479 193.594C219.479 193.699 219.302 193.673 219.302 193.594C219.302 193.151 219.302 192.707 219.343 192.269C219.328 192.26 219.316 192.247 219.307 192.232C219.298 192.217 219.293 192.2 219.293 192.182C219.293 192.165 219.298 192.148 219.307 192.133C219.316 192.117 219.328 192.105 219.343 192.096Z" fill="#263238"/>
<path d="M220.915 185.07C223.467 181.264 225.848 177.569 227.701 173.367C227.701 173.32 227.805 173.367 227.784 173.398C226.218 177.574 224.01 181.813 221.035 185.169C220.983 185.237 220.863 185.148 220.915 185.07Z" fill="#263238"/>
<path d="M224.302 172.427C225.346 170.558 226.474 168.737 227.466 166.831C227.497 166.779 227.57 166.831 227.544 166.878C226.731 168.867 225.7 170.76 224.469 172.521C224.396 172.615 224.245 172.532 224.302 172.427Z" fill="#263238"/>
<path d="M223.916 173.236V173.273C223.916 173.273 223.869 173.236 223.916 173.236Z" fill="#263238"/>
<path d="M216.78 197.535C216.73 200.073 216.431 202.599 215.888 205.078C215.924 205.35 215.966 205.6 216.003 205.903C216.787 203.164 217.241 200.341 217.355 197.494C217.378 197.454 217.39 197.409 217.39 197.363C217.39 197.317 217.378 197.272 217.355 197.233C217.468 193.414 217.188 189.594 216.519 185.832C215.335 178.801 212.745 172.046 207.839 166.774C207.798 166.744 207.752 166.722 207.703 166.712C207.653 166.701 207.602 166.7 207.553 166.711C207.503 166.721 207.457 166.742 207.416 166.772C207.375 166.802 207.341 166.84 207.317 166.884C205.338 171.921 206.027 177.929 207.713 182.951C208.631 185.67 209.943 188.239 211.607 190.577C213.267 192.947 215.413 194.946 216.78 197.535Z" fill="#31E3A5"/>
<path d="M208.418 169.128C213.069 176.676 216.305 185.623 216.697 194.539C216.697 194.696 216.441 194.737 216.42 194.576C216.31 193.777 216.185 192.984 216.06 192.195C214.134 190.353 212.161 188.411 210.782 186.104C210.782 186.067 210.819 186.015 210.85 186.057C212.449 188.013 214.16 189.875 215.976 191.632C215.628 189.662 215.23 187.722 214.781 185.811C214.656 185.665 214.536 185.519 214.41 185.378C214.285 185.237 214.468 185.143 214.551 185.242L214.661 185.362C214.008 182.742 213.195 180.164 212.228 177.642C211.049 176.233 209.723 175.032 208.862 173.309C208.858 173.301 208.858 173.292 208.86 173.284C208.863 173.275 208.869 173.268 208.877 173.263C208.884 173.259 208.893 173.257 208.902 173.259C208.911 173.261 208.919 173.266 208.924 173.273C209.618 174.249 210.287 175.225 211.075 176.128C211.388 176.488 211.733 176.822 212.056 177.172C210.987 174.436 209.716 171.782 208.256 169.233C208.252 169.212 208.255 169.191 208.263 169.173C208.271 169.154 208.285 169.138 208.302 169.127C208.319 169.115 208.34 169.11 208.36 169.11C208.381 169.11 208.401 169.117 208.418 169.128Z" fill="#263238"/>
<path d="M209.358 178.441C210.861 180.461 212.573 182.392 213.972 184.485C214.014 184.543 213.925 184.605 213.873 184.558C212.077 182.872 210.558 180.576 209.258 178.498C209.217 178.435 209.3 178.378 209.358 178.441Z" fill="#263238"/>
<path d="M214.181 184.95L214.243 185.018C214.29 185.06 214.243 185.128 214.175 185.086L214.113 185.023C214.066 184.976 214.139 184.908 214.181 184.95Z" fill="#263238"/>
<path d="M201.131 183.639C201.507 187.523 203.548 192.159 206.038 195.15C207.133 196.452 208.49 197.51 210.02 198.255C211.743 199.112 213.549 200.093 215.329 200.792C216.178 202.949 216.808 205.186 217.208 207.469L217.381 206.879C216.237 197.05 209.874 188.645 201.721 183.253C201.657 183.215 201.585 183.196 201.511 183.197C201.438 183.199 201.366 183.221 201.304 183.261C201.243 183.302 201.194 183.358 201.163 183.425C201.132 183.492 201.121 183.566 201.131 183.639Z" fill="#31E3A5"/>
<path d="M203.945 186.542C203.887 186.49 203.945 186.391 204.028 186.438C208.5 189.761 212.065 194.155 214.395 199.216C214.452 199.347 214.27 199.467 214.191 199.331C213.816 198.668 213.429 198.026 213.038 197.389C211.179 197.039 209.42 195.729 208.042 194.487C208.006 194.455 208.042 194.403 208.094 194.435C208.806 195.082 209.597 195.636 210.449 196.084C211.206 196.47 212.015 196.711 212.808 197.019C212.112 195.929 211.393 194.885 210.652 193.887C208.647 193.125 206.766 192.07 205.072 190.755C205.065 190.752 205.059 190.748 205.053 190.742C205.048 190.737 205.044 190.73 205.041 190.723C205.039 190.716 205.038 190.708 205.039 190.701C205.04 190.693 205.042 190.686 205.046 190.679C205.05 190.673 205.055 190.667 205.061 190.663C205.067 190.659 205.074 190.656 205.082 190.654C205.089 190.653 205.097 190.653 205.104 190.655C205.112 190.657 205.118 190.661 205.124 190.666C206.803 191.682 208.535 192.608 210.313 193.438C209.18 191.944 207.96 190.518 206.659 189.168C206.027 188.834 205.385 188.499 204.775 188.124C204.764 188.117 204.757 188.107 204.754 188.095C204.75 188.083 204.751 188.07 204.756 188.059C204.761 188.048 204.77 188.039 204.781 188.033C204.792 188.028 204.804 188.027 204.816 188.03C205.324 188.209 205.81 188.447 206.262 188.74C205.511 187.993 204.754 187.257 203.945 186.542Z" fill="#263238"/>
<path d="M204.117 189.935C204.226 190.002 204.331 190.077 204.43 190.16C204.461 190.16 204.43 190.228 204.388 190.212C204.281 190.151 204.178 190.083 204.08 190.008C204.007 190.008 204.08 189.899 204.117 189.935Z" fill="#263238"/>
<path d="M230.081 228.762H207.781L209.582 208.456L209.979 203.977H227.889L228.28 208.456L230.081 228.762Z" fill="#455A64"/>
<path d="M228.28 208.456H209.582L209.979 203.977H227.889L228.28 208.456Z" fill="#263238"/>
<path d="M228.953 200.845H208.914V205.277H228.953V200.845Z" fill="#455A64"/>
<path d="M186.296 69.7806C186.388 70.8582 186.158 71.939 185.636 72.8862C185.114 73.8334 184.323 74.6046 183.363 75.1024C182.402 75.6001 181.316 75.802 180.241 75.6826C179.166 75.5631 178.151 75.1277 177.323 74.4314C176.495 73.735 175.893 72.809 175.591 71.7703C175.29 70.7315 175.303 69.6268 175.629 68.5955C175.955 67.5643 176.58 66.6529 177.424 65.9766C178.268 65.3002 179.294 64.8892 180.371 64.7955C181.088 64.7332 181.809 64.8127 182.495 65.0296C183.181 65.2465 183.817 65.5965 184.367 66.0595C184.917 66.5226 185.371 67.0895 185.702 67.728C186.033 68.3665 186.235 69.064 186.296 69.7806Z" fill="white"/>
<path d="M186.296 69.7807C186.766 74.6458 180.977 77.7256 177.176 74.6092C176.601 74.1304 176.125 73.5421 175.778 72.8784C175.431 72.2147 175.219 71.4887 175.155 70.7425C175.09 69.9964 175.174 69.2448 175.402 68.5314C175.63 67.8179 175.997 67.1567 176.482 66.5861C179.687 62.859 185.925 64.9 186.296 69.7807ZM186.296 69.7807C185.873 65.0149 179.818 63.167 176.827 66.8732C175.956 67.9488 175.535 69.3198 175.653 70.6987C175.771 72.0777 176.418 73.3575 177.458 74.2699C181.039 77.4019 186.693 74.5414 186.291 69.7807H186.296Z" fill="#263238"/>
<path d="M171.795 75.4599C171.846 76.0596 171.719 76.661 171.428 77.1882C171.138 77.7153 170.698 78.1446 170.164 78.4217C169.629 78.6987 169.025 78.8112 168.427 78.7448C167.829 78.6784 167.264 78.4361 166.803 78.0486C166.343 77.6611 166.007 77.1457 165.84 76.5677C165.672 75.9897 165.68 75.375 165.861 74.8012C166.043 74.2275 166.391 73.7205 166.861 73.3444C167.33 72.9682 167.901 72.7399 168.501 72.6881C169.305 72.6201 170.103 72.8737 170.721 73.3932C171.338 73.9128 171.724 74.656 171.795 75.4599Z" fill="white"/>
<path d="M171.795 75.4599C171.838 75.9844 171.75 76.5114 171.539 76.9937C171.328 77.4759 171.001 77.8982 170.587 78.2227C170.172 78.5473 169.684 78.7639 169.165 78.8531C168.647 78.9424 168.114 78.9015 167.615 78.7341C167.116 78.5666 166.666 78.278 166.307 77.894C165.947 77.5099 165.688 77.0426 165.553 76.5338C165.418 76.0251 165.412 75.4908 165.535 74.9791C165.658 74.4673 165.905 73.994 166.256 73.6016C166.672 73.1433 167.211 72.8157 167.81 72.6586C168.408 72.5016 169.039 72.522 169.626 72.7173C170.213 72.9126 170.731 73.2744 171.116 73.7585C171.501 74.2427 171.736 74.8284 171.795 75.4443V75.4599ZM171.795 75.4599C171.335 71.6128 165.771 72.1243 165.99 75.9819C166.434 79.803 172.003 79.3488 171.795 75.4599Z" fill="#263238"/>
<path d="M234.085 46.3166C234.421 49.0964 234.022 51.916 232.927 54.4929C231.831 57.0698 230.078 59.3138 227.842 61C225.607 62.6863 222.968 63.7556 220.189 64.1011C217.41 64.4466 214.59 64.056 212.009 62.9684C210.755 64.6071 209.139 65.9339 207.288 66.8456C205.436 67.7574 203.399 68.2293 201.336 68.2248C199.272 68.2202 197.237 67.7393 195.39 66.8194C193.543 65.8995 191.933 64.5656 190.686 62.9215C190.101 63.1001 189.502 63.2259 188.895 63.2973C186.809 63.5514 184.693 63.1952 182.805 62.2719C180.916 61.3486 179.336 59.8978 178.255 58.0951C177.174 56.2923 176.639 54.2149 176.715 52.1143C176.79 50.0137 177.472 47.98 178.68 46.2592C176.32 43.2639 175.109 39.5233 175.266 35.7134C175.423 31.9034 176.937 28.2751 179.536 25.484C182.134 22.693 185.644 20.9231 189.433 20.4942C193.222 20.0652 197.04 21.0055 200.196 23.1451C201.675 21.2962 203.617 19.8719 205.825 19.0172C208.033 18.1625 210.428 17.9079 212.766 18.2791C215.105 18.6503 217.303 19.6343 219.138 21.1308C220.972 22.6273 222.378 24.583 223.211 26.7991C223.769 26.6092 224.344 26.478 224.929 26.4076C226.707 26.19 228.509 26.5222 230.092 27.3594C231.676 28.1966 232.965 29.4987 233.787 31.0905C234.608 32.6823 234.923 34.4875 234.688 36.2634C234.452 38.0392 233.679 39.7004 232.472 41.0236C233.319 42.6782 233.865 44.4705 234.085 46.3166Z" fill="white"/>
<path d="M234.085 46.3169C234.423 49.1032 234.024 51.9295 232.929 54.5136C231.833 57.0977 230.079 59.3492 227.841 61.0434C225.603 62.7376 222.96 63.8152 220.176 64.1686C217.391 64.522 214.563 64.1388 211.973 63.0574L212.082 63.0261C210.819 64.6827 209.191 66.0254 207.324 66.9496C205.457 67.8738 203.402 68.3547 201.319 68.3547C199.236 68.3547 197.18 67.8738 195.314 66.9496C193.447 66.0254 191.818 64.6827 190.555 63.0261L190.733 63.0835C189.918 63.3343 189.074 63.4799 188.222 63.5168C179.024 64.0857 173.214 53.6771 178.502 46.1237V46.4056C170.62 36.5241 176.868 21.6837 189.417 20.3056C193.248 19.8773 197.106 20.8366 200.29 23.0096L200.076 23.0461C206.596 14.9081 219.641 17.0013 223.29 26.768L223.191 26.721C223.88 26.4849 224.598 26.3461 225.326 26.3086C227.085 26.178 228.842 26.5784 230.371 27.458C231.9 28.3375 233.13 29.6557 233.902 31.242C234.673 32.8282 234.951 34.6095 234.699 36.3553C234.446 38.1011 233.676 39.7311 232.487 41.0342C233.34 42.6823 233.883 44.4728 234.09 46.3169H234.085ZM234.085 46.3169C233.86 44.4682 233.309 42.6742 232.456 41.0186C233.743 39.5827 234.518 37.7611 234.66 35.8383C234.803 33.9155 234.304 31.9997 233.243 30.39C232.182 28.7802 230.617 27.5672 228.794 26.9403C226.971 26.3134 224.991 26.3078 223.164 26.9246C219.578 17.3041 206.711 15.2057 200.317 23.2706L200.228 23.3854L200.102 23.3019C196.981 21.1815 193.202 20.255 189.454 20.6919C177.26 22.1013 171.304 36.4824 178.868 46.1185L178.977 46.2594L178.878 46.4004C173.762 53.651 179.337 63.689 188.201 63.1827C189.066 63.147 189.922 62.9978 190.748 62.739C191.973 64.3874 193.562 65.7295 195.393 66.6598C197.223 67.5901 199.245 68.0832 201.298 68.1004C203.351 68.1176 205.381 67.6584 207.227 66.7589C209.072 65.8594 210.684 64.5442 211.936 62.9165L211.983 62.859L212.046 62.8904C214.617 63.9742 217.428 64.3647 220.197 64.0227C222.966 63.6808 225.598 62.6184 227.828 60.9416C230.058 59.2648 231.81 57.0324 232.908 54.467C234.006 51.9017 234.412 49.0933 234.085 46.3221V46.3169Z" fill="#263238"/>
<path d="M206.82 45.4401L206.69 47.6482C206.683 47.8682 206.632 48.0846 206.54 48.2841C206.447 48.4837 206.314 48.6622 206.15 48.8088C205.986 48.9554 205.793 49.0669 205.585 49.1366C205.376 49.2063 205.155 49.2327 204.936 49.2142C204.496 49.1886 204.084 48.9896 203.79 48.6608C203.497 48.3321 203.346 47.9003 203.37 47.4602L203.568 43.9315C203.568 43.895 203.605 43.9002 203.61 43.8637C203.615 43.8271 203.558 43.848 203.558 43.7958C203.594 43.3597 203.796 42.9541 204.122 42.6627C204.449 42.3712 204.874 42.2163 205.312 42.2298C205.82 42.2742 206.332 42.216 206.818 42.0587C207.303 41.9014 207.752 41.6482 208.138 41.3141C208.523 40.98 208.838 40.5719 209.063 40.1138C209.288 39.6558 209.419 39.1573 209.448 38.6478C209.476 38.1383 209.402 37.6282 209.23 37.1478C209.058 36.6674 208.791 36.2265 208.445 35.8513C208.099 35.476 207.682 35.1741 207.217 34.9633C206.752 34.7525 206.25 34.6372 205.74 34.6243C205.081 34.5853 204.423 34.7206 203.833 35.0166C203.243 35.3126 202.741 35.7588 202.378 36.3103C202.263 36.5048 202.11 36.6741 201.928 36.8078C201.746 36.9415 201.539 37.0368 201.319 37.0882C201.099 37.1395 200.871 37.1456 200.649 37.1063C200.426 37.067 200.214 36.9829 200.025 36.8593C199.836 36.7356 199.674 36.5749 199.549 36.3869C199.424 36.1989 199.338 35.9874 199.297 35.7653C199.256 35.5432 199.26 35.3151 199.31 35.0948C199.359 34.8744 199.453 34.6664 199.585 34.4833C200.236 33.4938 201.122 32.6814 202.164 32.119C203.206 31.5567 204.371 31.2621 205.555 31.2617C206.739 31.2613 207.905 31.5552 208.947 32.1168C209.99 32.6785 210.876 33.4903 211.527 34.4794C212.178 35.4685 212.573 36.6038 212.676 37.7834C212.78 38.9629 212.589 40.1497 212.12 41.237C211.651 42.3243 210.919 43.2781 209.991 44.0127C209.062 44.7472 207.965 45.2395 206.799 45.4453L206.82 45.4401ZM206.403 52.8734L206.366 53.4841C206.359 53.7039 206.307 53.9199 206.214 54.1191C206.121 54.3183 205.989 54.4966 205.825 54.643C205.661 54.7894 205.469 54.901 205.26 54.971C205.052 55.041 204.831 55.0679 204.612 55.0501C204.172 55.0219 203.761 54.8214 203.468 54.4921C203.175 54.1628 203.023 53.7313 203.046 53.291L203.083 52.6802C203.114 52.2422 203.314 51.8335 203.642 51.5411C203.969 51.2486 204.398 51.0955 204.837 51.1142C205.056 51.1241 205.271 51.1779 205.469 51.2722C205.667 51.3665 205.845 51.4996 205.991 51.6636C206.137 51.8275 206.248 52.019 206.319 52.2268C206.39 52.4346 206.418 52.6544 206.403 52.8734Z" fill="#31E3A5"/>
</svg>
