<svg width="12" height="12" viewBox="0 0 12 12" fill="none" xmlns="http://www.w3.org/2000/svg">
<path d="M5.838 7.276C5.762 7.276 5.702 7.252 5.658 7.204C5.618 7.152 5.598 7.084 5.598 7C5.598 6.876 5.612 6.76 5.64 6.652C5.672 6.54 5.722 6.428 5.79 6.316C5.858 6.204 5.948 6.086 6.06 5.962C6.144 5.866 6.21 5.782 6.258 5.71C6.31 5.634 6.346 5.562 6.366 5.494C6.39 5.426 6.402 5.356 6.402 5.284C6.402 5.152 6.354 5.048 6.258 4.972C6.162 4.896 6.026 4.858 5.85 4.858C5.69 4.858 5.544 4.88 5.412 4.924C5.284 4.964 5.154 5.022 5.022 5.098C4.934 5.15 4.854 5.174 4.782 5.17C4.714 5.162 4.658 5.136 4.614 5.092C4.57 5.048 4.542 4.994 4.53 4.93C4.518 4.866 4.528 4.8 4.56 4.732C4.592 4.664 4.65 4.602 4.734 4.546C4.898 4.438 5.086 4.356 5.298 4.3C5.51 4.24 5.71 4.21 5.898 4.21C6.15 4.21 6.37 4.252 6.558 4.336C6.75 4.42 6.898 4.536 7.002 4.684C7.11 4.832 7.164 5.006 7.164 5.206C7.164 5.33 7.146 5.448 7.11 5.56C7.074 5.668 7.016 5.778 6.936 5.89C6.856 5.998 6.746 6.116 6.606 6.244C6.482 6.356 6.382 6.458 6.306 6.55C6.234 6.642 6.18 6.73 6.144 6.814C6.112 6.898 6.09 6.988 6.078 7.084C6.074 7.14 6.05 7.186 6.006 7.222C5.966 7.258 5.91 7.276 5.838 7.276ZM5.826 8.53C5.69 8.53 5.58 8.488 5.496 8.404C5.416 8.32 5.376 8.212 5.376 8.08C5.376 7.952 5.416 7.848 5.496 7.768C5.58 7.684 5.69 7.642 5.826 7.642C5.966 7.642 6.074 7.684 6.15 7.768C6.23 7.848 6.27 7.952 6.27 8.08C6.27 8.212 6.23 8.32 6.15 8.404C6.074 8.488 5.966 8.53 5.826 8.53Z" fill="#37474F"/>
<path d="M6 0.5C9.03757 0.5 11.5 2.96243 11.5 6C11.5 9.03757 9.03757 11.5 6 11.5C2.96243 11.5 0.5 9.03757 0.5 6C0.5 2.96243 2.96243 0.5 6 0.5Z" stroke="#37474F"/>
</svg>
