<svg width="18" height="19" viewBox="0 0 18 19" fill="none" xmlns="http://www.w3.org/2000/svg">
<path d="M4.7984 8.55707C4.59312 8.1877 4.27101 7.89696 3.88262 7.73048C3.49422 7.56399 3.06154 7.53119 2.65249 7.63722C2.24344 7.74325 1.88118 7.98211 1.62256 8.3163C1.36395 8.6505 1.22363 9.0611 1.22363 9.48367C1.22363 9.90624 1.36395 10.3169 1.62256 10.651C1.88118 10.9852 2.24344 11.2241 2.65249 11.3301C3.06154 11.4362 3.49422 11.4034 3.88262 11.2369C4.27101 11.0704 4.59312 10.7796 4.7984 10.4103M4.7984 8.55707C4.951 8.83174 5.03832 9.14711 5.03832 9.48367C5.03832 9.82024 4.951 10.1365 4.7984 10.4103M4.7984 8.55707L12.9081 4.05203M4.7984 10.4103L12.9081 14.9153M12.9081 4.05203C13.027 4.27596 13.1894 4.47394 13.3857 4.63439C13.582 4.79484 13.8083 4.91455 14.0514 4.98651C14.2946 5.05847 14.5496 5.08124 14.8016 5.0535C15.0536 5.02575 15.2976 4.94804 15.5192 4.82491C15.7408 4.70178 15.9357 4.5357 16.0924 4.33639C16.2491 4.13707 16.3645 3.90852 16.4318 3.66408C16.4991 3.41965 16.5171 3.16425 16.4846 2.9128C16.452 2.66136 16.3697 2.41892 16.2424 2.19966C15.9915 1.76759 15.5811 1.4512 15.0994 1.31851C14.6178 1.18581 14.1032 1.24741 13.6665 1.49005C13.2297 1.73269 12.9056 2.137 12.7638 2.61608C12.622 3.09516 12.6738 3.61076 12.9081 4.05203ZM12.9081 14.9153C12.7864 15.1344 12.7091 15.3752 12.6805 15.6242C12.6519 15.8731 12.6726 16.1252 12.7415 16.3662C12.8103 16.6071 12.9259 16.8321 13.0817 17.0283C13.2375 17.2246 13.4305 17.3882 13.6495 17.5099C13.8685 17.6316 14.1094 17.7089 14.3583 17.7375C14.6073 17.7661 14.8594 17.7454 15.1003 17.6766C15.3413 17.6077 15.5663 17.4921 15.7625 17.3363C15.9588 17.1805 16.1224 16.9876 16.2441 16.7685C16.4898 16.3262 16.5498 15.8043 16.4108 15.3177C16.2717 14.8311 15.9451 14.4197 15.5027 14.1739C15.0603 13.9282 14.5385 13.8682 14.0519 14.0073C13.5653 14.1463 13.1539 14.4729 12.9081 14.9153Z" stroke="black" stroke-width="1.5" stroke-linecap="round" stroke-linejoin="round"/>
</svg>
