<svg width="16" height="16" viewBox="0 0 16 16" fill="none" xmlns="http://www.w3.org/2000/svg">
<path fill-rule="evenodd" clip-rule="evenodd" d="M0 8C0 3.58154 3.58154 0 8 0C12.4185 0 16 3.58154 16 8C16 12.4185 12.4185 16 8 16C3.58154 16 0 12.4185 0 8ZM4.92308 5.99959C4.92308 5.40554 5.40554 4.92308 6.00041 4.92308H9.99959C10.5945 4.92308 11.0769 5.40554 11.0769 6.00041V9.99959C11.0769 10.5945 10.5945 11.0769 9.99959 11.0769H6.00123C5.85972 11.077 5.71958 11.0492 5.58883 10.9951C5.45807 10.941 5.33926 10.8617 5.2392 10.7616C5.13914 10.6616 5.05979 10.5428 5.00568 10.412C4.95158 10.2812 4.92379 10.1411 4.9239 9.99959V6.00123L4.92308 5.99959Z" fill="#31E3A5"/>
</svg>
