<svg width="10" height="13" viewBox="0 0 10 13" fill="none" xmlns="http://www.w3.org/2000/svg">
<path d="M6.32848 4.80788L6.16073 9.88467M3.83927 9.88467L3.67152 4.80788M8.50449 2.99716C8.6703 3.0265 8.83515 3.05752 9 3.0908M8.50449 2.99716L7.98667 10.8284C7.96553 11.1472 7.84173 11.445 7.64001 11.6623C7.43829 11.8795 7.17353 12.0001 6.89867 12H3.10133C2.82647 12.0001 2.56171 11.8795 2.35999 11.6623C2.15827 11.445 2.03447 11.1472 2.01333 10.8284L1.49552 2.99716M8.50449 2.99716C7.94491 2.89874 7.38243 2.82404 6.81818 2.77322M1.49552 2.99716C1.3297 3.02593 1.16485 3.05696 1 3.09024M1.49552 2.99716C2.05509 2.89874 2.61757 2.82404 3.18182 2.77322M6.81818 2.77322V2.25652C6.81818 1.59089 6.37697 1.03583 5.80485 1.01496C5.26842 0.995013 4.73158 0.995013 4.19515 1.01496C3.62303 1.03583 3.18182 1.59146 3.18182 2.25652V2.77322M6.81818 2.77322C5.60787 2.6644 4.39213 2.6644 3.18182 2.77322" stroke="#DBDBDB" stroke-linecap="round" stroke-linejoin="round"/>
</svg>
