<svg width="262" height="261" viewBox="0 0 262 261" fill="none" xmlns="http://www.w3.org/2000/svg">
<path d="M218.383 170.658H232.206V164.817H218.383V170.658Z" fill="#EBEBEB"/>
<path d="M226.098 178.023H239.92V172.182H226.098V178.023Z" fill="#EBEBEB"/>
<path d="M108.246 106.154H122.069V100.313H108.246V106.154Z" fill="#EBEBEB"/>
<path d="M115.961 113.52H129.784V107.678H115.961V113.52Z" fill="#EBEBEB"/>
<path d="M123.64 106.154H137.462V100.313H123.64V106.154Z" fill="#EBEBEB"/>
<path d="M22.0798 178.018H35.9023V172.176H22.0798V178.018Z" fill="#EBEBEB"/>
<path d="M29.7946 30.2344H43.6172V24.3932H29.7946V30.2344Z" fill="#EBEBEB"/>
<path d="M22.0798 37.5996H35.9023V31.7584H22.0798V37.5996Z" fill="#EBEBEB"/>
<path d="M218.383 30.2344H232.206V24.3932H218.383V30.2344Z" fill="#EBEBEB"/>
<path d="M235.734 37.1978H161.192V120.363H235.734V37.1978Z" fill="#DBDBDB"/>
<path d="M230.827 42.1099H166.104V115.498H230.827V42.1099Z" fill="#EBEBEB"/>
<path d="M194.767 55.0869H171.956V82.1213H194.767V55.0869Z" fill="white"/>
<path d="M184.182 56.924C184.182 57.0861 184.134 57.2446 184.043 57.3793C183.953 57.5141 183.825 57.6192 183.676 57.6812C183.526 57.7432 183.361 57.7594 183.202 57.7278C183.043 57.6962 182.897 57.6181 182.783 57.5035C182.668 57.3889 182.59 57.2429 182.558 57.0839C182.527 56.9249 182.543 56.7602 182.605 56.6104C182.667 56.4607 182.772 56.3327 182.907 56.2426C183.041 56.1526 183.2 56.1045 183.362 56.1045C183.579 56.1045 183.788 56.1908 183.942 56.3445C184.095 56.4982 184.182 56.7067 184.182 56.924Z" fill="#A6A6A6"/>
<path d="M176.299 60.5C178.607 60.3225 180.914 60.3121 183.216 60.286C185.518 60.2599 187.83 60.3225 190.138 60.5C187.83 60.6775 185.523 60.6879 183.216 60.714C180.909 60.7401 178.607 60.6775 176.299 60.5Z" fill="#EBEBEB"/>
<path d="M176.299 62.6403C178.799 62.3549 181.322 62.3549 183.821 62.6403C182.573 62.795 181.316 62.8665 180.058 62.8543C178.802 62.8637 177.546 62.7922 176.299 62.6403Z" fill="#EBEBEB"/>
<path d="M176.299 64.7749C177.897 64.6229 179.502 64.5514 181.107 64.5609C182.71 64.5488 184.313 64.6202 185.909 64.7749C184.307 64.9419 182.709 64.9785 181.107 64.9889C179.504 64.9994 177.902 64.9419 176.299 64.7749Z" fill="#EBEBEB"/>
<path d="M176.299 66.9102C178.304 66.7431 180.308 66.7014 182.313 66.6962C184.317 66.6909 186.322 66.7431 188.326 66.9102C186.322 67.0772 184.317 67.119 182.313 67.1242C180.308 67.1294 178.304 67.0772 176.299 66.9102Z" fill="#EBEBEB"/>
<path d="M176.299 69.0453C178.038 68.8782 179.781 68.8417 181.519 68.8313C183.258 68.8208 185.001 68.8782 186.739 69.0453C184.996 69.2123 183.252 69.2541 181.519 69.2593C179.786 69.2645 178.038 69.2123 176.299 69.0453Z" fill="#EBEBEB"/>
<path d="M176.299 71.1801C178.528 71.0027 180.757 70.9922 182.986 70.9661C185.215 70.94 187.444 71.0027 189.673 71.1801C187.444 71.3628 185.215 71.3733 182.986 71.3994C180.757 71.4255 178.528 71.3576 176.299 71.1801Z" fill="#EBEBEB"/>
<path d="M176.299 73.3203C177.733 73.1683 179.174 73.0969 180.616 73.1063C182.06 73.0942 183.503 73.1657 184.938 73.3203C182.066 73.6057 179.172 73.6057 176.299 73.3203Z" fill="#EBEBEB"/>
<path d="M176.299 75.4551C178.607 75.2776 180.914 75.2671 183.216 75.241C185.518 75.2149 187.83 75.2776 190.138 75.4551C187.83 75.6325 185.523 75.643 183.216 75.6691C180.909 75.6952 178.607 75.6325 176.299 75.4551Z" fill="#EBEBEB"/>
<path d="M176.299 77.5903C178.607 77.4128 180.914 77.4024 183.216 77.3763C185.518 77.3502 187.83 77.4128 190.138 77.5903C187.83 77.7678 185.523 77.7834 183.216 77.8043C180.909 77.8252 178.607 77.7782 176.299 77.5903Z" fill="#EBEBEB"/>
<path d="M225.237 71.9424H198.244V103.931H225.237V71.9424Z" fill="white"/>
<path d="M201.538 74.2702C201.538 74.4323 201.49 74.5908 201.4 74.7255C201.31 74.8603 201.182 74.9653 201.032 75.0274C200.882 75.0894 200.718 75.1056 200.559 75.074C200.4 75.0424 200.254 74.9643 200.139 74.8497C200.024 74.7351 199.946 74.5891 199.915 74.4301C199.883 74.2711 199.899 74.1063 199.961 73.9566C200.023 73.8068 200.128 73.6789 200.263 73.5888C200.398 73.4987 200.556 73.4507 200.718 73.4507C200.936 73.4507 201.144 73.537 201.298 73.6907C201.452 73.8444 201.538 74.0529 201.538 74.2702Z" fill="#A6A6A6"/>
<path d="M202.018 79.9234C203.01 79.7726 204.011 79.6993 205.014 79.7041C206.016 79.6966 207.016 79.7699 208.005 79.9234C206.02 80.2087 204.004 80.2087 202.018 79.9234Z" fill="#EBEBEB"/>
<path d="M202.018 82.335C203.305 82.184 204.6 82.1107 205.897 82.1158C207.191 82.1081 208.485 82.1814 209.77 82.335C207.194 82.6204 204.594 82.6204 202.018 82.335Z" fill="#EBEBEB"/>
<path d="M202.018 84.7466C203.209 84.5949 204.409 84.5234 205.609 84.5326C206.81 84.5204 208.01 84.592 209.201 84.7466C206.815 85.0319 204.404 85.0319 202.018 84.7466Z" fill="#EBEBEB"/>
<path d="M202.018 87.1743C203.209 87.0226 204.409 86.9511 205.609 86.9603C206.81 86.9482 208.01 87.0197 209.201 87.1743C206.815 87.4597 204.404 87.4597 202.018 87.1743Z" fill="#EBEBEB"/>
<path d="M202.018 89.5699C203.055 89.4177 204.102 89.3462 205.15 89.3558C206.198 89.3436 207.245 89.4151 208.282 89.5699C206.204 89.8571 204.096 89.8571 202.018 89.5699Z" fill="#EBEBEB"/>
<path d="M202.018 91.9819C203.344 91.83 204.677 91.7585 206.011 91.7679C207.346 91.7559 208.679 91.8274 210.005 91.9819C207.35 92.2673 204.673 92.2673 202.018 91.9819Z" fill="#EBEBEB"/>
<path d="M202.018 94.3932C204.206 94.1079 206.423 94.1079 208.611 94.3932C206.423 94.6786 204.206 94.6786 202.018 94.3932Z" fill="#EBEBEB"/>
<path d="M202.018 96.8049C204.765 96.5195 207.534 96.5195 210.281 96.8049C207.534 97.0902 204.765 97.0902 202.018 96.8049Z" fill="#EBEBEB"/>
<path d="M202.018 99.2165C204.765 98.9311 207.534 98.9311 210.281 99.2165C207.534 99.5018 204.765 99.5018 202.018 99.2165Z" fill="#EBEBEB"/>
<path d="M213.815 79.9234C215.118 79.7723 216.429 79.6991 217.741 79.7042C219.051 79.6965 220.36 79.7697 221.661 79.9234C219.059 80.2076 216.433 80.2076 213.831 79.9234H213.815Z" fill="#EBEBEB"/>
<path d="M213.815 82.335C214.667 82.1846 215.53 82.1112 216.394 82.1158C217.259 82.1081 218.122 82.1815 218.973 82.335C217.265 82.62 215.523 82.62 213.815 82.335Z" fill="#EBEBEB"/>
<path d="M213.815 84.7471C215.04 84.5953 216.272 84.5238 217.506 84.533C218.74 84.521 219.973 84.5926 221.197 84.7471C218.744 85.0324 216.268 85.0324 213.815 84.7471Z" fill="#EBEBEB"/>
<path d="M213.815 87.1743C215.006 87.0226 216.206 86.9511 217.407 86.9603C218.607 86.9483 219.807 87.0198 220.998 87.1743C218.612 87.4597 216.201 87.4597 213.815 87.1743Z" fill="#EBEBEB"/>
<path d="M213.815 89.5703C215.118 89.4184 216.429 89.3469 217.741 89.3563C219.051 89.3443 220.36 89.4158 221.661 89.5703C219.059 89.8545 216.433 89.8545 213.831 89.5703H213.815Z" fill="#EBEBEB"/>
<path d="M213.815 91.9816C214.852 91.8293 215.899 91.7577 216.947 91.7676C217.995 91.7548 219.043 91.8264 220.079 91.9816C218.001 92.2694 215.894 92.2694 213.815 91.9816Z" fill="#EBEBEB"/>
<path d="M213.815 94.3932C216.268 94.1079 218.744 94.1079 221.197 94.3932C218.744 94.6786 216.268 94.6786 213.815 94.3932Z" fill="#EBEBEB"/>
<path d="M213.815 96.8049C215.708 96.5195 217.633 96.5195 219.526 96.8049C217.633 97.0903 215.708 97.0903 213.815 96.8049Z" fill="#EBEBEB"/>
<path d="M213.815 99.2165C215.63 98.9311 217.477 98.9311 219.291 99.2165C217.477 99.5019 215.63 99.5019 213.815 99.2165Z" fill="#EBEBEB"/>
<path d="M206.398 47.6533H192.669V61.3819H206.398V47.6533Z" fill="#A6A6A6"/>
<path d="M200.353 49.0681C200.353 49.2302 200.305 49.3886 200.215 49.5234C200.125 49.6582 199.997 49.7632 199.847 49.8252C199.697 49.8873 199.533 49.9035 199.374 49.8719C199.215 49.8402 199.069 49.7622 198.954 49.6476C198.839 49.533 198.761 49.3869 198.73 49.228C198.698 49.069 198.714 48.9042 198.776 48.7544C198.838 48.6047 198.943 48.4767 199.078 48.3867C199.213 48.2966 199.371 48.2485 199.533 48.2485C199.751 48.2485 199.959 48.3349 200.113 48.4886C200.267 48.6423 200.353 48.8507 200.353 49.0681Z" fill="#EBEBEB"/>
<path d="M230.77 42.1099H228.917V115.581H230.77V42.1099Z" fill="#C7C7C7"/>
<path d="M82.2632 62.2641C89.4974 52.1334 87.1493 38.0564 77.0186 30.8222C66.8878 23.5881 52.8108 25.9362 45.5767 36.0669C38.3425 46.1976 40.6906 60.2746 50.8213 67.5088C60.952 74.743 75.029 72.3948 82.2632 62.2641Z" fill="#EBEBEB"/>
<path d="M82.1525 62.5641C89.2791 53.062 87.3533 39.5817 77.8512 32.4551C68.3491 25.3285 54.8689 27.2542 47.7423 36.7563C40.6156 46.2584 42.5414 59.7387 52.0435 66.8653C61.5456 73.9919 75.0258 72.0662 82.1525 62.5641Z" fill="#DBDBDB"/>
<path d="M76.6324 66.0801C85.6976 59.6258 87.8142 47.0449 81.36 37.9797C74.9058 28.9145 62.3249 26.7979 53.2597 33.2521C44.1945 39.7063 42.0779 52.2873 48.5321 61.3525C54.9863 70.4176 67.5672 72.5343 76.6324 66.0801Z" fill="white"/>
<path opacity="0.5" d="M84.6412 45.4143C75.4645 50.9736 60.3839 60.0929 51.9588 65.0937C49.567 63.0793 47.6763 60.5363 46.436 57.6656L74.3265 31.8423C76.9328 33.2138 79.2069 35.1396 80.989 37.4844C82.771 39.8292 84.0177 42.5359 84.6412 45.4143Z" fill="#EBEBEB"/>
<path opacity="0.5" d="M85.0641 50.373C84.9943 52.6059 84.5514 54.8113 83.7539 56.898L58.6196 68.784C57.5254 68.4195 56.4637 67.9637 55.4458 67.4216C63.0409 63.0524 76.9104 55.071 85.0641 50.373Z" fill="#EBEBEB"/>
<path d="M65.1444 30.981H64.7529V34.0347H65.1444V30.981Z" fill="#C7C7C7"/>
<path d="M55.777 33.379L55.438 33.5747L56.9648 36.2193L57.3039 36.0235L55.777 33.379Z" fill="#C7C7C7"/>
<path d="M49.0214 39.9558L48.8257 40.2964L51.4824 41.8232L51.6782 41.4826L49.0214 39.9558Z" fill="#C7C7C7"/>
<path d="M49.3174 49.4751H46.2637V49.8666H49.3174V49.4751Z" fill="#C7C7C7"/>
<path d="M51.3089 57.3189L48.6646 58.8462L48.8604 59.1852L51.5047 57.6579L51.3089 57.3189Z" fill="#C7C7C7"/>
<path d="M56.961 63.1171L55.4351 65.7622L55.7742 65.9578L57.3001 63.3127L56.961 63.1171Z" fill="#C7C7C7"/>
<path d="M65.1444 65.3022H64.7529V68.3559H65.1444V65.3022Z" fill="#C7C7C7"/>
<path d="M72.9333 63.105L72.5942 63.3008L74.1211 65.9454L74.4601 65.7496L72.9333 63.105Z" fill="#C7C7C7"/>
<path d="M78.5864 57.3187L78.3906 57.6577L81.0349 59.185L81.2307 58.846L78.5864 57.3187Z" fill="#C7C7C7"/>
<path d="M83.6338 49.4751H80.5801V49.8666H83.6338V49.4751Z" fill="#C7C7C7"/>
<path d="M81.0337 40.1544L78.3896 41.6821L78.5855 42.0211L81.2296 40.4933L81.0337 40.1544Z" fill="#C7C7C7"/>
<path d="M74.1251 33.3834L72.5996 36.0288L72.9388 36.2244L74.4642 33.579L74.1251 33.3834Z" fill="#C7C7C7"/>
<path d="M65.244 32.3641L65.907 51.0256L63.9912 51.0047L64.722 32.3589L65.244 32.3641Z" fill="#C7C7C7"/>
<path d="M76.8688 43.1592L64.3095 51.1719L63.396 49.4963L76.6183 42.7051L76.8688 43.1592Z" fill="#A6A6A6"/>
<path d="M65.5989 49.6686C65.5989 49.7977 65.5607 49.9238 65.489 50.0311C65.4173 50.1384 65.3154 50.2221 65.1961 50.2715C65.0769 50.3209 64.9457 50.3338 64.8192 50.3086C64.6926 50.2834 64.5763 50.2213 64.4851 50.13C64.3938 50.0388 64.3317 49.9225 64.3065 49.7959C64.2813 49.6694 64.2942 49.5382 64.3436 49.4189C64.393 49.2997 64.4766 49.1978 64.5839 49.1261C64.6912 49.0544 64.8174 49.0161 64.9464 49.0161C65.0323 49.0154 65.1175 49.0318 65.197 49.0644C65.2764 49.0969 65.3487 49.145 65.4094 49.2057C65.4701 49.2664 65.5181 49.3386 65.5507 49.4181C65.5832 49.4976 65.5996 49.5828 65.5989 49.6686Z" fill="#C7C7C7"/>
<path d="M243.736 226.026L215.553 226.157L187.371 226.198L131 226.287L74.6291 226.204L46.4463 226.157L18.2583 226.026L46.4463 225.901L74.6291 225.854L131 225.765L187.371 225.854L215.553 225.901L243.736 226.026Z" fill="#263238"/>
<path d="M218.414 73.722C218.376 72.1241 218.437 70.5255 218.597 68.9352C218.735 67.3442 218.971 65.7631 219.301 64.2007C219.34 65.7985 219.279 67.3972 219.119 68.9874C218.98 70.5784 218.745 72.1595 218.414 73.722Z" fill="#263238"/>
<path d="M215.595 74.2699C214.766 72.904 214.022 71.4884 213.366 70.0313C212.687 68.5854 212.099 67.0982 211.607 65.5786C213.251 68.3208 214.588 71.2354 215.595 74.2699Z" fill="#263238"/>
<path d="M213.434 76.1543C212.034 75.3862 210.681 74.5337 209.384 73.6017C208.071 72.688 206.818 71.6925 205.63 70.6211C208.425 72.1765 211.042 74.0319 213.434 76.1543Z" fill="#263238"/>
<path d="M212.5 78.8639C209.303 78.9172 206.11 78.6196 202.979 77.9765C204.575 77.938 206.172 77.999 207.76 78.1592C209.353 78.2979 210.936 78.5332 212.5 78.8639Z" fill="#263238"/>
<path d="M222.622 82.3452C225.424 83.9004 228.05 85.7557 230.452 87.8784C229.049 87.1141 227.696 86.2615 226.401 85.3258C225.081 84.4104 223.819 83.415 222.622 82.3452Z" fill="#263238"/>
<path d="M223.556 79.6364C226.754 79.5834 229.949 79.881 233.082 80.5238C231.484 80.5624 229.886 80.5014 228.295 80.3411C226.703 80.2024 225.12 79.9671 223.556 79.6364Z" fill="#263238"/>
<path d="M223.008 76.8172C224.374 75.9882 225.789 75.2438 227.246 74.5882C228.692 73.9091 230.179 73.3216 231.699 72.8291C230.334 73.6587 228.921 74.4048 227.466 75.0633C226.018 75.7398 224.529 76.3256 223.008 76.8172Z" fill="#263238"/>
<path d="M221.123 74.6457C221.891 73.2438 222.745 71.891 223.681 70.595C224.591 69.2814 225.585 68.0277 226.656 66.8418C225.102 69.6455 223.247 72.271 221.123 74.6718V74.6457Z" fill="#263238"/>
<path d="M102.29 192.508C101.711 193.244 52.9716 195.432 50.654 194.763C50.5413 194.73 50.4328 194.685 50.3303 194.628C47.4593 193.281 35.1401 183.979 33.1774 180.059C31.6114 176.927 40.8978 159.784 44.1394 156.845C46.2953 154.898 50.2938 154.131 50.2938 154.131C50.2938 154.131 61.5794 121.558 68.5377 114.741C70.2864 113.029 100.51 112.36 105.908 114.824C108.22 115.868 113.842 121.61 113.999 122.654C114.129 124.163 102.859 191.762 102.29 192.508Z" fill="#37474F"/>
<path d="M102.624 192.509C102.045 193.245 53.3106 195.432 50.9877 194.764C50.8757 194.729 50.7673 194.683 50.6641 194.628C55.3621 182.001 77.2861 122.754 77.9125 122.373C78.5389 121.992 107.416 122.164 114.332 122.665C114.479 124.163 103.209 191.762 102.624 192.509Z" fill="#263238"/>
<path d="M84.7246 117.142C84.2392 116.682 83.9155 110.063 84.8134 108.743C85.8156 107.266 97.404 107.996 98.0878 109.265C98.7716 110.533 99.1005 117.142 98.7508 117.382C98.401 117.622 96.4696 117.847 96.2086 117.424C95.9476 117.001 95.9633 111.53 95.7597 111.238C95.5561 110.946 87.439 110.424 87.1571 110.841C86.8752 111.259 87.5591 116.792 87.2354 117.032C86.9118 117.272 85.1996 117.591 84.7246 117.142Z" fill="#37474F"/>
<path d="M60.792 147.216L57.2139 145.54L55.2845 149.656L58.8626 151.333L60.792 147.216Z" fill="#DBDBDB"/>
<path d="M60.6193 150.529L54.7866 147.795L52.5848 152.494L58.4175 155.227L60.6193 150.529Z" fill="#C7C7C7"/>
<path d="M59.7 162.927L49.6202 184.433L35.7559 177.929L45.8305 156.428C47.8297 152.174 52.0423 150.164 56.2705 152.137C60.4987 154.11 61.694 158.688 59.7 162.927Z" fill="#31E3A5"/>
<path opacity="0.1" d="M59.7 162.927L49.6202 184.433L35.7559 177.929L45.8305 156.428C47.8297 152.174 52.0423 150.164 56.2705 152.137C60.4987 154.11 61.694 158.688 59.7 162.927Z" fill="black"/>
<path d="M54.7882 153.395C54.754 153.466 54.706 153.529 54.6472 153.582C54.5884 153.634 54.5198 153.674 54.4454 153.7C54.371 153.726 54.2922 153.737 54.2136 153.733C54.1349 153.728 54.0579 153.708 53.987 153.674C53.916 153.64 53.8525 153.592 53.8001 153.533C53.7476 153.474 53.7073 153.406 53.6814 153.331C53.6554 153.257 53.6444 153.178 53.6489 153.099C53.6534 153.021 53.6734 152.944 53.7077 152.873C53.7769 152.729 53.9002 152.619 54.0505 152.567C54.2008 152.515 54.3657 152.524 54.509 152.593C54.6522 152.663 54.7622 152.786 54.8145 152.936C54.8669 153.086 54.8575 153.251 54.7882 153.395Z" fill="white"/>
<path d="M59.4077 161.481C59.3575 161.587 59.277 161.676 59.1762 161.737C59.0755 161.797 58.9591 161.827 58.8416 161.821C58.7242 161.816 58.611 161.776 58.5164 161.706C58.4218 161.636 58.3499 161.54 58.3099 161.429C58.2699 161.319 58.2636 161.199 58.2916 161.085C58.3197 160.971 58.381 160.867 58.4677 160.788C58.5544 160.709 58.6627 160.657 58.7789 160.639C58.8951 160.621 59.014 160.638 59.1206 160.687C59.1917 160.72 59.2555 160.767 59.3085 160.825C59.3614 160.883 59.4024 160.951 59.4291 161.024C59.4557 161.098 59.4676 161.176 59.4639 161.255C59.4603 161.333 59.4411 161.41 59.4077 161.481Z" fill="white"/>
<path d="M53.0183 159.147C52.9847 159.218 52.9376 159.281 52.8795 159.334C52.8215 159.386 52.7537 159.427 52.68 159.453C52.6063 159.479 52.5282 159.49 52.4501 159.486C52.372 159.482 52.2954 159.463 52.2248 159.429C52.1542 159.395 52.0911 159.347 52.039 159.288C51.9868 159.23 51.9468 159.161 51.9211 159.087C51.8954 159.013 51.8846 158.935 51.8892 158.856C51.8939 158.778 51.9139 158.701 51.9482 158.631C51.9825 158.56 52.0303 158.497 52.089 158.445C52.1477 158.393 52.2161 158.353 52.2902 158.327C52.3644 158.301 52.4429 158.29 52.5212 158.295C52.5996 158.3 52.6762 158.32 52.7468 158.354C52.8867 158.425 52.9934 158.547 53.0441 158.695C53.0948 158.844 53.0855 159.006 53.0183 159.147Z" fill="white"/>
<path d="M51.1341 164.561C51.1016 164.632 51.0551 164.696 50.9973 164.75C50.9396 164.803 50.8717 164.844 50.7978 164.871C50.7239 164.898 50.6454 164.91 50.5669 164.906C50.4884 164.901 50.4115 164.882 50.3407 164.848C50.2343 164.797 50.1453 164.717 50.0847 164.616C50.0241 164.515 49.9947 164.399 50.0002 164.282C50.0057 164.164 50.0458 164.051 50.1156 163.956C50.1853 163.862 50.2816 163.79 50.3921 163.75C50.5027 163.71 50.6226 163.703 50.7367 163.732C50.8509 163.76 50.9542 163.821 51.0336 163.908C51.1129 163.994 51.1648 164.103 51.1827 164.219C51.2006 164.335 51.1837 164.454 51.1341 164.561Z" fill="white"/>
<path d="M43.0222 167.337C42.9897 167.409 42.9432 167.473 42.8854 167.527C42.8277 167.58 42.7598 167.621 42.6859 167.648C42.612 167.675 42.5335 167.687 42.455 167.682C42.3765 167.678 42.2995 167.659 42.2288 167.625C42.1581 167.59 42.095 167.542 42.0429 167.484C41.9907 167.425 41.9507 167.357 41.925 167.283C41.8993 167.208 41.8885 167.13 41.8931 167.052C41.8978 166.973 41.9178 166.897 41.9521 166.826C41.9864 166.755 42.0342 166.692 42.0929 166.64C42.1516 166.588 42.22 166.548 42.2941 166.522C42.3683 166.496 42.4468 166.486 42.5251 166.49C42.6035 166.495 42.6801 166.515 42.7508 166.549C42.8208 166.583 42.8834 166.63 42.9351 166.688C42.9868 166.746 43.0264 166.813 43.0516 166.886C43.0769 166.96 43.0873 167.038 43.0823 167.115C43.0772 167.192 43.0568 167.268 43.0222 167.337Z" fill="white"/>
<path d="M44.7345 162.284C44.7002 162.355 44.6523 162.419 44.5935 162.471C44.5347 162.524 44.4661 162.564 44.3917 162.59C44.3173 162.616 44.2385 162.627 44.1599 162.622C44.0812 162.618 44.0042 162.598 43.9333 162.564C43.8623 162.529 43.7988 162.481 43.7464 162.423C43.6939 162.364 43.6536 162.295 43.6277 162.221C43.6017 162.146 43.5907 162.068 43.5952 161.989C43.5997 161.91 43.6197 161.833 43.654 161.762C43.7232 161.619 43.8465 161.509 43.9968 161.457C44.147 161.404 44.312 161.414 44.4553 161.483C44.5985 161.552 44.7085 161.676 44.7608 161.826C44.8132 161.976 44.8037 162.141 44.7345 162.284Z" fill="white"/>
<path d="M47.2555 157.257C47.2212 157.328 47.1733 157.392 47.1145 157.444C47.0557 157.497 46.9871 157.537 46.9127 157.563C46.8383 157.589 46.7595 157.6 46.6809 157.596C46.6022 157.591 46.5252 157.571 46.4542 157.537C46.3833 157.502 46.3198 157.455 46.2674 157.396C46.2149 157.337 46.1746 157.268 46.1487 157.194C46.1227 157.12 46.1117 157.041 46.1162 156.962C46.1207 156.883 46.1407 156.806 46.175 156.735C46.2442 156.592 46.3675 156.482 46.5178 156.43C46.668 156.378 46.833 156.387 46.9762 156.456C47.1195 156.525 47.2295 156.649 47.2818 156.799C47.3342 156.949 47.3247 157.114 47.2555 157.257Z" fill="white"/>
<path d="M51.0557 155.243C51.0062 155.35 50.9261 155.44 50.8255 155.501C50.7249 155.562 50.6084 155.593 50.4906 155.588C50.3729 155.583 50.2592 155.543 50.1641 155.473C50.069 155.404 49.9967 155.307 49.9563 155.197C49.916 155.086 49.9095 154.966 49.9375 154.851C49.9656 154.737 50.0271 154.633 50.1141 154.554C50.2011 154.474 50.3097 154.422 50.4262 154.405C50.5428 154.387 50.6619 154.404 50.7686 154.454C50.9108 154.521 51.0208 154.642 51.0746 154.789C51.1284 154.937 51.1216 155.1 51.0557 155.243Z" fill="white"/>
<path d="M49.0879 160.854C49.0377 160.961 48.9572 161.05 48.8564 161.11C48.7557 161.171 48.6392 161.2 48.5218 161.195C48.4044 161.189 48.2912 161.149 48.1966 161.079C48.1019 161.01 48.0301 160.913 47.9901 160.803C47.9501 160.692 47.9437 160.572 47.9718 160.458C47.9999 160.344 48.0612 160.241 48.1479 160.161C48.2346 160.082 48.3429 160.03 48.4591 160.012C48.5753 159.994 48.6942 160.011 48.8008 160.061C48.8718 160.094 48.9357 160.141 48.9886 160.199C49.0416 160.257 49.0826 160.324 49.1092 160.398C49.1359 160.472 49.1478 160.55 49.1441 160.628C49.1404 160.707 49.1213 160.783 49.0879 160.854Z" fill="white"/>
<path d="M57.1059 157.503C57.0558 157.609 56.9752 157.698 56.8745 157.759C56.7737 157.819 56.6573 157.849 56.5399 157.843C56.4224 157.838 56.3093 157.798 56.2146 157.728C56.12 157.658 56.0482 157.562 56.0082 157.451C55.9682 157.341 55.9618 157.221 55.9899 157.107C56.018 156.993 56.0792 156.889 56.166 156.81C56.2527 156.731 56.361 156.679 56.4772 156.661C56.5933 156.643 56.7122 156.66 56.8188 156.709C56.8899 156.742 56.9538 156.789 57.0067 156.847C57.0596 156.905 57.1006 156.973 57.1273 157.046C57.154 157.12 57.1658 157.198 57.1622 157.277C57.1585 157.355 57.1394 157.432 57.1059 157.503Z" fill="white"/>
<path d="M55.31 163.057C55.2599 163.163 55.1793 163.252 55.0786 163.313C54.9778 163.374 54.8614 163.403 54.744 163.398C54.6265 163.392 54.5134 163.352 54.4187 163.282C54.3241 163.212 54.2523 163.116 54.2123 163.006C54.1723 162.895 54.1659 162.775 54.194 162.661C54.2221 162.547 54.2833 162.444 54.3701 162.364C54.4568 162.285 54.5651 162.233 54.6813 162.215C54.7974 162.197 54.9163 162.214 55.0229 162.264C55.094 162.297 55.1579 162.343 55.2108 162.401C55.2637 162.459 55.3047 162.527 55.3314 162.601C55.3581 162.674 55.3699 162.753 55.3663 162.831C55.3626 162.909 55.3435 162.986 55.31 163.057Z" fill="white"/>
<path d="M47.021 165.996C46.9708 166.102 46.8903 166.191 46.7895 166.252C46.6888 166.313 46.5724 166.342 46.4549 166.336C46.3375 166.331 46.2243 166.291 46.1297 166.221C46.0351 166.151 45.9632 166.055 45.9232 165.945C45.8832 165.834 45.8768 165.714 45.9049 165.6C45.933 165.486 45.9943 165.382 46.081 165.303C46.1677 165.224 46.276 165.172 46.3922 165.154C46.5084 165.136 46.6273 165.153 46.7339 165.203C46.805 165.236 46.8688 165.282 46.9217 165.34C46.9747 165.398 47.0157 165.466 47.0423 165.54C47.069 165.613 47.0809 165.692 47.0772 165.77C47.0735 165.848 47.0544 165.925 47.021 165.996Z" fill="white"/>
<path d="M50.8418 173.012C50.7916 173.118 50.7111 173.207 50.6103 173.268C50.5096 173.328 50.3932 173.358 50.2757 173.352C50.1583 173.347 50.0451 173.306 49.9505 173.237C49.8559 173.167 49.784 173.071 49.744 172.96C49.704 172.85 49.6976 172.73 49.7257 172.616C49.7538 172.501 49.8151 172.398 49.9018 172.319C49.9885 172.239 50.0968 172.187 50.213 172.17C50.3292 172.152 50.4481 172.169 50.5547 172.218C50.6258 172.251 50.6896 172.298 50.7425 172.356C50.7955 172.414 50.8365 172.481 50.8632 172.555C50.8898 172.629 50.9017 172.707 50.898 172.786C50.8943 172.864 50.8752 172.941 50.8418 173.012Z" fill="white"/>
<path d="M48.853 177.036C48.8028 177.142 48.7223 177.231 48.6216 177.292C48.5208 177.353 48.4044 177.382 48.2869 177.377C48.1695 177.371 48.0563 177.331 47.9617 177.261C47.8671 177.191 47.7952 177.095 47.7552 176.985C47.7152 176.874 47.7089 176.754 47.737 176.64C47.765 176.526 47.8263 176.423 47.913 176.343C47.9997 176.264 48.108 176.212 48.2242 176.194C48.3404 176.176 48.4593 176.193 48.5659 176.243C48.637 176.276 48.7008 176.322 48.7538 176.38C48.8067 176.438 48.8477 176.506 48.8744 176.58C48.9011 176.653 48.9129 176.732 48.9092 176.81C48.9056 176.888 48.8864 176.965 48.853 177.036Z" fill="white"/>
<path d="M45.2982 170.532C45.2651 170.603 45.2183 170.667 45.1604 170.72C45.1026 170.773 45.0349 170.814 44.9611 170.841C44.8874 170.867 44.8091 170.879 44.7308 170.876C44.6525 170.872 44.5756 170.853 44.5047 170.819C44.3984 170.769 44.3093 170.689 44.2487 170.588C44.1881 170.487 44.1587 170.371 44.1642 170.253C44.1697 170.136 44.2099 170.023 44.2796 169.928C44.3494 169.833 44.4456 169.762 44.5562 169.722C44.6667 169.682 44.7866 169.675 44.9008 169.703C45.015 169.731 45.1182 169.793 45.1976 169.879C45.277 169.966 45.3289 170.074 45.3468 170.191C45.3647 170.307 45.3478 170.426 45.2982 170.532Z" fill="white"/>
<path d="M39.6969 175.632C39.6626 175.703 39.6147 175.766 39.5559 175.819C39.4971 175.871 39.4285 175.912 39.3541 175.938C39.2797 175.964 39.2009 175.975 39.1223 175.97C39.0436 175.966 38.9666 175.946 38.8957 175.911C38.8247 175.877 38.7612 175.829 38.7088 175.77C38.6563 175.711 38.616 175.643 38.5901 175.568C38.5641 175.494 38.5531 175.415 38.5576 175.337C38.5621 175.258 38.5821 175.181 38.6164 175.11C38.6856 174.967 38.8089 174.857 38.9592 174.804C39.1094 174.752 39.2744 174.762 39.4177 174.831C39.5609 174.9 39.6709 175.023 39.7232 175.174C39.7756 175.324 39.7661 175.489 39.6969 175.632Z" fill="white"/>
<path d="M49.2339 169.41C49.1837 169.516 49.1032 169.605 49.0024 169.666C48.9017 169.727 48.7852 169.756 48.6678 169.751C48.5504 169.745 48.4372 169.705 48.3426 169.635C48.2479 169.565 48.1761 169.469 48.1361 169.359C48.0961 169.248 48.0897 169.128 48.1178 169.014C48.1459 168.9 48.2072 168.797 48.2939 168.717C48.3806 168.638 48.4889 168.586 48.6051 168.568C48.7213 168.55 48.8402 168.567 48.9467 168.617C49.0178 168.65 49.0817 168.696 49.1346 168.754C49.1876 168.812 49.2286 168.88 49.2552 168.954C49.2819 169.027 49.2938 169.106 49.2901 169.184C49.2864 169.262 49.2673 169.339 49.2339 169.41Z" fill="white"/>
<path d="M47.2451 173.826C47.1949 173.932 47.1144 174.021 47.0136 174.082C46.9129 174.143 46.7965 174.172 46.679 174.167C46.5616 174.161 46.4484 174.121 46.3538 174.051C46.2592 173.981 46.1873 173.885 46.1473 173.775C46.1073 173.664 46.101 173.544 46.129 173.43C46.1571 173.316 46.2184 173.213 46.3051 173.133C46.3918 173.054 46.5001 173.002 46.6163 172.984C46.7325 172.966 46.8514 172.983 46.958 173.033C47.0291 173.066 47.0929 173.113 47.1459 173.17C47.1988 173.228 47.2398 173.296 47.2665 173.37C47.2931 173.443 47.305 173.522 47.3013 173.6C47.2977 173.678 47.2785 173.755 47.2451 173.826Z" fill="white"/>
<path d="M45.1938 178.205C45.1436 178.312 45.0631 178.401 44.9624 178.461C44.8616 178.522 44.7452 178.551 44.6278 178.546C44.5103 178.54 44.3972 178.5 44.3025 178.431C44.2079 178.361 44.1361 178.265 44.0961 178.154C44.0561 178.043 44.0497 177.924 44.0778 177.809C44.1059 177.695 44.1671 177.592 44.2538 177.513C44.3406 177.433 44.4489 177.381 44.565 177.363C44.6812 177.345 44.8001 177.362 44.9067 177.412C44.9778 177.445 45.0417 177.492 45.0946 177.55C45.1475 177.608 45.1885 177.675 45.2152 177.749C45.2419 177.823 45.2537 177.901 45.2501 177.979C45.2464 178.058 45.2273 178.135 45.1938 178.205Z" fill="white"/>
<path d="M46.9948 181.52C46.9269 181.663 46.8055 181.773 46.657 181.827C46.5085 181.88 46.3447 181.873 46.2013 181.807C46.1304 181.773 46.0669 181.725 46.0144 181.666C45.962 181.607 45.9217 181.539 45.8957 181.464C45.8698 181.39 45.8588 181.311 45.8633 181.233C45.8678 181.154 45.8878 181.077 45.922 181.006C45.9563 180.935 46.0042 180.872 46.0631 180.819C46.1219 180.767 46.1904 180.726 46.2648 180.7C46.3392 180.674 46.418 180.663 46.4967 180.668C46.5754 180.672 46.6524 180.692 46.7233 180.727C46.8632 180.797 46.9698 180.92 47.0206 181.068C47.0713 181.216 47.062 181.379 46.9948 181.52Z" fill="white"/>
<path d="M41.5607 171.482C41.4915 171.625 41.3682 171.735 41.2179 171.788C41.0676 171.84 40.9027 171.831 40.7594 171.761C40.6161 171.692 40.5062 171.569 40.4538 171.419C40.4015 171.268 40.4109 171.103 40.4802 170.96C40.5144 170.889 40.5623 170.826 40.6212 170.773C40.68 170.721 40.7485 170.68 40.8229 170.655C40.8974 170.629 40.9761 170.618 41.0548 170.622C41.1335 170.627 41.2105 170.647 41.2814 170.681C41.3524 170.715 41.4159 170.763 41.4683 170.822C41.5207 170.881 41.5611 170.949 41.587 171.024C41.6129 171.098 41.624 171.177 41.6194 171.255C41.6149 171.334 41.595 171.411 41.5607 171.482Z" fill="white"/>
<path d="M43.351 174.692C43.3009 174.799 43.2203 174.888 43.1196 174.948C43.0189 175.009 42.9024 175.038 42.785 175.033C42.6676 175.027 42.5544 174.987 42.4598 174.917C42.3651 174.848 42.2933 174.751 42.2533 174.641C42.2133 174.53 42.2069 174.41 42.235 174.296C42.2631 174.182 42.3244 174.079 42.4111 173.999C42.4978 173.92 42.6061 173.868 42.7223 173.85C42.8385 173.832 42.9574 173.849 43.0639 173.899C43.135 173.932 43.1989 173.979 43.2518 174.037C43.3048 174.094 43.3457 174.162 43.3724 174.236C43.3991 174.31 43.411 174.388 43.4073 174.466C43.4036 174.545 43.3845 174.621 43.351 174.692Z" fill="white"/>
<path d="M50.5131 180.701C50.463 180.807 50.3824 180.896 50.2817 180.957C50.181 181.017 50.0645 181.047 49.9471 181.041C49.8297 181.036 49.7165 180.995 49.6219 180.926C49.5272 180.856 49.4554 180.76 49.4154 180.649C49.3754 180.539 49.369 180.419 49.3971 180.305C49.4252 180.19 49.4865 180.087 49.5732 180.008C49.6599 179.928 49.7682 179.876 49.8844 179.858C50.0006 179.841 50.1195 179.858 50.226 179.907C50.3687 179.975 50.4788 180.096 50.5325 180.245C50.5863 180.393 50.5793 180.557 50.5131 180.701Z" fill="white"/>
<path d="M41.4824 178.989C41.4322 179.095 41.3517 179.184 41.251 179.245C41.1502 179.305 41.0338 179.335 40.9163 179.329C40.7989 179.324 40.6857 179.284 40.5911 179.214C40.4965 179.144 40.4246 179.048 40.3846 178.937C40.3446 178.827 40.3383 178.707 40.3663 178.593C40.3944 178.478 40.4557 178.375 40.5424 178.296C40.6291 178.216 40.7374 178.164 40.8536 178.147C40.9698 178.129 41.0887 178.146 41.1953 178.195C41.2664 178.228 41.3302 178.275 41.3832 178.333C41.4361 178.391 41.4771 178.459 41.5038 178.532C41.5305 178.606 41.5423 178.684 41.5386 178.763C41.535 178.841 41.5158 178.918 41.4824 178.989Z" fill="white"/>
<path d="M54.6313 172.124C54.5811 172.231 54.5006 172.32 54.3999 172.38C54.2991 172.441 54.1827 172.47 54.0653 172.465C53.9478 172.459 53.8347 172.419 53.74 172.349C53.6454 172.28 53.5736 172.184 53.5336 172.073C53.4936 171.962 53.4872 171.842 53.5153 171.728C53.5434 171.614 53.6046 171.511 53.6913 171.432C53.7781 171.352 53.8864 171.3 54.0025 171.282C54.1187 171.264 54.2376 171.281 54.3442 171.331C54.4153 171.364 54.4792 171.411 54.5321 171.469C54.585 171.527 54.626 171.594 54.6527 171.668C54.6794 171.742 54.6912 171.82 54.6876 171.898C54.6839 171.977 54.6648 172.053 54.6313 172.124Z" fill="white"/>
<path d="M52.6479 176.363C52.5978 176.469 52.5172 176.558 52.4165 176.619C52.3157 176.679 52.1993 176.709 52.0819 176.703C51.9644 176.698 51.8513 176.658 51.7566 176.588C51.662 176.518 51.5902 176.422 51.5502 176.311C51.5102 176.201 51.5038 176.081 51.5319 175.967C51.56 175.852 51.6212 175.749 51.7079 175.67C51.7947 175.59 51.903 175.539 52.0191 175.521C52.1353 175.503 52.2542 175.52 52.3608 175.569C52.4319 175.602 52.4958 175.649 52.5487 175.707C52.6016 175.765 52.6426 175.833 52.6693 175.906C52.696 175.98 52.7078 176.058 52.7042 176.137C52.7005 176.215 52.6814 176.292 52.6479 176.363Z" fill="white"/>
<path d="M53.0288 168.637C52.9786 168.743 52.8981 168.832 52.7973 168.893C52.6966 168.954 52.5802 168.983 52.4627 168.978C52.3453 168.972 52.2321 168.932 52.1375 168.862C52.0429 168.792 51.971 168.696 51.931 168.586C51.891 168.475 51.8847 168.355 51.9127 168.241C51.9408 168.127 52.0021 168.024 52.0888 167.944C52.1755 167.865 52.2838 167.813 52.4 167.795C52.5162 167.777 52.6351 167.794 52.7417 167.844C52.8128 167.877 52.8766 167.924 52.9296 167.981C52.9825 168.039 53.0235 168.107 53.0502 168.181C53.0768 168.254 53.0887 168.333 53.085 168.411C53.0813 168.489 53.0622 168.566 53.0288 168.637Z" fill="white"/>
<path d="M57.2153 167.317C57.1651 167.423 57.0846 167.512 56.9839 167.573C56.8831 167.633 56.7667 167.663 56.6493 167.657C56.5318 167.652 56.4187 167.612 56.324 167.542C56.2294 167.472 56.1575 167.376 56.1175 167.265C56.0775 167.155 56.0712 167.035 56.0993 166.921C56.1273 166.807 56.1886 166.703 56.2753 166.624C56.3621 166.545 56.4703 166.493 56.5865 166.475C56.7027 166.457 56.8216 166.474 56.9282 166.523C56.9993 166.556 57.0631 166.603 57.1161 166.661C57.169 166.719 57.21 166.787 57.2367 166.86C57.2634 166.934 57.2752 167.012 57.2715 167.091C57.2679 167.169 57.2488 167.246 57.2153 167.317Z" fill="white"/>
<path d="M34.1328 178.237C35.3021 183.979 48.0598 190.17 48.9315 190.144C49.8032 190.118 58.2701 169.159 58.2701 169.159C58.2701 169.159 47.9501 165.766 43.3043 159.732C43.3043 159.732 33.7674 176.436 34.1328 178.237Z" fill="#455A64"/>
<path d="M132.613 225.817H83.2371C80.2303 214.333 77.469 204.201 75.7098 197.802C74.6032 193.777 73.8933 191.224 73.7575 190.744C73.7503 190.716 73.7415 190.688 73.7314 190.661H125.081L126.647 197.859C127.268 200.772 128.056 204.447 128.964 208.649C129.037 209.014 129.121 209.385 129.199 209.771C130.233 214.584 131.397 220.039 132.613 225.817Z" fill="#455A64"/>
<path d="M90.7228 225.817H89.7937C87.2672 216.508 84.8016 207.182 82.3969 197.838L82.1986 197.049C82.1516 196.835 82.47 196.736 82.5326 196.95C82.6214 197.248 82.7101 197.54 82.7936 197.838C85.5185 207.14 88.1389 216.473 90.7228 225.817Z" fill="#263238"/>
<path d="M121.082 190.744C120.68 193.184 120.093 195.59 119.328 197.942C118.754 199.811 118.06 201.831 117.277 203.914C117.11 204.389 116.922 204.848 116.755 205.318C114.265 211.66 111.013 218.123 107.651 221.192H107.625C107.231 221.569 106.801 221.906 106.341 222.2L103.48 223.969C103.484 223.983 103.484 223.997 103.48 224.011C103.48 224.183 103.35 224.804 103.188 225.807H54.9918C53.7599 214.646 56.3281 204.206 58.5675 197.66C59.3512 195.294 60.2858 192.98 61.3654 190.733L121.082 190.744Z" fill="#455A64"/>
<path d="M115.34 218.473C112.312 220.136 109.192 221.628 105.997 222.941C105.146 223.306 104.295 223.667 103.428 224.016C103.376 224.016 103.324 224.063 103.272 224.079C102.527 224.389 101.781 224.686 101.032 224.972C100.302 225.253 99.5759 225.546 98.8347 225.817H97.2061C98.3284 225.253 99.5029 224.773 100.646 224.251C102.233 223.555 103.825 222.859 105.422 222.163C106.148 221.85 106.873 221.532 107.594 221.208H107.62C110.11 220.101 112.589 218.995 115.152 218.076C115.408 217.951 115.575 218.337 115.34 218.473Z" fill="#263238"/>
<path d="M103.454 224.053C103.454 224.429 103.423 225.05 103.35 225.817H102.828C102.995 225.097 103.146 224.507 103.292 224.079C103.291 224.063 103.291 224.047 103.292 224.032C103.318 223.964 103.412 223.959 103.433 224.032C103.433 224.032 103.454 224.037 103.454 224.053Z" fill="#263238"/>
<path d="M66.0267 193.745C65.3742 195.05 64.7843 196.355 64.2362 197.723C60.9119 205.897 59.6568 214.765 60.5822 223.541C60.671 224.303 60.7806 225.06 60.8954 225.817H60.0602C59.7306 223.613 59.5388 221.39 59.486 219.161C59.3137 211.791 60.7494 204.472 63.6934 197.712C64.3093 196.308 64.9931 194.93 65.7396 193.589C65.7499 193.57 65.7638 193.553 65.7805 193.54C65.7972 193.526 65.8164 193.516 65.837 193.51C65.8576 193.504 65.8792 193.502 65.9006 193.504C65.9219 193.507 65.9426 193.513 65.9614 193.523C65.9803 193.534 65.9969 193.548 66.0104 193.564C66.0239 193.581 66.034 193.6 66.04 193.621C66.0461 193.641 66.048 193.663 66.0457 193.684C66.0434 193.706 66.037 193.726 66.0267 193.745Z" fill="#263238"/>
<path d="M102.243 210.616C102.29 208.758 102.42 206.905 102.514 205.052C102.728 200.678 102.901 196.277 103.308 191.918C103.308 191.882 103.322 191.848 103.348 191.822C103.373 191.797 103.408 191.783 103.444 191.783C103.48 191.783 103.514 191.797 103.54 191.822C103.565 191.848 103.579 191.882 103.579 191.918C103.632 195.301 103.501 198.704 103.433 202.082C103.397 203.773 103.35 205.47 103.303 207.161C103.211 208.776 103.201 210.394 103.271 212.01C103.36 213.232 103.626 215.602 105.218 215.748C106.722 215.889 107.907 214.27 108.283 213.086C109.233 210.068 109.572 206.822 109.88 203.69C110.063 201.836 110.277 194.294 110.177 192.404C110.177 192.284 110.355 192.289 110.365 192.404C110.47 194.314 110.731 196.214 110.793 198.146C110.856 200.077 110.861 201.967 110.741 203.888C110.621 205.715 110.47 207.542 110.193 209.364C110.007 211.02 109.613 212.646 109.019 214.203C108.465 215.487 107.515 216.666 106.074 216.948C105.902 216.978 105.727 216.995 105.552 217.001C105.552 217.392 105.479 217.789 105.453 218.175C105.412 218.791 105.333 219.397 105.25 220.007C105.165 220.606 105.042 221.199 104.879 221.782C104.748 222.372 104.537 222.941 104.253 223.473C104.242 223.49 104.226 223.503 104.207 223.51C104.189 223.516 104.169 223.517 104.15 223.512C104.13 223.507 104.114 223.496 104.101 223.48C104.089 223.465 104.081 223.446 104.08 223.426C104.066 222.84 104.115 222.254 104.227 221.678C104.31 221.083 104.394 220.477 104.514 219.892C104.634 219.308 104.743 218.728 104.863 218.149C104.942 217.763 104.994 217.361 105.067 216.969C104.602 216.887 104.164 216.691 103.794 216.399C103.423 216.107 103.13 215.727 102.942 215.294C102.259 213.848 102.206 212.162 102.243 210.616Z" fill="#263238"/>
<path d="M101.356 126.689C107.583 134.493 132.002 162.185 145.574 164.769C154.715 166.518 184.077 151.573 190.508 146.16C193.118 143.947 178.434 122.038 174.848 122.921C170.964 123.876 149.834 137.923 147.088 137.761C144.342 137.599 122.716 125.442 109.598 120.06C101.716 116.803 97.8479 122.299 101.356 126.689Z" fill="#AD6359"/>
<path d="M182.443 151.38C188.091 149.203 205.218 137.192 208.063 134.071C210.908 130.949 218.446 121.391 216.274 118.969C214.102 116.547 211.68 119.173 211.68 119.173C211.68 119.173 214.536 114.24 211.821 112.387C209.655 110.909 206.038 114.422 206.038 114.422C206.038 114.422 208.882 108.853 205.954 107.365C203.287 106.008 200.348 110.779 200.348 110.779C200.348 110.779 202.253 105.877 199.434 105.068C196.041 104.087 192.737 112.569 189.339 115.78C188.566 116.505 165.771 127.692 165.771 127.692L182.443 151.38Z" fill="#AD6359"/>
<path d="M200.222 110.534C197.09 116.636 195.629 119.068 190.304 122.973C190.2 123.046 190.304 123.218 190.409 123.15C195.953 119.799 197.905 117.038 200.515 110.622C200.656 110.325 200.369 110.252 200.222 110.534Z" fill="#263238"/>
<path d="M205.975 114.422C202.869 120.686 200.494 123.041 195.237 127.535C195.159 127.598 195.237 127.733 195.342 127.676C200.87 123.693 203.918 121.13 206.199 114.475C206.304 114.177 206.116 114.141 205.975 114.422Z" fill="#263238"/>
<path d="M211.42 119.397C207.974 125.233 205.568 128.104 199.899 131.81C199.87 131.827 199.849 131.854 199.84 131.887C199.831 131.919 199.835 131.954 199.852 131.983C199.869 132.012 199.896 132.033 199.928 132.042C199.961 132.051 199.995 132.046 200.024 132.03C206.168 128.809 209.206 125.244 211.587 119.502C211.748 119.131 211.634 119.016 211.42 119.397Z" fill="#263238"/>
<path d="M234.163 136.628C219.176 141.003 204.409 145.382 190.054 149.757C181.456 130.443 180.188 111.129 174.3 91.8147C189.307 87.4351 204.054 83.0607 218.466 78.6812C227.048 97.9899 228.29 117.309 234.163 136.628Z" fill="white"/>
<path d="M234.163 136.628C226.692 138.848 219.29 141.065 211.957 143.278C204.625 145.492 197.347 147.703 190.122 149.913L189.976 149.96L189.903 149.803C181.269 130.489 179.985 111.175 174.05 91.8614C174.024 91.7779 174.003 91.6944 173.977 91.6108L174.222 91.5378C189.229 87.1843 203.976 82.8308 218.388 78.4878L218.561 78.4355L218.639 78.613C222.919 88.2961 225.357 97.9792 227.461 107.662C229.564 117.345 231.271 126.976 234.163 136.628ZM234.163 136.628C231.183 126.966 229.356 117.314 227.194 107.636C225.033 97.9583 222.59 88.3588 218.32 78.7226L218.566 78.8479C204.174 83.2484 189.407 87.6541 174.399 92.0545L174.572 91.7309C180.434 111.045 181.671 130.385 190.232 149.709L190.018 149.6C197.2 147.435 204.472 145.271 211.832 143.106C219.192 140.942 226.636 138.782 234.163 136.628Z" fill="#263238"/>
<path d="M181.394 100.224C189.861 97.788 198.277 95.352 206.643 92.916C206.789 93.4119 206.935 93.9078 207.076 94.4037C198.693 96.8397 190.252 99.2757 181.754 101.712C181.634 101.237 181.514 100.746 181.394 100.224Z" fill="#DBDBDB"/>
<path d="M182.292 104.003C190.801 101.567 199.271 99.1313 207.703 96.6953L208.094 98.183C199.652 100.619 191.164 103.055 182.631 105.491C182.522 104.995 182.407 104.499 182.292 104.003Z" fill="#DBDBDB"/>
<path d="M183.138 107.762C191.678 105.326 200.188 102.89 208.669 100.454C208.789 100.976 208.914 101.445 209.029 101.941C200.541 104.377 192.015 106.813 183.451 109.249C183.357 108.753 183.247 108.258 183.138 107.762Z" fill="#DBDBDB"/>
<path d="M183.952 111.515C196.48 107.951 208.969 104.386 221.421 100.819L221.781 102.312C209.337 105.872 196.803 109.437 184.27 113.002C184.16 112.506 184.056 112.011 183.952 111.515Z" fill="#DBDBDB"/>
<path d="M184.766 115.273C197.294 111.706 209.813 108.141 222.324 104.578C222.439 105.074 222.554 105.569 222.663 106.065C210.167 109.632 197.639 113.198 185.079 116.761C184.959 116.265 184.855 115.769 184.766 115.273Z" fill="#DBDBDB"/>
<path d="M185.554 119.016L223.138 108.325C223.248 108.847 223.357 109.317 223.462 109.813C210.934 113.378 198.406 116.938 185.878 120.503C185.768 120.018 185.664 119.538 185.554 119.016Z" fill="#DBDBDB"/>
<path d="M186.384 122.785C198.874 119.218 211.402 115.652 223.968 112.089C224.078 112.611 224.182 113.081 224.287 113.577C211.759 117.14 199.241 120.705 186.734 124.272C186.609 123.776 186.494 123.281 186.384 122.785Z" fill="#DBDBDB"/>
<path d="M187.256 126.538C199.695 122.972 212.223 119.412 224.756 115.847C224.866 116.343 224.97 116.839 225.075 117.335C212.547 120.902 200.062 124.465 187.621 128.025C187.496 127.53 187.376 127.034 187.256 126.538Z" fill="#DBDBDB"/>
<path d="M188.196 130.296C200.567 126.729 213.024 123.164 225.566 119.601C225.675 120.096 225.78 120.592 225.889 121.088C213.382 124.655 200.95 128.221 188.593 131.784C188.457 131.288 188.326 130.792 188.196 130.296Z" fill="#DBDBDB"/>
<path d="M189.219 134.049C201.496 130.489 213.89 126.926 226.401 123.359C226.516 123.881 226.625 124.351 226.745 124.847C214.28 128.412 201.888 131.977 189.652 135.542C189.506 135.041 189.36 134.545 189.219 134.049Z" fill="#DBDBDB"/>
<path d="M190.341 137.808C202.521 134.245 214.835 130.679 227.283 127.112C227.403 127.634 227.523 128.104 227.648 128.6C215.245 132.167 202.97 135.732 190.821 139.296C190.659 138.8 190.508 138.33 190.341 137.808Z" fill="#DBDBDB"/>
<path d="M191.589 141.566C203.637 138.003 215.851 134.438 228.233 130.871C228.364 131.367 228.494 131.862 228.63 132.358C216.311 135.922 204.141 139.487 192.121 143.054L191.589 141.566Z" fill="#DBDBDB"/>
<path d="M210.955 100.694C210.396 96.6378 209.712 92.5818 208.799 88.5259C211.654 91.4334 214.384 94.341 217.041 97.2485L216.258 97.9636C214.4 95.9174 212.505 93.8712 210.553 91.8249C211.122 94.722 211.597 97.6139 211.988 100.511L210.955 100.694Z" fill="#31E3A5"/>
<path d="M210.209 98.5851L209.603 97.7551C211.461 96.3631 213.302 94.9711 215.126 93.5791L215.752 94.4091C213.925 95.808 212.077 97.2 210.209 98.5851Z" fill="#31E3A5"/>
<path d="M208.58 86.9338C207.721 87.5698 206.96 88.3278 206.319 89.1836C205.058 90.9176 204.398 93.0165 204.44 95.1605C204.449 96.2002 204.677 97.2265 205.108 98.1724C205.553 99.085 206.198 99.8848 206.997 100.511C207.795 101.138 208.726 101.575 209.718 101.79C211.712 102.181 213.847 101.466 215.632 100.287C217.46 99.1944 218.846 97.4945 219.547 95.4841C219.876 94.498 219.979 93.4502 219.847 92.4189C219.715 91.3877 219.352 90.3995 218.785 89.5281C218.16 88.6665 217.352 87.9535 216.42 87.4401C215.489 86.9015 214.453 86.5686 213.382 86.464C212.319 86.3563 211.245 86.5049 210.25 86.8972C209.263 87.3039 208.354 87.8778 207.562 88.5937C207.928 88.1987 208.322 87.8306 208.742 87.4923C209.178 87.1677 209.645 86.8862 210.135 86.6519C211.144 86.1619 212.256 85.9254 213.377 85.9628C214.555 86.0205 215.706 86.3299 216.754 86.8702C217.803 87.4104 218.723 88.169 219.453 89.0948C220.153 90.0515 220.603 91.1674 220.763 92.3417C220.928 93.5009 220.838 94.6822 220.497 95.8025C219.736 98.0529 218.203 99.9612 216.17 101.19C215.187 101.838 214.109 102.329 212.975 102.646C211.837 102.969 210.639 103.021 209.478 102.797C208.344 102.558 207.288 102.038 206.408 101.284C205.537 100.543 204.838 99.6195 204.362 98.5796C203.525 96.425 203.538 94.0329 204.398 91.8875C205.185 89.8071 206.661 88.0589 208.58 86.9338Z" fill="#31E3A5"/>
<path d="M214.306 90.8278C213.707 90.0065 213.097 89.187 212.474 88.3692L213.293 87.7637C213.92 88.5815 214.536 89.401 215.141 90.2223L214.306 90.8278Z" fill="#31E3A5"/>
<path d="M212.954 90.5723L212.333 89.7162L214.682 88.0249C214.896 88.312 215.105 88.5991 215.319 88.881L212.954 90.5723Z" fill="#31E3A5"/>
<path d="M165.771 127.697C165.771 127.697 171.319 122.012 173.815 119.188C176.31 116.364 182.271 107.402 185.507 107.616C189.161 107.856 186.52 117.299 182.099 122.373C182.099 122.373 187.971 131.737 183.957 136.816C183.085 137.912 176.759 141.389 175.187 141.065L165.771 127.697Z" fill="#AD6359"/>
<path d="M181.832 123.051C184.249 126.611 185.93 132.035 184.197 135.965C184.189 135.988 184.189 136.012 184.197 136.034C184.206 136.057 184.222 136.075 184.243 136.087C184.263 136.098 184.288 136.101 184.311 136.096C184.334 136.091 184.355 136.078 184.369 136.059C186.796 132.097 184.891 125.802 182.563 122.748C182.109 122.148 181.206 122.148 181.832 123.051Z" fill="#263238"/>
<path d="M165.77 127.697L182.443 151.38C182.492 152.884 182.08 154.367 181.261 155.629C180.443 156.892 179.258 157.874 177.865 158.443C172.89 160.62 152.313 168.042 144.165 165.291C136.016 162.54 112.772 142.506 102.744 129.19C92.7165 115.874 107.536 118.52 110.36 119.794C113.184 121.068 146.336 136.691 147.516 136.665C148.696 136.639 156.39 130.787 160.044 128.971C163.698 127.154 165.77 127.697 165.77 127.697Z" fill="#31E3A5"/>
<path opacity="0.1" d="M156.056 165.108C151.358 165.97 147.01 166.252 144.175 165.291C136.022 162.535 112.777 142.511 102.75 129.184C102.113 128.344 101.58 127.561 101.131 126.851L156.056 165.108Z" fill="black"/>
<path d="M175.95 156.271C174.42 154.397 173.146 152.314 171.815 150.31C170.484 148.305 169.205 146.353 167.916 144.359C165.306 140.345 162.607 136.357 160.274 132.191C160.267 132.172 160.266 132.151 160.272 132.132C160.279 132.113 160.292 132.096 160.309 132.085C160.326 132.074 160.346 132.069 160.367 132.071C160.387 132.074 160.406 132.083 160.42 132.097C163.432 135.892 166.058 139.995 168.699 144.03C170.025 146.052 171.321 148.091 172.588 150.148C173.874 152.098 175.051 154.117 176.111 156.198C176.158 156.297 176.012 156.349 175.95 156.271Z" fill="#263238"/>
<g opacity="0.1">
<path d="M170.604 161.178L168.72 161.82C168.621 161.128 168.574 160.431 168.579 159.732C168.579 158.411 168.683 157.122 168.667 155.864C168.672 154.606 168.549 153.35 168.302 152.116C168.05 150.907 167.626 149.74 167.044 148.65C166.903 148.378 166.741 148.128 166.59 147.867C166.438 147.606 166.266 147.387 166.094 147.147C165.723 146.672 165.337 146.181 164.935 145.701L162.534 142.783C161.72 141.801 160.916 140.815 160.122 139.807C159.329 138.8 158.556 137.756 157.841 136.675C157.099 135.558 156.458 134.377 155.925 133.147C155.742 132.697 155.586 132.236 155.456 131.768C156.129 131.325 156.792 130.897 157.418 130.5C157.625 131.063 157.864 131.614 158.133 132.15C158.71 133.205 159.346 134.226 160.039 135.208C161.438 137.244 162.91 139.296 164.387 141.368C165.123 142.412 165.88 143.456 166.569 144.537C166.913 145.085 167.258 145.638 167.566 146.238C167.717 146.541 167.869 146.839 168.004 147.173C168.14 147.507 168.239 147.81 168.333 148.133C169.106 150.701 169.221 153.291 169.518 155.822C169.72 157.636 170.083 159.429 170.604 161.178Z" fill="black"/>
<path d="M164.017 163.219C163.495 163.365 163.004 163.506 162.487 163.642C161.861 161.481 161.824 159.351 161.777 157.247V153.99C161.777 153.468 161.777 152.92 161.735 152.393C161.724 151.882 161.673 151.372 161.584 150.869C161.566 150.755 161.536 150.643 161.495 150.535L161.365 150.18L161.208 149.835C161.151 149.72 161.083 149.611 161.026 149.496C160.76 149.046 160.445 148.627 160.086 148.248C159.336 147.486 158.484 146.831 157.554 146.301C157.09 146.019 156.609 145.779 156.124 145.523L154.657 144.777C153.607 144.288 152.66 143.604 151.864 142.762C151.667 142.526 151.493 142.273 151.342 142.005C151.264 141.869 151.196 141.723 151.128 141.582L150.967 141.165C150.779 140.614 150.637 140.048 150.544 139.473C150.366 138.362 150.3 137.236 150.345 136.112C150.345 135.783 150.377 135.454 150.403 135.125L151.447 134.436C151.447 134.995 151.447 135.548 151.494 136.101C151.537 137.152 151.655 138.199 151.849 139.233C151.95 139.729 152.086 140.218 152.256 140.695L152.392 141.039C152.444 141.139 152.48 141.243 152.538 141.347C152.647 141.553 152.771 141.75 152.908 141.937C153.547 142.741 154.291 143.454 155.122 144.056C155.973 144.709 156.896 145.299 157.81 145.899C158.754 146.474 159.653 147.119 160.498 147.831C160.932 148.2 161.329 148.611 161.683 149.057C161.862 149.286 162.027 149.525 162.179 149.772L162.393 150.153C162.464 150.294 162.525 150.438 162.576 150.587C162.757 151.137 162.885 151.703 162.957 152.278C163.046 152.831 163.093 153.385 163.14 153.933C163.228 155.029 163.281 156.115 163.354 157.19C163.427 158.265 163.505 159.341 163.609 160.395C163.681 161.345 163.817 162.288 164.017 163.219Z" fill="black"/>
</g>
<path d="M56.072 201.106C56.1242 201.174 127.362 197.843 127.826 197.405C128.04 197.201 128.964 193.145 127.873 187.513C124.6 170.626 114.792 136.133 106.142 121.537C103.981 117.883 94.2406 112.512 87.1727 119.413C72.8438 133.402 61.5947 169.003 57.163 188.557C54.9914 198.115 55.7797 200.699 56.072 201.106Z" fill="#31E3A5"/>
<g opacity="0.1">
<path d="M127.555 185.9C127.341 185.9 127.127 185.9 126.918 185.931C124.893 186.124 122.882 186.44 120.894 186.876C116.797 187.711 112.626 188.65 108.424 189.585C106.336 190.049 104.217 190.54 102.05 190.895C100.964 191.067 99.8735 191.24 98.7407 191.323C98.1665 191.36 97.6028 191.401 96.9868 191.391C96.3709 191.381 95.8489 191.334 95.2799 191.266C90.7646 190.78 86.6564 189.251 82.5065 188.045C78.3566 186.839 74.0762 186.014 70.2656 186.03C69.326 186.03 68.3134 186.108 67.2955 186.202C66.2776 186.296 65.2597 186.448 64.2313 186.599C62.1799 186.928 60.1075 187.34 58.0404 187.789L57.2939 187.956C57.5445 186.86 57.8159 185.712 58.1135 184.527C59.9051 183.935 61.7279 183.442 63.5736 183.049C64.6594 182.813 65.7625 182.625 66.8831 182.486C67.4468 182.418 68.0106 182.36 68.5796 182.329C69.1705 182.29 69.7634 182.29 70.3544 182.329C72.6608 182.486 74.9203 183.055 77.0255 184.01C79.0822 184.866 81.0032 185.879 82.9868 186.698C84.9458 187.537 86.9852 188.173 89.0733 188.598C91.1264 189.004 93.2268 189.114 95.3112 188.927C95.8332 188.891 96.3552 188.812 96.8302 188.744C97.3052 188.677 97.7855 188.551 98.2762 188.436C99.268 188.17 100.281 187.914 101.288 187.591L107.432 185.769C109.489 185.148 111.566 184.542 113.66 183.973C115.753 183.404 117.882 182.898 120.059 182.496C122.24 182.082 124.453 181.862 126.673 181.838C126.997 183.258 127.289 184.621 127.555 185.9Z" fill="black"/>
<path d="M124.449 172.657C122.999 172.141 121.517 171.719 120.012 171.393C119.173 171.219 118.321 171.108 117.465 171.059H116.844C116.651 171.059 116.463 171.059 116.27 171.085C115.876 171.123 115.486 171.186 115.1 171.273C113.428 171.739 111.827 172.429 110.34 173.325C108.774 174.223 107.208 175.267 105.694 176.305C104.174 177.395 102.574 178.369 100.907 179.218C100.045 179.648 99.1453 179.998 98.2188 180.262C97.7445 180.389 97.2636 180.491 96.7781 180.565L96.0264 180.612C95.7605 180.63 95.4937 180.63 95.2278 180.612C94.2506 180.534 93.2837 180.359 92.3411 180.09C91.4224 179.86 90.5298 179.568 89.6476 179.281C87.878 178.696 86.1502 178.064 84.4276 177.464C82.705 176.864 80.9772 176.279 79.265 175.747C77.6009 175.201 75.8977 174.782 74.1703 174.494C73.3633 174.372 72.544 174.355 71.7326 174.442C70.8783 174.539 70.0322 174.697 69.2009 174.917C67.4712 175.378 65.773 175.95 64.1166 176.629C62.6237 177.234 61.1377 177.882 59.6587 178.571C59.8205 177.97 59.9876 177.365 60.1807 176.749C61.2247 176.112 62.2843 175.51 63.3597 174.943C65.0381 174.053 66.7834 173.296 68.5797 172.677C69.5107 172.369 70.4633 172.13 71.4298 171.962C72.4413 171.786 73.472 171.747 74.4939 171.847C78.4611 172.244 81.9533 173.643 85.3881 175.016L90.4828 177.104C91.3232 177.454 92.1689 177.783 93.0041 178.101C93.8071 178.417 94.6323 178.674 95.4731 178.868C95.666 178.909 95.8613 178.937 96.0578 178.952L96.6946 178.978H97.3366C97.5559 178.978 97.7699 178.936 97.9839 178.915C98.8595 178.8 99.7193 178.587 100.547 178.278C102.226 177.606 103.806 176.711 105.245 175.616C105.981 175.094 106.68 174.484 107.396 173.904L109.525 172.103C110.971 170.923 112.527 169.723 114.51 169.086C115.009 168.92 115.523 168.805 116.045 168.742C116.311 168.705 116.567 168.7 116.849 168.684H117.606C118.588 168.754 119.563 168.907 120.519 169.143C121.645 169.412 122.751 169.76 123.828 170.187L124.449 172.657Z" fill="black"/>
</g>
<path d="M79.6928 121.104C56.4377 130.965 38.3817 139.552 41.0022 148.488C42.0462 151.996 48.1014 161.46 55.9001 161.45C62.0283 161.45 72.9538 151.615 85.4035 134.415C91.8502 125.515 94.3767 114.871 79.6928 121.104Z" fill="#31E3A5"/>
<path d="M83.8167 139.134C82.8249 139.953 81.8383 140.794 80.8726 141.65L81.4938 140.929C83.159 138.956 84.8033 136.967 86.4476 134.979C86.4789 134.937 86.411 134.885 86.3745 134.926C83.2425 138.257 80.1105 141.556 76.9419 144.876C73.7734 148.196 65.5101 156.605 63.5004 158.255C63.4587 158.291 63.5004 158.359 63.5526 158.328C65.3692 156.908 70.4691 152.638 72.0978 151.046C74.5581 148.638 76.9228 146.153 79.1918 143.592C80.8474 142.227 82.4279 140.774 83.9263 139.238C83.9837 139.181 83.8845 139.076 83.8167 139.134Z" fill="#263238"/>
<path d="M49.3178 156.041C39.1492 151.865 32.5616 121.02 30.0664 100.26C29.5914 96.3089 60.8279 92.5035 60.8644 96.7578C60.9897 121.041 60.4572 160.604 49.3178 156.041Z" fill="#AD6359"/>
<path d="M26.1407 84.0784C26.3234 90.7025 31.9976 107.286 34.6128 109.996C37.228 112.705 57.0588 103.21 58.1498 99.5557C59.2408 95.9017 60.1804 74.176 55.8112 69.0187C51.4421 63.8613 25.9476 77.2193 26.1407 84.0784Z" fill="#AD6359"/>
<path d="M60.9425 78.2999C59.2094 81.3536 56.6047 77.5639 56.6047 77.5639C56.6047 77.5639 59.0424 83.9219 56.0409 86.3805C53.1386 88.7399 50.1475 84.0524 49.9335 83.7183C50.0588 84.0576 52.1468 89.9823 48.8895 92.1173C45.4861 94.3567 43.2937 89.1367 43.1475 88.7974C43.1475 89.1575 43.3406 93.866 40.4801 94.9413C35.5681 96.7892 34.7955 84.7519 31.4912 82.0792C31.4912 82.0792 26.3287 84.4804 26.146 84.5953C26.146 84.5953 25.1803 75.8465 29.0274 71.587C29.5768 70.9581 30.325 70.5364 31.1476 70.392C31.9701 70.2476 32.8172 70.3894 33.5479 70.7936C33.5479 70.7936 32.8328 67.1396 35.354 65.3596C36.6486 64.4461 39.2638 65.7145 39.2638 65.7145C39.2638 65.7145 38.8097 62.7652 41.1482 61.3193C43.017 60.1604 45.3243 61.6116 45.3243 61.6116C45.3243 61.6116 46.2012 58.5788 48.4928 58.0098C53.1229 56.8457 64.6435 71.7436 60.9425 78.2999Z" fill="#AD6359"/>
<path d="M45.7364 61.7682C45.7309 61.7585 45.7286 61.7473 45.7298 61.7362C45.7311 61.7252 45.7359 61.7148 45.7434 61.7066C45.751 61.6985 45.761 61.6929 45.772 61.6909C45.7829 61.6888 45.7943 61.6903 45.8043 61.6951C50.7894 65.6675 55.0489 71.5609 56.7663 77.7362C56.8237 77.9397 56.5157 78.1224 56.4113 77.9084C53.4255 71.8793 50.2935 66.7637 45.7364 61.7682Z" fill="#263238"/>
<path d="M39.2222 65.5996C39.1752 65.5474 39.2639 65.4639 39.3266 65.5109C44.4422 69.6347 49.0567 76.405 50.1946 83.7809C50.2364 84.0315 50.0171 84.3029 49.9493 84.0106C48.8218 79.156 43.346 70.0784 39.2222 65.5996Z" fill="#263238"/>
<path d="M43.0429 89.3244C41.6752 82.3139 38.1987 76.4467 33.7617 70.9343C33.7043 70.8613 33.8139 70.7882 33.8766 70.8352C36.7841 72.9232 39.2427 76.7494 40.9079 79.8762C42.5103 82.7427 43.3362 85.978 43.3039 89.2618C43.3039 89.4079 43.069 89.4758 43.0429 89.3244Z" fill="#263238"/>
<path d="M56.6046 77.5483C56.9592 78.8097 57.1969 80.101 57.3146 81.4059C57.4755 82.6709 57.2953 83.9559 56.7926 85.1278C56.5388 85.6546 56.0977 86.0678 55.5554 86.2866C55.0064 86.5014 54.4115 86.5715 53.8276 86.4902C53.2522 86.3637 52.7101 86.117 52.2369 85.7661C51.7637 85.4152 51.3701 84.9682 51.0819 84.4544L49.5681 82.0062L50.1423 84.8302C50.4052 86.0828 50.4634 87.3697 50.3145 88.6408C50.1527 89.878 49.662 91.0681 48.7172 91.6945C48.2801 92.0301 47.7414 92.2058 47.1905 92.1925C46.6397 92.1792 46.11 91.9777 45.6896 91.6215C44.7648 90.8037 44.064 89.7634 43.6538 88.5991L42.4062 85.4253L42.542 88.8183C42.5845 89.7626 42.5038 90.7085 42.3018 91.6319C42.1461 92.5143 41.734 93.3312 41.1169 93.9809C40.8259 94.2607 40.4627 94.4538 40.0681 94.5387C39.6734 94.6235 39.263 94.5967 38.8827 94.4611C38.0793 94.0309 37.4148 93.3809 36.967 92.5872C35.9836 90.8813 35.1354 89.1011 34.4301 87.2628C34.0386 86.344 33.6419 85.4253 33.2034 84.5223C32.812 83.5914 32.2285 82.7536 31.4912 82.0636C32.138 82.8176 32.6326 83.6898 32.9476 84.6319C33.313 85.5558 33.6366 86.5006 33.9603 87.4455C34.5633 89.3738 35.3481 91.2405 36.304 93.0204C36.8064 93.9942 37.5808 94.8012 38.533 95.3433C39.0832 95.5798 39.6904 95.6504 40.2802 95.5465C40.87 95.4427 41.4166 95.1689 41.8529 94.7587C42.6513 93.9785 43.1969 92.9765 43.4189 91.8825C43.6591 90.8565 43.7643 89.8036 43.7321 88.7505L42.6255 88.9697C43.0889 90.3557 43.9078 91.5959 45.0006 92.5663C45.6206 93.0884 46.4033 93.3782 47.2139 93.3858C48.0092 93.366 48.7802 93.1077 49.4271 92.6446C50.7478 91.7259 51.2907 90.1651 51.4473 88.7818C51.5934 87.3852 51.5069 85.9741 51.1915 84.6058L50.2467 84.9868C50.6289 85.6103 51.1427 86.1426 51.7523 86.5466C52.3618 86.9505 53.0523 87.2164 53.7754 87.3254C54.5028 87.3913 55.2349 87.2672 55.8999 86.9652C56.5787 86.6454 57.1171 86.0885 57.4137 85.3992C57.9879 84.0681 57.8679 82.6692 57.6852 81.3642C57.469 80.0558 57.1066 78.7758 56.6046 77.5483Z" fill="#263238"/>
<path d="M58.766 100.955C58.766 100.955 74.8749 71.4619 59.81 71.0704C56.156 70.9765 41.6392 76.8647 42.6884 79.8035C44.0456 83.6037 50.5184 82.4396 54.5065 81.0615C54.5065 81.0615 49.7406 89.4553 54.5952 94.5187C56.404 96.3619 57.8225 98.551 58.766 100.955Z" fill="#AD6359"/>
<path d="M60.8538 71.0546C59.4192 70.9986 57.9841 71.1534 56.5943 71.514C55.1946 71.8353 53.8185 72.2522 52.4757 72.7616C49.7655 73.7373 47.1455 74.9477 44.6457 76.379C43.985 76.7595 43.3806 77.2304 42.8501 77.778C42.5478 78.0966 42.3196 78.478 42.1819 78.8951C42.104 79.1253 42.0669 79.3673 42.0723 79.6102C42.0789 79.8488 42.123 80.0848 42.2028 80.3097C42.5017 81.1181 43.0767 81.7948 43.8262 82.2202C44.5237 82.5876 45.2796 82.8313 46.0604 82.9406C47.5396 83.1186 49.0384 83.0427 50.4921 82.7161C51.9112 82.4235 53.3069 82.0275 54.6681 81.5312L54.0783 80.8056C53.5703 81.7839 53.156 82.8081 52.8411 83.8645C52.5183 84.9082 52.3031 85.9821 52.1991 87.0696C52.108 88.161 52.1748 89.2598 52.3974 90.3321C52.6212 91.3923 53.0446 92.4003 53.645 93.3023C53.1771 92.3487 52.8719 91.3236 52.742 90.2695C52.6283 89.2265 52.6564 88.1729 52.8255 87.1375C52.9841 86.1062 53.2464 85.0936 53.6085 84.1151C53.9633 83.1402 54.4071 82.2001 54.9344 81.3067L55.5973 80.2157L54.3445 80.5864C53.0162 81.0126 51.6613 81.3509 50.2886 81.599C48.954 81.8704 47.5845 81.9251 46.2326 81.7609C44.9642 81.5677 43.6592 80.9726 43.3042 79.9339C42.9075 79.0465 44.1133 78.0494 45.2356 77.3239C46.416 76.5768 47.6358 75.8937 48.8896 75.2776C50.1476 74.6303 51.4161 74.0039 52.7106 73.4454C55.352 72.3857 58.0089 71.2791 60.8538 71.0546Z" fill="#263238"/>
<path d="M62.0961 102.756L29.6121 109.855C29.6121 109.855 27.4719 116.015 29.3615 122.409C32.9476 134.54 43.6434 160.583 52.2721 159.993C61.6159 159.341 63.8866 126.789 63.7561 110.847C63.6621 105.444 62.0961 102.756 62.0961 102.756Z" fill="#31E3A5"/>
<g opacity="0.1">
<path d="M63.7195 115.425C63.7195 116.109 63.7195 116.813 63.6725 117.513C62.8895 117.904 62.1065 118.275 61.2609 118.593C60.6501 118.833 60.0237 119.053 59.3869 119.241C59.0632 119.335 58.7396 119.429 58.4107 119.502C58.0666 119.583 57.718 119.644 57.3667 119.684C56.0056 119.815 54.6321 119.702 53.3108 119.35C52.0319 119.053 50.8104 118.646 49.5733 118.364C48.3519 118.063 47.1031 117.889 45.8462 117.842C44.6148 117.806 43.3846 117.945 42.1922 118.254C41.8999 118.327 41.6023 118.421 41.3257 118.51C41.049 118.599 40.8037 118.713 40.5114 118.828C39.9633 119.079 39.3995 119.35 38.8357 119.616L35.4375 121.276C34.2996 121.835 33.1459 122.394 31.9819 122.926C31.2772 123.26 30.5568 123.568 29.826 123.866C29.6642 123.344 29.5128 122.858 29.3719 122.383C29.2623 122.023 29.1683 121.663 29.0952 121.303C30.8752 120.603 32.6761 119.872 34.4823 119.136C35.6672 118.666 36.8417 118.171 38.0736 117.753C38.6896 117.549 39.3055 117.341 39.958 117.184C40.2869 117.106 40.6158 117.027 41.002 116.975C41.3883 116.923 41.6702 116.897 42.0043 116.881C44.6874 116.725 47.2243 117.215 49.7612 117.513C52.1941 117.853 54.6624 117.853 57.0953 117.513C57.6173 117.419 58.2228 117.278 58.8075 117.121C59.3921 116.965 59.9715 116.782 60.5562 116.599C61.5741 116.244 62.6546 115.848 63.7195 115.425Z" fill="black"/>
<path d="M63.5422 121.104C63.5422 121.48 63.5109 121.856 63.49 122.237C63.062 122.597 62.6287 122.947 62.1798 123.281C61.2907 123.959 60.3519 124.57 59.3714 125.108C58.8664 125.376 58.3431 125.608 57.8054 125.802C57.2322 126 56.6356 126.123 56.0306 126.167C53.6764 126.319 51.5101 125.844 49.3699 125.379L46.1961 124.648C45.6741 124.528 45.1521 124.419 44.6301 124.314C44.1312 124.208 43.6253 124.139 43.1163 124.106C43.0016 124.098 42.8865 124.098 42.7718 124.106L42.396 124.152L42.0201 124.226C41.9001 124.226 41.7748 124.293 41.6495 124.325C41.133 124.485 40.6372 124.706 40.1723 124.982C39.2547 125.534 38.4185 126.21 37.6875 126.992C37.3065 127.378 36.9567 127.791 36.5966 128.198L35.5526 129.456C34.8341 130.364 33.9481 131.126 32.9426 131.701C32.837 131.759 32.727 131.81 32.6137 131.852C32.4519 131.429 32.2953 131.012 32.1387 130.594C32.217 130.563 32.3005 130.537 32.3788 130.5C33.3074 130.065 34.1731 129.507 34.9523 128.84C35.7875 128.161 36.5757 127.405 37.3691 126.653C38.1497 125.868 38.9891 125.144 39.8799 124.487C40.3389 124.153 40.8283 123.862 41.3415 123.62C41.6078 123.5 41.8635 123.401 42.1559 123.307L42.5787 123.187C42.7248 123.155 42.8971 123.124 43.0433 123.108C43.6196 123.053 44.1999 123.053 44.7763 123.108C45.3348 123.155 45.8829 123.234 46.4258 123.317C47.5116 123.49 48.5817 123.688 49.6466 123.871C50.7114 124.053 51.7711 124.226 52.8203 124.367C53.843 124.523 54.876 124.602 55.9106 124.601C56.3942 124.593 56.8749 124.523 57.3408 124.393C57.8279 124.253 58.3042 124.079 58.7659 123.871C59.7303 123.435 60.665 122.936 61.5638 122.378C62.232 121.984 62.8914 121.56 63.5422 121.104Z" fill="black"/>
</g>
<path d="M61.6939 111.499C45.6268 116.009 34.0279 118.103 31.7677 118.452C31.7552 118.452 31.7433 118.447 31.7345 118.439C31.7257 118.43 31.7207 118.418 31.7207 118.405C31.7207 118.393 31.7257 118.381 31.7345 118.372C31.7433 118.363 31.7552 118.358 31.7677 118.358C42.9333 114.934 60.5977 111.395 61.6835 111.306C61.7057 111.31 61.7259 111.321 61.7408 111.338C61.7558 111.355 61.7646 111.376 61.7658 111.399C61.767 111.421 61.7606 111.443 61.7475 111.462C61.7345 111.48 61.7156 111.493 61.6939 111.499Z" fill="#263238"/>
<path d="M63.2756 130.813C62.8945 133.857 62.028 138.685 61.3285 141.671C61.2816 141.859 61.2346 142.047 61.1928 142.235C61.3911 143.306 61.4907 144.392 61.4904 145.482C61.4904 146.755 61.3807 148.013 61.2502 149.277C61.2502 149.329 61.1615 149.323 61.1667 149.277C61.2503 148.019 61.2398 146.758 61.1354 145.502C61.078 144.756 61.0153 144.004 60.9527 143.253C60.2689 146.103 59.5485 148.953 58.6611 151.746C58.6611 151.798 58.5672 151.746 58.5828 151.714C59.251 148.681 59.9661 145.654 60.5247 142.6C61.0832 139.546 62.3621 132.379 62.8945 129.347C63.3174 126.94 63.3957 129.858 63.2756 130.813Z" fill="#263238"/>
<path d="M92.8942 118.134C93.2752 119.246 99.4296 126.11 104.608 125.358C106.299 125.108 105.354 115.842 105.354 115.842L105.443 115.143L106.654 105.34L92.962 98.4126C92.962 98.4126 92.7323 117.659 92.8942 118.134Z" fill="#AD6359"/>
<path d="M106.644 105.345L105.422 115.137L105.339 115.842C105.339 115.842 105.506 117.523 105.574 119.465C98.3806 119.105 94.6117 114.093 92.8369 110.554C92.8682 104.995 92.9465 98.4126 92.9465 98.4126L106.644 105.345Z" fill="#263238"/>
<path d="M121.912 88.6356C126.913 109.192 115.163 114.506 110.726 115.581C106.701 116.552 92.8732 119.355 85.7793 99.4253C78.6853 79.4954 86.6615 70.6736 95.7495 67.9592C104.837 65.2448 116.906 68.074 121.912 88.6356Z" fill="#AD6359"/>
<path d="M116.008 89.2254C115.52 89.2325 115.032 89.2133 114.547 89.168C114.03 89.2213 113.511 89.102 113.069 88.8287C112.947 88.7155 112.866 88.5649 112.838 88.4005C112.811 88.2361 112.839 88.0672 112.918 87.9204C113.115 87.6528 113.38 87.4433 113.686 87.3137C113.992 87.1842 114.327 87.1395 114.656 87.1844C115.337 87.166 115.999 87.4024 116.515 87.8474C116.626 87.9557 116.703 88.0939 116.738 88.2453C116.772 88.3967 116.762 88.5549 116.708 88.7006C116.655 88.8464 116.56 88.9735 116.436 89.0667C116.312 89.1598 116.163 89.2149 116.008 89.2254Z" fill="#263238"/>
<path d="M101.382 92.3572C101.845 92.2062 102.299 92.032 102.744 91.8352C103.248 91.714 103.698 91.4295 104.023 91.0261C104.103 90.8791 104.13 90.7096 104.102 90.5449C104.073 90.3803 103.991 90.2299 103.867 90.1178C103.592 89.9313 103.272 89.8218 102.941 89.8006C102.609 89.7795 102.278 89.8476 101.982 89.9978C101.334 90.2073 100.787 90.65 100.448 91.2401C100.383 91.3787 100.359 91.5327 100.379 91.6843C100.399 91.8359 100.461 91.9787 100.559 92.0959C100.657 92.2132 100.787 92.3001 100.933 92.3463C101.078 92.3926 101.234 92.3964 101.382 92.3572Z" fill="#263238"/>
<path d="M107.573 106.556C107.954 106.854 108.346 107.276 108.868 107.266C109.4 107.2 109.912 107.022 110.371 106.744C110.38 106.74 110.391 106.739 110.401 106.741C110.411 106.743 110.42 106.748 110.427 106.756C110.434 106.763 110.439 106.772 110.441 106.782C110.444 106.792 110.443 106.802 110.439 106.812C110.265 107.115 110.011 107.365 109.706 107.536C109.401 107.707 109.055 107.792 108.706 107.783C108.405 107.74 108.125 107.608 107.899 107.404C107.674 107.2 107.515 106.934 107.442 106.64C107.411 106.556 107.51 106.488 107.573 106.556Z" fill="#263238"/>
<path d="M112.762 103.137C112.387 104.079 111.778 104.909 110.992 105.548C110.551 105.877 110.018 106.059 109.468 106.07C108.262 106.102 107.938 105.079 107.902 104.139C107.881 103.638 107.921 103.137 108.022 102.646C109.509 103.311 111.17 103.482 112.762 103.137Z" fill="white"/>
<path d="M112.041 104.468C111.984 104.546 111.921 104.635 111.853 104.713C111.473 104.757 111.09 104.757 110.71 104.713C111.164 104.63 111.608 104.551 112.041 104.468Z" fill="#DBDBDB"/>
<path d="M109.499 104.614C109.205 104.617 108.913 104.585 108.627 104.52C108.378 104.456 108.135 104.368 107.901 104.259C107.901 104.228 107.901 104.186 107.901 104.155C107.901 104.123 107.901 104.05 107.901 103.998C108.42 104.237 108.954 104.443 109.499 104.614Z" fill="#DBDBDB"/>
<path d="M112.662 100.433C112.662 100.433 113.305 102.521 113.472 103.508C113.472 103.601 113.252 103.685 112.918 103.758C112.918 103.758 112.892 103.758 112.876 103.758C112.043 104.057 111.144 104.121 110.277 103.944C109.409 103.766 108.608 103.353 107.959 102.751C107.937 102.734 107.922 102.709 107.919 102.682C107.915 102.654 107.922 102.627 107.938 102.604C107.955 102.582 107.98 102.568 108.007 102.564C108.035 102.56 108.062 102.567 108.085 102.584C109.507 103.245 111.106 103.429 112.642 103.106C112.642 102.818 111.41 99.556 111.571 99.556C112.255 99.556 113.477 99.6552 113.931 99.6917C113.539 98.3345 112.245 94.5396 111.54 92.0653C111.498 91.9139 111.733 91.8199 111.791 91.9609C113.079 94.6894 114.184 97.5005 115.1 100.376C115.168 100.616 113.09 100.532 112.662 100.433Z" fill="#263238"/>
<path d="M102.525 96.2043C102.532 95.8349 102.638 95.4742 102.833 95.1603C102.948 94.9964 103.095 94.8577 103.266 94.7527C103.436 94.6477 103.627 94.5786 103.825 94.5496C104.028 94.5256 104.234 94.5494 104.426 94.6192C104.618 94.689 104.791 94.8028 104.931 94.9515C105.174 95.2154 105.352 95.5315 105.453 95.8755C105.508 96.0816 105.549 96.2907 105.579 96.5019C105.64 96.9416 105.601 97.3897 105.464 97.8121C105.44 97.4915 105.38 97.1746 105.286 96.8673C105.206 96.5909 105.107 96.3206 104.989 96.0582C104.733 95.5362 104.347 95.1029 103.903 95.1864C103.459 95.2699 103.141 95.6667 103.026 96.2304C102.929 96.8378 102.89 97.4531 102.911 98.0679C102.643 97.4839 102.511 96.8467 102.525 96.2043Z" fill="#263238"/>
<path d="M116.744 93.4379C116.6 93.1035 116.367 92.8148 116.071 92.6027C115.903 92.4933 115.714 92.4196 115.517 92.3864C115.319 92.3531 115.117 92.3611 114.922 92.4096C114.725 92.4629 114.543 92.5621 114.392 92.6991C114.24 92.8361 114.123 93.007 114.051 93.1978C113.925 93.5305 113.88 93.8884 113.92 94.2418C113.944 94.4534 113.984 94.6628 114.04 94.8682C114.144 95.3004 114.35 95.7014 114.64 96.0375C114.539 95.7331 114.474 95.4177 114.447 95.0979C114.424 94.8095 114.424 94.5197 114.447 94.2314C114.479 93.6415 114.677 93.1091 115.121 93.0203C115.564 92.9316 116.008 93.1717 116.332 93.6728C116.651 94.1992 116.918 94.7551 117.13 95.3328C117.155 94.6794 117.022 94.0297 116.744 93.4379Z" fill="#263238"/>
<path d="M83.7436 101.268C90.0337 101.336 92.8629 93.673 91.0516 87.7535C91.0516 87.7535 107.839 88.975 107.844 75.5596C109.121 77.2977 110.806 78.695 112.751 79.6281C114.695 80.5612 116.839 81.0015 118.994 80.9101L121.15 85.7281C122.831 85.133 124.36 80.174 119.955 76.6088C119.955 76.6088 119.276 69.9637 114.124 66.2523C112.729 65.1823 111.055 64.5381 109.303 64.3973C107.551 64.2565 105.795 64.6252 104.248 65.4589C101.224 63.5329 97.5699 62.859 94.0583 63.5797C87.9927 64.7281 85.795 70.4701 85.795 70.4701C85.795 70.4701 77.6362 72.5581 76.5817 78.4775C76.2415 80.1657 76.2633 81.9068 76.6458 83.5859C77.0282 85.2649 77.7625 86.8438 78.8002 88.2181C78.8002 88.2181 76.8688 90.6454 78.2156 95.5835C79.0612 98.7311 81.8592 101.268 83.7436 101.268Z" fill="#263238"/>
<path d="M107.395 74.4058C107.586 75.4822 107.663 76.5757 107.625 77.6683C107.618 78.7463 107.477 79.8192 107.207 80.8629C106.693 82.9284 105.418 84.7236 103.637 85.8898C101.909 87.1478 99.6958 87.4558 97.5869 87.7898C96.5064 87.8212 95.4206 87.9308 94.3296 87.8995C93.2386 87.8681 92.1477 87.7846 91.041 87.7637C92.1216 87.9569 93.2125 88.1083 94.3087 88.2857C95.4049 88.4632 96.5168 88.3536 97.6339 88.3901C99.8263 88.1709 102.134 87.8681 104.06 86.537C105.977 85.2504 107.315 83.2643 107.787 81.0038C108.214 78.8066 108.079 76.5371 107.395 74.4058Z" fill="#263238"/>
<path d="M85.7951 70.4697C83.6796 70.6114 81.6162 71.189 79.7347 72.1662C77.771 73.1342 76.2124 74.7649 75.3342 76.7703C74.9657 77.7911 74.7631 78.8643 74.7339 79.9492C74.6654 81.026 74.7819 82.1065 75.0784 83.1439C75.6361 85.2434 76.9652 87.0552 78.8003 88.2177C77.2186 86.8823 76.1184 85.0652 75.6683 83.0447C75.2276 81.0658 75.3653 79.0019 76.065 77.0991C76.4263 76.1736 76.9574 75.3238 77.631 74.5935C78.346 73.8746 79.1473 73.2469 80.0165 72.7248C81.811 71.6716 83.7616 70.9104 85.7951 70.4697Z" fill="#263238"/>
<path d="M104.269 65.4797C105.806 64.8141 107.439 64.3982 109.107 64.2478C110.733 64.0897 112.373 64.3521 113.868 65.0099C115.331 65.7294 116.587 66.8068 117.522 68.1419C118.487 69.512 119.247 71.0156 119.777 72.605C119.527 70.9029 118.926 69.2713 118.013 67.8131C117.129 66.2744 115.79 65.047 114.181 64.2994C112.571 63.5517 110.77 63.3203 109.024 63.6371C107.324 63.9 105.702 64.5287 104.269 65.4797Z" fill="#263238"/>
<path d="M116.441 81.6252C114.579 81.1129 112.815 80.2944 111.221 79.2031C110.443 78.659 109.74 78.0129 109.133 77.2822C108.52 76.5282 107.995 75.7068 107.567 74.834C107.712 75.8303 108.068 76.7841 108.611 77.6319C109.156 78.4949 109.865 79.2417 110.699 79.8295C111.526 80.4162 112.441 80.869 113.409 81.1711C114.386 81.4965 115.412 81.6501 116.441 81.6252Z" fill="#263238"/>
<path d="M103.209 104.024C101.829 104.121 100.449 103.829 99.2266 103.181C98.0043 102.532 96.9884 101.554 96.2947 100.357C95.6009 99.1599 95.2571 97.7921 95.3023 96.4092C95.3475 95.0264 95.78 93.6839 96.5504 92.5347C97.3209 91.3855 98.3985 90.4756 99.6606 89.9085C100.923 89.3415 102.319 89.1401 103.689 89.3272C105.06 89.5143 106.351 90.0824 107.415 90.967C108.479 91.8515 109.273 93.0169 109.708 94.3305C110.319 96.192 110.168 98.2198 109.287 99.97C108.407 101.72 106.869 103.05 105.01 103.669C104.426 103.86 103.821 103.979 103.209 104.024ZM102.243 90.2642C101.711 90.3027 101.185 90.4061 100.677 90.5721C99.1313 91.0831 97.8383 92.1639 97.0614 93.5947C96.2845 95.0255 96.0821 96.6986 96.4955 98.2734C96.9088 99.8481 97.9068 101.206 99.2863 102.071C100.666 102.936 102.323 103.242 103.92 102.928C105.518 102.614 106.936 101.703 107.885 100.38C108.834 99.0571 109.244 97.4223 109.03 95.8083C108.816 94.1943 107.995 92.7224 106.734 91.6924C105.473 90.6624 103.867 90.1516 102.243 90.2642Z" fill="#31E3A5"/>
<path d="M119.214 100.829C116.39 101.028 113.633 98.3187 112.913 94.529C112.543 92.724 112.743 90.8485 113.487 89.1628C113.764 88.4197 114.228 87.7607 114.834 87.2497C115.441 86.7386 116.169 86.3929 116.948 86.2458C117.727 86.0988 118.531 86.1555 119.282 86.4105C120.033 86.6655 120.705 87.1101 121.234 87.7012C122.542 88.9966 123.412 90.6683 123.724 92.4827C124.481 96.4865 122.68 100.203 119.694 100.767C119.535 100.798 119.375 100.819 119.214 100.829ZM117.501 87.174C117.376 87.174 117.256 87.174 117.131 87.221C116.516 87.3673 115.946 87.6589 115.467 88.0712C114.988 88.4836 114.616 89.0047 114.38 89.5908C113.722 91.0871 113.548 92.7517 113.884 94.3515C114.542 97.8176 117.058 100.266 119.511 99.8012C121.965 99.3366 123.41 96.1472 122.753 92.6759C122.482 91.0631 121.714 89.5754 120.555 88.4216C120.162 88.0118 119.686 87.6891 119.16 87.4742C118.634 87.2593 118.069 87.1571 117.501 87.174Z" fill="#31E3A5"/>
<path d="M109.692 95.2025L109.045 94.6805C109.828 93.7253 111.775 92.2741 113.576 93.5896L113.054 94.2577C111.472 93.0728 109.765 95.119 109.692 95.2025Z" fill="#31E3A5"/>
<path d="M80.4495 102.375L79.6509 102.134C79.7657 101.764 80.7888 98.4805 82.5584 97.8384C84.2184 97.2433 95.3787 96.1993 95.8538 96.1523L95.9321 96.9823C92.7322 97.2799 84.1244 98.1568 82.8455 98.6214C81.6762 99.0494 80.721 101.477 80.4495 102.375Z" fill="#31E3A5"/>
<path d="M90.1434 100.37C90.1434 100.37 84.5789 94.5446 81.8697 96.6221C79.1605 98.6997 84.036 107.642 87.7109 108.404C88.1744 108.534 88.6596 108.57 89.1372 108.508C89.6148 108.447 90.0751 108.29 90.4905 108.046C90.9058 107.802 91.2676 107.477 91.5542 107.09C91.8408 106.703 92.0463 106.262 92.1583 105.794L90.1434 100.37Z" fill="#AD6359"/>
<path d="M83.3313 99.1487C83.3209 99.1522 83.3118 99.1588 83.3053 99.1677C83.2989 99.1766 83.2954 99.1873 83.2954 99.1983C83.2954 99.2093 83.2989 99.22 83.3053 99.2289C83.3118 99.2378 83.3209 99.2445 83.3313 99.2479C85.9413 99.8586 87.5491 101.926 88.8071 104.134C87.9458 103.34 86.8809 102.996 85.8056 104.045C85.7482 104.103 85.8056 104.191 85.8943 104.165C86.3022 103.964 86.7623 103.893 87.2117 103.964C87.6611 104.034 88.0779 104.241 88.4051 104.557C88.9469 105.092 89.4299 105.683 89.8459 106.321C89.992 106.519 90.3679 106.321 90.2478 106.107L90.2165 106.05C89.7989 102.933 86.7191 98.9504 83.3313 99.1487Z" fill="#263238"/>
<path d="M84.3435 119.538C83.4874 118.494 88.9945 115.362 90.4248 116.541C91.8551 117.721 99.0952 136.085 96.7462 156.01C94.3972 175.935 55.8319 197.404 54.3964 194.424C53.8013 193.171 54.5634 189.679 55.503 188.562C56.8237 186.996 84.6724 169.707 87.4233 157.351C89.8663 146.363 86.515 122.252 84.3435 119.538Z" fill="#455A64"/>
<path d="M106.054 119.121C104.895 116.923 110.861 118.693 111.514 119.877C112.166 121.062 120.142 140.1 121.521 152.544C122.043 157.529 124 170.95 124 170.95C124 170.95 118.174 152.946 113.372 137.871C111.331 131.473 108.886 125.21 106.054 119.121Z" fill="#455A64"/>
<path d="M218.962 197.713C218.962 197.713 225.07 175.679 229.924 168.199C234.779 160.719 243.893 152.497 243.893 152.497C243.893 152.497 243.7 186.464 218.962 197.713Z" fill="#31E3A5"/>
<path d="M219.401 197.316C221.456 193.874 223.312 190.317 224.96 186.662C225.661 182.724 226.675 178.849 227.993 175.074C228.019 175.006 228.118 175.042 228.103 175.115C227.293 178.592 226.349 182.042 225.493 185.513C227.956 180.153 230.3 174.724 233.234 169.655C233.911 167.206 234.862 164.84 236.068 162.603C236.1 162.54 236.204 162.572 236.173 162.639C235.43 164.363 234.793 166.131 234.267 167.933C235.651 165.671 237.202 163.516 238.908 161.486C239.018 161.361 239.232 161.486 239.122 161.637C235.197 166.675 232.487 172.401 229.909 178.2C232.684 175.174 235.244 171.957 237.572 168.575C237.572 168.543 237.645 168.575 237.624 168.611C235.199 172.404 232.454 175.982 229.418 179.307C227.539 183.556 225.691 187.821 223.452 191.866C227.93 188.061 231.375 183.138 234.784 178.388C234.792 178.377 234.801 178.368 234.812 178.361C234.824 178.353 234.836 178.348 234.849 178.346C234.862 178.344 234.876 178.344 234.889 178.346C234.902 178.349 234.914 178.355 234.925 178.362C234.936 178.37 234.945 178.379 234.953 178.39C234.96 178.402 234.965 178.414 234.967 178.427C234.97 178.44 234.97 178.454 234.967 178.467C234.964 178.48 234.959 178.492 234.951 178.503C231.537 183.723 228.009 188.625 223.102 192.482C222.108 194.259 221.013 195.977 219.824 197.629C219.782 197.685 219.72 197.722 219.651 197.733C219.582 197.743 219.512 197.725 219.456 197.684C219.4 197.642 219.362 197.58 219.352 197.511C219.342 197.442 219.359 197.372 219.401 197.316Z" fill="#263238"/>
<path d="M217.067 199.696C217.067 199.696 228.029 179.38 224.856 159.685C221.682 139.99 218.252 132.974 218.252 132.974C218.252 132.974 201 163.61 217.067 199.696Z" fill="#31E3A5"/>
<path d="M212.562 167.76C213.492 173.341 214.91 178.829 216.801 184.161C216.832 176.932 216.968 169.707 217.161 162.477C215.921 158.091 215.22 153.571 215.073 149.015C215.073 148.885 215.266 148.89 215.277 149.015C215.624 152.919 216.268 156.792 217.203 160.598C217.37 154.637 217.561 148.676 217.777 142.715C217.777 142.694 217.785 142.674 217.8 142.659C217.815 142.644 217.835 142.636 217.855 142.636C217.876 142.636 217.896 142.644 217.911 142.659C217.925 142.674 217.934 142.694 217.934 142.715C217.934 152.027 217.934 161.339 217.871 170.657C219.21 167.056 220.268 163.356 221.034 159.591C221.037 159.584 221.042 159.578 221.048 159.574C221.054 159.57 221.061 159.568 221.068 159.568C221.076 159.568 221.083 159.57 221.089 159.574C221.095 159.578 221.099 159.584 221.102 159.591C220.768 163.939 219.453 168.146 217.861 172.181C217.819 178.137 217.756 184.088 217.62 190.044C219.479 183.712 221.462 177.584 222 170.892C222 170.883 222.002 170.874 222.005 170.866C222.009 170.858 222.014 170.85 222.02 170.844C222.026 170.838 222.034 170.833 222.042 170.829C222.05 170.826 222.059 170.824 222.068 170.824C222.077 170.824 222.086 170.826 222.094 170.829C222.102 170.833 222.11 170.838 222.116 170.844C222.122 170.85 222.127 170.858 222.131 170.866C222.134 170.874 222.136 170.883 222.136 170.892C221.995 178.268 220.1 185.753 217.683 192.691C217.656 192.759 217.613 192.82 217.558 192.868C217.506 195.04 217.443 197.215 217.37 199.393C217.37 199.457 217.345 199.518 217.3 199.563C217.255 199.608 217.193 199.633 217.13 199.633C217.066 199.633 217.005 199.608 216.96 199.563C216.915 199.518 216.89 199.457 216.89 199.393C216.799 194.942 216.763 190.491 216.78 186.041C214.316 180.299 213.001 173.935 212.453 167.771C212.463 167.713 212.557 167.703 212.562 167.76Z" fill="#263238"/>
<path d="M213.314 164.618C213.7 166.386 213.956 168.179 214.081 169.984C214.081 170.047 213.993 170.052 213.977 169.984C213.55 168.224 213.249 166.436 213.074 164.634C213.058 164.508 213.288 164.482 213.314 164.618Z" fill="#263238"/>
<path d="M219.74 149.767C219.74 149.704 219.844 149.725 219.844 149.767C219.83 151.02 219.644 152.266 219.291 153.468C219.265 153.567 219.124 153.52 219.145 153.426C219.38 152.22 219.526 150.994 219.74 149.767Z" fill="#263238"/>
<path d="M213.069 201.252C213.069 201.252 213.513 180.043 207.463 169.504C201.413 158.965 191.375 153.593 191.375 153.593C191.375 153.593 195.42 190.974 213.069 201.252Z" fill="#31E3A5"/>
<path d="M202.039 183.117C204.581 186.797 207.113 190.347 210.229 193.557C209.018 189.221 207.626 184.958 206.053 180.768C202.66 177.777 199.299 174.677 197.216 170.584C197.184 170.521 197.278 170.464 197.315 170.527C199.554 174.149 202.535 177.052 205.693 179.839C203.267 173.525 200.455 167.366 197.273 161.397C197.262 161.367 197.262 161.335 197.273 161.305C197.284 161.275 197.304 161.25 197.332 161.234C197.359 161.218 197.391 161.212 197.422 161.217C197.453 161.222 197.482 161.237 197.503 161.261C199.438 164.391 201.201 167.623 202.785 170.944C202.217 168.674 201.742 166.356 201.183 164.106C201.18 164.094 201.181 164.08 201.187 164.069C201.194 164.058 201.204 164.049 201.217 164.046C201.229 164.043 201.243 164.044 201.254 164.051C201.265 164.057 201.273 164.067 201.277 164.08C202.352 166.914 203.417 170.046 203.762 173.074C205.881 177.778 207.662 182.628 209.091 187.586C208.935 184.407 208.736 181.243 208.413 178.07C208.413 178.012 208.507 177.996 208.517 178.07C209.189 181.589 209.495 185.168 209.431 188.75C210.302 191.908 211.038 195.108 211.628 198.328C211.628 198.417 211.519 198.454 211.498 198.365C211.169 197.013 210.809 195.677 210.454 194.34C210.454 194.34 210.407 194.34 210.386 194.34C207.139 191.067 204.059 187.345 202.034 183.175C201.992 183.112 202.023 183.096 202.039 183.117Z" fill="#263238"/>
<path d="M195.029 165.86C195.702 166.591 196.318 167.363 196.971 168.115C197.603 168.751 198.186 169.436 198.714 170.161C198.714 170.193 198.714 170.229 198.667 170.208C197.905 169.641 197.227 168.97 196.652 168.214C196.015 167.503 195.439 166.74 194.93 165.933C194.893 165.876 194.982 165.808 195.029 165.86Z" fill="#263238"/>
<path d="M231.046 198.663L230.284 205.449L227.982 226.026H207.937L205.646 205.459L204.878 198.673H231.052L231.046 198.663Z" fill="#455A64"/>
<path d="M231.046 198.663L230.284 205.449H205.646L204.878 198.663H231.052H231.046Z" fill="#37474F"/>
<path d="M203.094 201.429H232.827V193.73H203.094V201.429Z" fill="#455A64"/>
<path d="M203.897 218.932H143.919V226.031H203.897V218.932Z" fill="#37474F"/>
<path d="M158.128 218.932H155.685V226.031H158.128V218.932Z" fill="#455A64"/>
<path d="M196.84 218.932H190.978V226.031H196.84V218.932Z" fill="#455A64"/>
<path d="M199.58 198.177H138.318V207.558H199.58V198.177Z" fill="#37474F"/>
<path d="M188.744 201.221H174.028V204.515H188.744V201.221Z" fill="#31E3A5"/>
<path d="M196.12 202.865C196.145 203.254 196.052 203.643 195.854 203.979C195.655 204.315 195.361 204.584 195.007 204.751C194.654 204.917 194.259 204.974 193.873 204.913C193.488 204.852 193.129 204.677 192.844 204.41C192.56 204.143 192.362 203.796 192.276 203.415C192.191 203.034 192.222 202.636 192.366 202.273C192.51 201.91 192.76 201.599 193.083 201.379C193.406 201.16 193.787 201.043 194.178 201.043C194.677 201.027 195.161 201.211 195.525 201.552C195.89 201.894 196.103 202.366 196.12 202.865Z" fill="#31E3A5"/>
<path d="M166.313 189.877H135.364V198.156H166.313V189.877Z" fill="#263238"/>
<path d="M194.919 189.877H166.313V198.156H194.919V189.877Z" fill="#263238"/>
<path d="M166.313 190.739H135.364V197.3H166.313V190.739Z" fill="white"/>
<path d="M138.057 192.096C141.3 192.054 144.544 192.023 147.787 192.002L152.188 191.971L161.913 192.002C165.154 192.002 163.071 192.049 166.313 192.096C163.071 192.143 165.154 192.174 161.913 192.195L152.188 192.221L147.787 192.195C144.544 192.167 141.3 192.134 138.057 192.096Z" fill="#DBDBDB"/>
<path d="M138.057 193.375C141.3 193.33 144.544 193.298 147.787 193.281L152.188 193.25L161.913 193.276C165.154 193.276 163.071 193.328 166.313 193.375C163.071 193.422 165.154 193.453 161.913 193.469L152.188 193.5L147.787 193.469C144.544 193.455 141.3 193.424 138.057 193.375Z" fill="#DBDBDB"/>
<path d="M138.057 194.659C141.3 194.617 144.544 194.586 147.787 194.565L152.188 194.539L161.913 194.565C165.154 194.565 163.071 194.617 166.313 194.659C163.071 194.706 165.154 194.743 161.913 194.758H152.188H147.787C144.544 194.741 141.3 194.708 138.057 194.659Z" fill="#DBDBDB"/>
<path d="M138.057 195.949C141.3 195.903 144.544 195.872 147.787 195.855L152.188 195.823L161.913 195.855C165.154 195.855 163.071 195.902 166.313 195.949C163.071 195.995 165.154 196.027 161.913 196.042L152.188 196.074L147.787 196.042C144.544 196.029 141.3 195.997 138.057 195.949Z" fill="#DBDBDB"/>
<path d="M176.68 189.877H172.65V198.156H176.68V189.877Z" fill="#455A64"/>
<path d="M193.442 189.877H190.732V198.156H193.442V189.877Z" fill="#455A64"/>
<path d="M162.205 218.927H197.059V207.547H162.205V218.927Z" fill="#31E3A5"/>
<path d="M135.74 218.927H162.205V207.547H135.74V218.927Z" fill="#31E3A5"/>
<path d="M162.205 217.747H197.059V208.732H162.205V217.747Z" fill="white"/>
<path d="M194.799 215.894C192.084 215.943 189.368 215.974 186.65 215.988L178.502 216.019L170.353 215.988C167.635 215.988 164.918 215.956 162.2 215.894C164.921 215.849 167.639 215.817 170.353 215.8L178.502 215.769L186.65 215.8C189.368 215.817 192.084 215.849 194.799 215.894Z" fill="#DBDBDB"/>
<path d="M194.799 214.124C192.084 214.173 189.368 214.204 186.65 214.218L178.502 214.25L170.353 214.224C167.635 214.203 164.918 214.17 162.2 214.124C164.921 214.079 167.639 214.048 170.353 214.03L178.502 214.02L186.65 214.051C189.368 214.055 192.084 214.079 194.799 214.124Z" fill="#DBDBDB"/>
<path d="M194.799 212.355C192.084 212.4 189.368 212.433 186.65 212.454L178.502 212.48L170.353 212.454C167.635 212.433 164.918 212.4 162.2 212.355C164.921 212.31 167.639 212.278 170.353 212.261L178.502 212.229L186.65 212.261C189.368 212.278 192.084 212.31 194.799 212.355Z" fill="#DBDBDB"/>
<path d="M194.799 210.585C192.084 210.63 189.368 210.664 186.65 210.684L178.502 210.711L170.353 210.684C167.635 210.684 164.918 210.651 162.2 210.585C164.921 210.537 167.639 210.505 170.353 210.491L178.502 210.46L186.65 210.491C189.37 210.507 192.074 210.543 194.799 210.585Z" fill="#DBDBDB"/>
<path d="M144.906 207.552H139.952V218.932H144.906V207.552Z" fill="#455A64"/>
<path d="M164.888 54.1108C164.887 57.5648 163.927 60.9506 162.114 63.8907C160.302 66.8308 157.708 69.2097 154.623 70.7622C151.538 72.3146 148.082 72.9795 144.64 72.6828C141.199 72.3861 137.908 71.1394 135.134 69.0818L125.999 71.4151L129.804 62.9065C128.466 60.4064 127.715 57.6339 127.609 54.8C127.503 51.9661 128.045 49.1453 129.193 46.5523C130.342 43.9592 132.066 41.6621 134.235 39.8357C136.405 38.0093 138.962 36.7016 141.713 36.0122C144.464 35.3228 147.336 35.2697 150.11 35.857C152.885 36.4443 155.488 37.6566 157.724 39.4016C159.959 41.1466 161.767 43.3784 163.011 45.9273C164.254 48.4761 164.9 51.2749 164.898 54.1108H164.888Z" fill="white"/>
<path d="M164.888 54.1108C164.883 57.5655 163.926 60.9521 162.122 63.8982C161.669 64.6226 161.174 65.3198 160.639 65.9862C160.083 66.6422 159.487 67.2628 158.854 67.8446C158.545 68.1429 158.221 68.4252 157.883 68.6902L156.839 69.468C156.494 69.7238 156.113 69.9273 155.748 70.1622L155.2 70.5015C155.012 70.6059 154.814 70.6947 154.626 70.7886C154.234 70.9766 153.853 71.1749 153.462 71.3524L152.251 71.8065C151.848 71.9609 151.434 72.0864 151.013 72.1824C150.596 72.2816 150.189 72.4225 149.761 72.4851C148.913 72.6521 148.055 72.7568 147.192 72.7983C146.324 72.8673 145.451 72.8673 144.582 72.7983C142.857 72.6571 141.159 72.2813 139.535 71.6813C137.912 71.0692 136.379 70.2404 134.978 69.2174L135.134 69.2487L126.01 71.6186L125.55 71.7387L125.743 71.3054L129.528 62.7864V63.0108C128.174 60.4837 127.427 57.676 127.346 54.8102C127.242 51.9388 127.796 49.0816 128.967 46.4576C130.138 43.8337 131.894 41.5126 134.101 39.6722C136.298 37.8443 138.886 36.5443 141.664 35.8721C144.425 35.2031 147.301 35.1684 150.076 35.7706C152.852 36.3729 155.454 37.5965 157.689 39.3493C159.924 41.1022 161.732 43.3387 162.978 45.8909C164.224 48.4431 164.875 51.2446 164.883 54.0846L164.888 54.1108ZM164.888 54.1108C164.873 51.2802 164.216 48.4898 162.967 45.95C161.717 43.4101 159.908 41.1869 157.674 39.4478C155.435 37.7299 152.84 36.5349 150.079 35.9504C147.314 35.3934 144.458 35.4701 141.727 36.1748C139.007 36.8689 136.483 38.1759 134.346 39.9959C132.228 41.8275 130.537 44.1011 129.392 46.6566C128.266 49.2159 127.736 51.9976 127.842 54.7918C127.947 57.5859 128.686 60.3196 130.003 62.7864L130.06 62.896L130.013 63.0108L126.198 71.5142L125.931 71.1958L135.082 68.9042H135.166L135.239 68.9564C137.969 71.0259 141.223 72.2915 144.635 72.6104C145.485 72.6904 146.34 72.7026 147.192 72.647C148.045 72.6122 148.894 72.5197 149.735 72.3703C150.157 72.3129 150.565 72.1719 150.982 72.078C151.401 71.9908 151.813 71.8722 152.214 71.723L153.42 71.2898L154.579 70.7417C154.772 70.6477 154.97 70.5642 155.158 70.4598L155.68 70.1309C156.04 69.9065 156.427 69.7081 156.771 69.4575L157.815 68.6902C158.153 68.4274 158.477 68.1468 158.786 67.8498C159.418 67.272 160.014 66.6567 160.571 66.0071C161.109 65.3419 161.606 64.6447 162.059 63.9191C163.889 60.9734 164.868 57.5786 164.888 54.1108Z" fill="#263238"/>
<path d="M143.215 65.2086L134.857 56.747L137.666 53.97L142.546 58.9133L152.694 43.0132L156.019 45.1325L143.215 65.2086Z" fill="#31E3A5"/>
</svg>
