<svg width="16" height="16" viewBox="0 0 16 16" fill="none" xmlns="http://www.w3.org/2000/svg">
<path d="M0.310431 12.8106C0.210694 12.8106 0.133398 12.6807 0.0785427 12.4208C0.0261809 12.1609 0 11.7948 0 11.3223V1.48837C0 1.00406 0.0286743 0.637874 0.0860229 0.389812C0.143372 0.129937 0.224408 0 0.329131 0C0.416401 0 0.48497 0.0826873 0.534838 0.248062C0.5872 0.401624 0.634575 0.661499 0.676963 1.02769L1.48109 7.86711H1.35019L2.15057 1.02769C2.19545 0.661499 2.24283 0.401624 2.2927 0.248062C2.34506 0.0826873 2.41488 0 2.50215 0C2.60188 0 2.67793 0.129937 2.73029 0.389812C2.78515 0.637874 2.81258 1.00406 2.81258 1.48837V11.3223C2.81258 11.7948 2.78639 12.1609 2.73403 12.4208C2.68167 12.6807 2.60438 12.8106 2.50215 12.8106C2.40241 12.8106 2.32511 12.6807 2.27026 12.4208C2.2179 12.1609 2.19171 11.7948 2.19171 11.3223V5.22702H2.27026L1.6681 10.1883C1.63319 10.4481 1.59579 10.643 1.55589 10.773C1.51849 10.9029 1.46738 10.9679 1.40255 10.9679C1.34021 10.9679 1.2891 10.9029 1.2492 10.773C1.20931 10.643 1.17315 10.4481 1.14074 10.1883L0.534838 5.2093H0.620861V11.3223C0.620861 11.7948 0.59468 12.1609 0.542318 12.4208C0.489957 12.6807 0.412661 12.8106 0.310431 12.8106Z" fill="black"/>
<path d="M3.78796 16C3.71066 16 3.64833 15.9055 3.60095 15.7165C3.55358 15.5275 3.52366 15.2794 3.51119 14.9723C3.50122 14.6652 3.51244 14.3403 3.54485 13.9978L3.79544 11.4286V12.7043L3.15588 5.7763C3.12346 5.42193 3.11224 5.09118 3.12222 4.78405C3.13468 4.47693 3.16835 4.23477 3.2232 4.05759C3.27806 3.86859 3.35286 3.77409 3.44761 3.77409C3.5274 3.77409 3.59098 3.86268 3.63835 4.03987C3.68822 4.20524 3.7331 4.53599 3.773 5.03212L4.14701 9.63898H4.01985L4.4163 5.0144C4.4562 4.53009 4.50108 4.20524 4.55095 4.03987C4.60331 3.86268 4.67312 3.77409 4.76039 3.77409C4.8352 3.77409 4.89504 3.86859 4.93992 4.05759C4.9848 4.23477 5.01223 4.47693 5.0222 4.78405C5.03218 5.09118 5.02096 5.42193 4.98854 5.7763L4.13953 14.8128C4.09465 15.2853 4.04478 15.5984 3.98993 15.7519C3.93756 15.9173 3.87024 16 3.78796 16Z" fill="black"/>
<path d="M6.47343 12.8106C6.37868 12.8106 6.30138 12.7161 6.24154 12.5271C6.18419 12.3381 6.13557 12.0369 6.09568 11.6235L5.19057 2.16168C5.15067 1.74825 5.1382 1.37615 5.15316 1.0454C5.16813 0.714655 5.20303 0.460687 5.25789 0.2835C5.31274 0.0945 5.38131 0 5.4636 0C5.56583 0 5.64187 0.106312 5.69174 0.318937C5.7441 0.531562 5.78899 0.844592 5.82639 1.25803L6.58937 9.62126H6.37993L7.14291 1.24031C7.18031 0.826874 7.2252 0.519749 7.27756 0.318937C7.32992 0.106312 7.40347 0 7.49822 0C7.57552 0 7.64035 0.0945 7.69271 0.2835C7.74507 0.460687 7.77749 0.714655 7.78995 1.0454C7.80492 1.37615 7.79245 1.74825 7.75255 2.16168L6.8437 11.6235C6.8063 12.0369 6.75893 12.3381 6.70158 12.5271C6.64423 12.7161 6.56818 12.8106 6.47343 12.8106Z" fill="black"/>
<path d="M8.73174 12.8461C8.52728 12.8461 8.349 12.663 8.1969 12.2968C8.0448 11.9306 7.92636 11.4049 7.84159 10.7198C7.75681 10.0347 7.71442 9.22554 7.71442 8.29236C7.71442 7.58361 7.73811 6.95164 7.78548 6.39646C7.83286 5.82946 7.90143 5.35105 7.99119 4.96124C8.08095 4.55962 8.18817 4.2584 8.31284 4.05759C8.43751 3.84496 8.57714 3.73865 8.73174 3.73865C8.9362 3.73865 9.11448 3.92174 9.26657 4.28793C9.41867 4.65412 9.53586 5.17977 9.61815 5.8649C9.70292 6.53821 9.74531 7.34736 9.74531 8.29236C9.74531 8.9893 9.72162 9.62126 9.67425 10.1883C9.62687 10.7553 9.5583 11.2396 9.46854 11.6412C9.38127 12.031 9.27406 12.3322 9.14689 12.5449C9.02222 12.7457 8.88383 12.8461 8.73174 12.8461ZM8.73174 10.5249C8.79906 10.5249 8.8589 10.4481 8.91126 10.2946C8.96362 10.1292 9.00352 9.88704 9.03095 9.56811C9.06087 9.23736 9.07583 8.81211 9.07583 8.29236C9.07583 7.50092 9.04341 6.93392 8.97858 6.59136C8.91376 6.23699 8.83147 6.0598 8.73174 6.0598C8.66441 6.0598 8.60457 6.13658 8.55221 6.29014C8.49985 6.44371 8.45871 6.68586 8.42879 7.01661C8.39886 7.33555 8.3839 7.7608 8.3839 8.29236C8.3839 9.07198 8.41632 9.63898 8.48115 9.99336C8.54598 10.3477 8.62951 10.5249 8.73174 10.5249Z" fill="black"/>
<path d="M10.9891 12.8461C10.7822 12.8461 10.6014 12.663 10.4468 12.2968C10.2947 11.9306 10.1763 11.4049 10.0915 10.7198C10.0067 10.0229 9.96434 9.20783 9.96434 8.27464C9.96434 7.56589 9.98803 6.93392 10.0354 6.37874C10.0828 5.81174 10.1513 5.33333 10.2411 4.94352C10.3334 4.55371 10.4418 4.2584 10.5665 4.05759C10.6937 3.84496 10.8345 3.73865 10.9891 3.73865C11.0614 3.73865 11.1375 3.77409 11.2173 3.84496C11.2971 3.90402 11.3794 4.02215 11.4641 4.19934C11.524 4.30565 11.5651 4.47102 11.5876 4.69546C11.6125 4.90808 11.6225 5.13843 11.6175 5.38649C11.615 5.63455 11.6 5.85899 11.5726 6.0598C11.5477 6.26061 11.5115 6.39646 11.4641 6.46733C11.4193 6.53821 11.3681 6.50868 11.3108 6.37874C11.2709 6.28424 11.2285 6.21927 11.1836 6.18383C11.1412 6.13658 11.1001 6.11296 11.0602 6.11296C10.9929 6.11296 10.933 6.16021 10.8807 6.25471C10.8308 6.34921 10.7884 6.49096 10.7535 6.67996C10.7186 6.85714 10.6912 7.08158 10.6712 7.35327C10.6538 7.62495 10.645 7.93208 10.645 8.27464C10.645 8.95976 10.6812 9.49723 10.7535 9.88704C10.8258 10.2769 10.928 10.4718 11.0602 10.4718C11.1001 10.4718 11.1412 10.454 11.1836 10.4186C11.226 10.3714 11.2684 10.3005 11.3108 10.206C11.3681 10.076 11.4193 10.0524 11.4641 10.1351C11.509 10.206 11.5452 10.3418 11.5726 10.5426C11.6 10.7434 11.615 10.9679 11.6175 11.2159C11.62 11.4522 11.6088 11.6825 11.5838 11.907C11.5589 12.1196 11.5165 12.2791 11.4567 12.3854C11.3744 12.5626 11.2933 12.6807 11.2135 12.7398C11.1362 12.8106 11.0614 12.8461 10.9891 12.8461Z" fill="black"/>
<path d="M12.4979 12.8461C12.3558 12.8461 12.2299 12.722 12.1201 12.474C12.0129 12.2259 11.9282 11.8893 11.8658 11.464C11.806 11.0269 11.7761 10.5308 11.7761 9.97564C11.7761 9.33776 11.811 8.83573 11.8808 8.46955C11.9506 8.10336 12.0628 7.84349 12.2174 7.68992C12.372 7.52455 12.5777 7.44186 12.8345 7.44186H13.0402V8.93023H12.8345C12.7373 8.93023 12.6562 8.96567 12.5914 9.03655C12.5291 9.09561 12.4829 9.19601 12.453 9.33776C12.4231 9.4677 12.4081 9.63898 12.4081 9.85161C12.4081 10.1233 12.4281 10.3477 12.468 10.5249C12.5104 10.7021 12.5702 10.7907 12.6475 10.7907C12.7098 10.7907 12.7647 10.7257 12.8121 10.5958C12.8619 10.4659 12.9018 10.2887 12.9318 10.0642C12.9617 9.82798 12.9766 9.55629 12.9766 9.24917V7.1938C12.9766 6.76855 12.9529 6.46733 12.9056 6.29014C12.8607 6.11296 12.7821 6.02436 12.6699 6.02436C12.6101 6.02436 12.5428 6.0598 12.468 6.13068C12.3932 6.18974 12.3096 6.30196 12.2174 6.46733C12.1501 6.58546 12.0927 6.60318 12.0453 6.52049C11.998 6.4378 11.9606 6.29605 11.9331 6.09524C11.9082 5.89443 11.8957 5.6759 11.8957 5.43965C11.8982 5.2034 11.9144 4.97896 11.9444 4.76633C11.9768 4.55371 12.0254 4.38834 12.0902 4.27021C12.2099 4.05759 12.3196 3.91584 12.4194 3.84496C12.5216 3.77409 12.6151 3.73865 12.6999 3.73865C12.9043 3.73865 13.0726 3.8804 13.2048 4.1639C13.3394 4.43559 13.4392 4.86084 13.504 5.43965C13.5713 6.00665 13.605 6.73902 13.605 7.63677V11.2159C13.605 11.7357 13.5788 12.1314 13.5264 12.4031C13.4741 12.6748 13.398 12.8106 13.2983 12.8106C13.1961 12.8106 13.1175 12.6748 13.0627 12.4031C13.0103 12.1314 12.9841 11.7357 12.9841 11.2159V10.7553L13.0066 11.0033C12.9941 11.3813 12.9654 11.7062 12.9205 11.9779C12.8757 12.2495 12.8171 12.4622 12.7447 12.6157C12.6724 12.7693 12.5902 12.8461 12.4979 12.8461Z" fill="black"/>
<path d="M15.1959 12.8461C15.0537 12.8461 14.9266 12.6866 14.8144 12.3677C14.7047 12.0369 14.6324 11.6058 14.5975 11.0742L14.6386 10.3477V11.2159C14.6386 11.7357 14.6099 12.1314 14.5526 12.4031C14.4977 12.6748 14.4179 12.8106 14.3132 12.8106C14.206 12.8106 14.1237 12.6748 14.0664 12.4031C14.0115 12.1314 13.9841 11.7357 13.9841 11.2159V1.59468C13.9841 1.07494 14.0127 0.679217 14.0701 0.40753C14.1274 0.135843 14.2085 0 14.3132 0C14.4204 0 14.5027 0.135843 14.5601 0.40753C14.6199 0.679217 14.6498 1.07494 14.6498 1.59468V5.38649H14.6049C14.6423 4.90218 14.7159 4.50646 14.8256 4.19934C14.9353 3.89221 15.0587 3.73865 15.1959 3.73865C15.3555 3.73865 15.4951 3.92174 15.6148 4.28793C15.7369 4.65412 15.8317 5.17387 15.899 5.84718C15.9663 6.52049 16 7.33555 16 8.29236C16 9.22554 15.9663 10.0347 15.899 10.7198C15.8317 11.4049 15.7369 11.9306 15.6148 12.2968C15.4951 12.663 15.3555 12.8461 15.1959 12.8461ZM14.9864 10.5249C15.0537 10.5249 15.1123 10.4481 15.1622 10.2946C15.2146 10.1292 15.2557 9.88704 15.2856 9.56811C15.3156 9.23736 15.3305 8.81211 15.3305 8.29236C15.3305 7.50092 15.2981 6.93392 15.2333 6.59136C15.1684 6.23699 15.0862 6.0598 14.9864 6.0598C14.9191 6.0598 14.8593 6.13658 14.8069 6.29014C14.7545 6.44371 14.7134 6.68586 14.6835 7.01661C14.6536 7.33555 14.6386 7.7608 14.6386 8.29236C14.6386 9.07198 14.671 9.63898 14.7358 9.99336C14.8007 10.3477 14.8842 10.5249 14.9864 10.5249Z" fill="black"/>
</svg>
