<svg width="39" height="40" viewBox="0 0 39 40" fill="none" xmlns="http://www.w3.org/2000/svg">
<path d="M29.0455 2.5V29.5455L19.5 24.7727L9.95455 29.5455V2.5M29.0455 2.5H32.2273C33.4931 2.5 34.707 3.00284 35.6021 3.8979C36.4972 4.79296 37 6.00692 37 7.27273V32.7273C37 33.9931 36.4972 35.207 35.6021 36.1021C34.707 36.9972 33.4931 37.5 32.2273 37.5H6.77273C5.50692 37.5 4.29296 36.9972 3.3979 36.1021C2.50284 35.207 2 33.9931 2 32.7273V7.27273C2 6.00692 2.50284 4.79296 3.3979 3.8979C4.29296 3.00284 5.50692 2.5 6.77273 2.5H9.95455M29.0455 2.5H9.95455" stroke="#31E3A5" stroke-width="4" stroke-linecap="round" stroke-linejoin="round"/>
</svg>
